%TF.GenerationSoftware,KiCad,Pcbnew,(6.0.0)*%
%TF.CreationDate,2022-05-09T00:40:02+05:30*%
%TF.ProjectId,usb-micro-programmer,7573622d-6d69-4637-926f-2d70726f6772,rev?*%
%TF.SameCoordinates,Original*%
%TF.FileFunction,Soldermask,Top*%
%TF.FilePolarity,Negative*%
%FSLAX46Y46*%
G04 Gerber Fmt 4.6, Leading zero omitted, Abs format (unit mm)*
G04 Created by KiCad (PCBNEW (6.0.0)) date 2022-05-09 00:40:02*
%MOMM*%
%LPD*%
G01*
G04 APERTURE LIST*
G04 Aperture macros list*
%AMRoundRect*
0 Rectangle with rounded corners*
0 $1 Rounding radius*
0 $2 $3 $4 $5 $6 $7 $8 $9 X,Y pos of 4 corners*
0 Add a 4 corners polygon primitive as box body*
4,1,4,$2,$3,$4,$5,$6,$7,$8,$9,$2,$3,0*
0 Add four circle primitives for the rounded corners*
1,1,$1+$1,$2,$3*
1,1,$1+$1,$4,$5*
1,1,$1+$1,$6,$7*
1,1,$1+$1,$8,$9*
0 Add four rect primitives between the rounded corners*
20,1,$1+$1,$2,$3,$4,$5,0*
20,1,$1+$1,$4,$5,$6,$7,0*
20,1,$1+$1,$6,$7,$8,$9,0*
20,1,$1+$1,$8,$9,$2,$3,0*%
G04 Aperture macros list end*
%ADD10R,1.700000X2.500000*%
%ADD11RoundRect,0.250000X0.325000X0.450000X-0.325000X0.450000X-0.325000X-0.450000X0.325000X-0.450000X0*%
%ADD12RoundRect,0.250000X0.337500X0.475000X-0.337500X0.475000X-0.337500X-0.475000X0.337500X-0.475000X0*%
%ADD13R,1.000000X0.700000*%
%ADD14R,0.600000X0.700000*%
%ADD15RoundRect,0.150000X0.150000X-0.825000X0.150000X0.825000X-0.150000X0.825000X-0.150000X-0.825000X0*%
%ADD16C,2.000000*%
%ADD17RoundRect,0.150000X0.587500X0.150000X-0.587500X0.150000X-0.587500X-0.150000X0.587500X-0.150000X0*%
%ADD18C,1.000000*%
%ADD19RoundRect,0.250000X-0.337500X-0.475000X0.337500X-0.475000X0.337500X0.475000X-0.337500X0.475000X0*%
%ADD20RoundRect,0.150000X0.625000X-0.150000X0.625000X0.150000X-0.625000X0.150000X-0.625000X-0.150000X0*%
%ADD21RoundRect,0.250000X0.650000X-0.350000X0.650000X0.350000X-0.650000X0.350000X-0.650000X-0.350000X0*%
%ADD22RoundRect,0.250000X-0.600000X-0.725000X0.600000X-0.725000X0.600000X0.725000X-0.600000X0.725000X0*%
%ADD23O,1.700000X1.950000*%
%ADD24C,6.400000*%
%ADD25RoundRect,0.250000X0.350000X0.450000X-0.350000X0.450000X-0.350000X-0.450000X0.350000X-0.450000X0*%
%ADD26RoundRect,0.250000X0.475000X-0.337500X0.475000X0.337500X-0.475000X0.337500X-0.475000X-0.337500X0*%
%ADD27RoundRect,0.250000X-0.475000X0.337500X-0.475000X-0.337500X0.475000X-0.337500X0.475000X0.337500X0*%
%ADD28R,2.100000X1.800000*%
%ADD29R,1.900000X1.900000*%
%ADD30O,1.600000X1.300000*%
%ADD31R,1.400000X1.600000*%
%ADD32R,1.350000X0.400000*%
%ADD33R,1.500000X2.000000*%
%ADD34R,3.800000X2.000000*%
%ADD35RoundRect,0.250000X-0.325000X-0.450000X0.325000X-0.450000X0.325000X0.450000X-0.325000X0.450000X0*%
%ADD36RoundRect,0.250001X-0.924999X0.499999X-0.924999X-0.499999X0.924999X-0.499999X0.924999X0.499999X0*%
%ADD37RoundRect,0.250000X-0.350000X-0.450000X0.350000X-0.450000X0.350000X0.450000X-0.350000X0.450000X0*%
G04 APERTURE END LIST*
D10*
%TO.C,D2*%
X90250000Y-95250000D03*
X90250000Y-99250000D03*
%TD*%
D11*
%TO.C,L2*%
X130000000Y-97750000D03*
X127950000Y-97750000D03*
%TD*%
%TO.C,F1*%
X87025000Y-98750000D03*
X84975000Y-98750000D03*
%TD*%
%TO.C,L1*%
X130000000Y-100500000D03*
X127950000Y-100500000D03*
%TD*%
D12*
%TO.C,C3*%
X128000000Y-112000000D03*
X125925000Y-112000000D03*
%TD*%
D13*
%TO.C,D1*%
X90750000Y-104000000D03*
D14*
X89050000Y-104000000D03*
X89050000Y-106000000D03*
X90950000Y-106000000D03*
%TD*%
D15*
%TO.C,U1*%
X113055000Y-108225000D03*
X114325000Y-108225000D03*
X115595000Y-108225000D03*
X116865000Y-108225000D03*
X118135000Y-108225000D03*
X119405000Y-108225000D03*
X120675000Y-108225000D03*
X121945000Y-108225000D03*
X121945000Y-103275000D03*
X120675000Y-103275000D03*
X119405000Y-103275000D03*
X118135000Y-103275000D03*
X116865000Y-103275000D03*
X115595000Y-103275000D03*
X114325000Y-103275000D03*
X113055000Y-103275000D03*
%TD*%
D16*
%TO.C,SW_IO0*%
X104250000Y-92250000D03*
X110750000Y-92250000D03*
X104250000Y-96750000D03*
X110750000Y-96750000D03*
%TD*%
D17*
%TO.C,Q1*%
X105687500Y-109200000D03*
X105687500Y-107300000D03*
X103812500Y-108250000D03*
%TD*%
D18*
%TO.C,FID2*%
X109250000Y-113750000D03*
%TD*%
D19*
%TO.C,C8*%
X98250000Y-101250000D03*
X100325000Y-101250000D03*
%TD*%
D20*
%TO.C,J2*%
X133500000Y-107500000D03*
X133500000Y-106500000D03*
X133500000Y-105500000D03*
X133500000Y-104500000D03*
X133500000Y-103500000D03*
X133500000Y-102500000D03*
D21*
X137375000Y-101200000D03*
X137375000Y-108800000D03*
%TD*%
D22*
%TO.C,J4*%
X116500000Y-92950000D03*
D23*
X119000000Y-92950000D03*
X121500000Y-92950000D03*
X124000000Y-92950000D03*
X126500000Y-92950000D03*
X129000000Y-92950000D03*
%TD*%
D18*
%TO.C,FID1*%
X90250000Y-92500000D03*
%TD*%
%TO.C,FID3*%
X137250000Y-98750000D03*
%TD*%
D24*
%TO.C,H3*%
X137250000Y-116250000D03*
%TD*%
%TO.C,H2*%
X84750000Y-116250000D03*
%TD*%
D25*
%TO.C,R1*%
X125250000Y-100500000D03*
X123250000Y-100500000D03*
%TD*%
D12*
%TO.C,C5*%
X114787500Y-112000000D03*
X112712500Y-112000000D03*
%TD*%
D19*
%TO.C,C1*%
X120675000Y-112000000D03*
X122750000Y-112000000D03*
%TD*%
D26*
%TO.C,C4*%
X120000000Y-99787500D03*
X120000000Y-97712500D03*
%TD*%
D27*
%TO.C,C9*%
X115250000Y-97712500D03*
X115250000Y-99787500D03*
%TD*%
D24*
%TO.C,H4*%
X137250000Y-93750000D03*
%TD*%
D22*
%TO.C,J3*%
X116500000Y-116450000D03*
D23*
X119000000Y-116450000D03*
X121500000Y-116450000D03*
X124000000Y-116450000D03*
X126500000Y-116450000D03*
X129000000Y-116450000D03*
%TD*%
D24*
%TO.C,H1*%
X84750000Y-93750000D03*
%TD*%
D25*
%TO.C,R2*%
X125250000Y-97750000D03*
X123250000Y-97750000D03*
%TD*%
D16*
%TO.C,SW_EN*%
X100250000Y-92250000D03*
X93750000Y-92250000D03*
X93750000Y-96750000D03*
X100250000Y-96750000D03*
%TD*%
D26*
%TO.C,C7*%
X104250000Y-115287500D03*
X104250000Y-113212500D03*
%TD*%
D28*
%TO.C,Y1*%
X124800000Y-107150000D03*
X127700000Y-107150000D03*
X127700000Y-104850000D03*
X124800000Y-104850000D03*
%TD*%
D29*
%TO.C,J1*%
X82499987Y-103799993D03*
D30*
X82499987Y-108174993D03*
X82499987Y-101824993D03*
D31*
X84949987Y-101799993D03*
D29*
X82499987Y-106199993D03*
D31*
X84949987Y-108199993D03*
D32*
X85174987Y-106299993D03*
X85174987Y-105649993D03*
X85174987Y-104999993D03*
X85174987Y-104349993D03*
X85174987Y-103699993D03*
%TD*%
D33*
%TO.C,U2*%
X100800000Y-111100000D03*
X98500000Y-111100000D03*
D34*
X98500000Y-117400000D03*
D33*
X96200000Y-111100000D03*
%TD*%
D35*
%TO.C,L3*%
X84700000Y-111250000D03*
X86750000Y-111250000D03*
%TD*%
D25*
%TO.C,R5*%
X110750000Y-101000000D03*
X108750000Y-101000000D03*
%TD*%
D17*
%TO.C,Q2*%
X105687500Y-104450000D03*
X105687500Y-102550000D03*
X103812500Y-103500000D03*
%TD*%
D36*
%TO.C,C6*%
X91000000Y-114375000D03*
X91000000Y-117625000D03*
%TD*%
D25*
%TO.C,R4*%
X100250000Y-105500000D03*
X98250000Y-105500000D03*
%TD*%
D37*
%TO.C,R3*%
X89000000Y-111250000D03*
X91000000Y-111250000D03*
%TD*%
D19*
%TO.C,C2*%
X93212500Y-101250000D03*
X95287500Y-101250000D03*
%TD*%
M02*
