%TF.GenerationSoftware,KiCad,Pcbnew,(6.0.0)*%
%TF.CreationDate,2022-05-09T00:40:02+05:30*%
%TF.ProjectId,usb-micro-programmer,7573622d-6d69-4637-926f-2d70726f6772,rev?*%
%TF.SameCoordinates,Original*%
%TF.FileFunction,Legend,Bot*%
%TF.FilePolarity,Positive*%
%FSLAX46Y46*%
G04 Gerber Fmt 4.6, Leading zero omitted, Abs format (unit mm)*
G04 Created by KiCad (PCBNEW (6.0.0)) date 2022-05-09 00:40:02*
%MOMM*%
%LPD*%
G01*
G04 APERTURE LIST*
%ADD10C,0.200000*%
%ADD11C,0.300000*%
G04 APERTURE END LIST*
D10*
X137110857Y-99107142D02*
X135910857Y-99107142D01*
X135910857Y-99392857D01*
X135968000Y-99564285D01*
X136082285Y-99678571D01*
X136196571Y-99735714D01*
X136425142Y-99792857D01*
X136596571Y-99792857D01*
X136825142Y-99735714D01*
X136939428Y-99678571D01*
X137053714Y-99564285D01*
X137110857Y-99392857D01*
X137110857Y-99107142D01*
X137053714Y-100764285D02*
X137110857Y-100650000D01*
X137110857Y-100421428D01*
X137053714Y-100307142D01*
X136939428Y-100250000D01*
X136482285Y-100250000D01*
X136368000Y-100307142D01*
X136310857Y-100421428D01*
X136310857Y-100650000D01*
X136368000Y-100764285D01*
X136482285Y-100821428D01*
X136596571Y-100821428D01*
X136710857Y-100250000D01*
X137053714Y-101278571D02*
X137110857Y-101392857D01*
X137110857Y-101621428D01*
X137053714Y-101735714D01*
X136939428Y-101792857D01*
X136882285Y-101792857D01*
X136768000Y-101735714D01*
X136710857Y-101621428D01*
X136710857Y-101450000D01*
X136653714Y-101335714D01*
X136539428Y-101278571D01*
X136482285Y-101278571D01*
X136368000Y-101335714D01*
X136310857Y-101450000D01*
X136310857Y-101621428D01*
X136368000Y-101735714D01*
X137110857Y-102307142D02*
X136310857Y-102307142D01*
X135910857Y-102307142D02*
X135968000Y-102250000D01*
X136025142Y-102307142D01*
X135968000Y-102364285D01*
X135910857Y-102307142D01*
X136025142Y-102307142D01*
X136310857Y-103392857D02*
X137282285Y-103392857D01*
X137396571Y-103335714D01*
X137453714Y-103278571D01*
X137510857Y-103164285D01*
X137510857Y-102992857D01*
X137453714Y-102878571D01*
X137053714Y-103392857D02*
X137110857Y-103278571D01*
X137110857Y-103050000D01*
X137053714Y-102935714D01*
X136996571Y-102878571D01*
X136882285Y-102821428D01*
X136539428Y-102821428D01*
X136425142Y-102878571D01*
X136368000Y-102935714D01*
X136310857Y-103050000D01*
X136310857Y-103278571D01*
X136368000Y-103392857D01*
X136310857Y-103964285D02*
X137110857Y-103964285D01*
X136425142Y-103964285D02*
X136368000Y-104021428D01*
X136310857Y-104135714D01*
X136310857Y-104307142D01*
X136368000Y-104421428D01*
X136482285Y-104478571D01*
X137110857Y-104478571D01*
X137053714Y-105507142D02*
X137110857Y-105392857D01*
X137110857Y-105164285D01*
X137053714Y-105050000D01*
X136939428Y-104992857D01*
X136482285Y-104992857D01*
X136368000Y-105050000D01*
X136310857Y-105164285D01*
X136310857Y-105392857D01*
X136368000Y-105507142D01*
X136482285Y-105564285D01*
X136596571Y-105564285D01*
X136710857Y-104992857D01*
X137110857Y-106592857D02*
X135910857Y-106592857D01*
X137053714Y-106592857D02*
X137110857Y-106478571D01*
X137110857Y-106250000D01*
X137053714Y-106135714D01*
X136996571Y-106078571D01*
X136882285Y-106021428D01*
X136539428Y-106021428D01*
X136425142Y-106078571D01*
X136368000Y-106135714D01*
X136310857Y-106250000D01*
X136310857Y-106478571D01*
X136368000Y-106592857D01*
X137110857Y-108078571D02*
X135910857Y-108078571D01*
X136368000Y-108078571D02*
X136310857Y-108192857D01*
X136310857Y-108421428D01*
X136368000Y-108535714D01*
X136425142Y-108592857D01*
X136539428Y-108650000D01*
X136882285Y-108650000D01*
X136996571Y-108592857D01*
X137053714Y-108535714D01*
X137110857Y-108421428D01*
X137110857Y-108192857D01*
X137053714Y-108078571D01*
X136310857Y-109050000D02*
X137110857Y-109335714D01*
X136310857Y-109621428D02*
X137110857Y-109335714D01*
X137396571Y-109221428D01*
X137453714Y-109164285D01*
X137510857Y-109050000D01*
X136996571Y-110078571D02*
X137053714Y-110135714D01*
X137110857Y-110078571D01*
X137053714Y-110021428D01*
X136996571Y-110078571D01*
X137110857Y-110078571D01*
X136368000Y-110078571D02*
X136425142Y-110135714D01*
X136482285Y-110078571D01*
X136425142Y-110021428D01*
X136368000Y-110078571D01*
X136482285Y-110078571D01*
X138242857Y-102821428D02*
X139271428Y-102821428D01*
X139385714Y-102764285D01*
X139442857Y-102650000D01*
X139442857Y-102592857D01*
X137842857Y-102821428D02*
X137900000Y-102764285D01*
X137957142Y-102821428D01*
X137900000Y-102878571D01*
X137842857Y-102821428D01*
X137957142Y-102821428D01*
X139042857Y-103392857D02*
X137842857Y-103392857D01*
X138300000Y-103392857D02*
X138242857Y-103507142D01*
X138242857Y-103735714D01*
X138300000Y-103850000D01*
X138357142Y-103907142D01*
X138471428Y-103964285D01*
X138814285Y-103964285D01*
X138928571Y-103907142D01*
X138985714Y-103850000D01*
X139042857Y-103735714D01*
X139042857Y-103507142D01*
X138985714Y-103392857D01*
X138242857Y-104307142D02*
X138242857Y-104764285D01*
X137842857Y-104478571D02*
X138871428Y-104478571D01*
X138985714Y-104535714D01*
X139042857Y-104650000D01*
X139042857Y-104764285D01*
X138985714Y-105621428D02*
X139042857Y-105507142D01*
X139042857Y-105278571D01*
X138985714Y-105164285D01*
X138871428Y-105107142D01*
X138414285Y-105107142D01*
X138300000Y-105164285D01*
X138242857Y-105278571D01*
X138242857Y-105507142D01*
X138300000Y-105621428D01*
X138414285Y-105678571D01*
X138528571Y-105678571D01*
X138642857Y-105107142D01*
X138242857Y-106192857D02*
X139271428Y-106192857D01*
X139385714Y-106135714D01*
X139442857Y-106021428D01*
X139442857Y-105964285D01*
X137842857Y-106192857D02*
X137900000Y-106135714D01*
X137957142Y-106192857D01*
X137900000Y-106250000D01*
X137842857Y-106192857D01*
X137957142Y-106192857D01*
X139042857Y-107278571D02*
X138414285Y-107278571D01*
X138300000Y-107221428D01*
X138242857Y-107107142D01*
X138242857Y-106878571D01*
X138300000Y-106764285D01*
X138985714Y-107278571D02*
X139042857Y-107164285D01*
X139042857Y-106878571D01*
X138985714Y-106764285D01*
X138871428Y-106707142D01*
X138757142Y-106707142D01*
X138642857Y-106764285D01*
X138585714Y-106878571D01*
X138585714Y-107164285D01*
X138528571Y-107278571D01*
X115873871Y-111507790D02*
X115873871Y-112188742D01*
X116445300Y-111822076D01*
X116445300Y-111979219D01*
X116516728Y-112083980D01*
X116588157Y-112136361D01*
X116731014Y-112188742D01*
X117088157Y-112188742D01*
X117231014Y-112136361D01*
X117302442Y-112083980D01*
X117373871Y-111979219D01*
X117373871Y-111664933D01*
X117302442Y-111560171D01*
X117231014Y-111507790D01*
X117231014Y-112660171D02*
X117302442Y-112712552D01*
X117373871Y-112660171D01*
X117302442Y-112607790D01*
X117231014Y-112660171D01*
X117373871Y-112660171D01*
X115873871Y-113079219D02*
X115873871Y-113760171D01*
X116445300Y-113393504D01*
X116445300Y-113550647D01*
X116516728Y-113655409D01*
X116588157Y-113707790D01*
X116731014Y-113760171D01*
X117088157Y-113760171D01*
X117231014Y-113707790D01*
X117302442Y-113655409D01*
X117373871Y-113550647D01*
X117373871Y-113236361D01*
X117302442Y-113131600D01*
X117231014Y-113079219D01*
X115873871Y-114074457D02*
X117373871Y-114441123D01*
X115873871Y-114807790D01*
X118360300Y-112293504D02*
X118288871Y-112188742D01*
X118288871Y-112031600D01*
X118360300Y-111874457D01*
X118503157Y-111769695D01*
X118646014Y-111717314D01*
X118931728Y-111664933D01*
X119146014Y-111664933D01*
X119431728Y-111717314D01*
X119574585Y-111769695D01*
X119717442Y-111874457D01*
X119788871Y-112031600D01*
X119788871Y-112136361D01*
X119717442Y-112293504D01*
X119646014Y-112345885D01*
X119146014Y-112345885D01*
X119146014Y-112136361D01*
X119788871Y-112817314D02*
X118288871Y-112817314D01*
X119788871Y-113445885D01*
X118288871Y-113445885D01*
X119788871Y-113969695D02*
X118288871Y-113969695D01*
X118288871Y-114231600D01*
X118360300Y-114388742D01*
X118503157Y-114493504D01*
X118646014Y-114545885D01*
X118931728Y-114598266D01*
X119146014Y-114598266D01*
X119431728Y-114545885D01*
X119574585Y-114493504D01*
X119717442Y-114388742D01*
X119788871Y-114231600D01*
X119788871Y-113969695D01*
X122203871Y-112398266D02*
X121489585Y-112031600D01*
X122203871Y-111769695D02*
X120703871Y-111769695D01*
X120703871Y-112188742D01*
X120775300Y-112293504D01*
X120846728Y-112345885D01*
X120989585Y-112398266D01*
X121203871Y-112398266D01*
X121346728Y-112345885D01*
X121418157Y-112293504D01*
X121489585Y-112188742D01*
X121489585Y-111769695D01*
X120703871Y-112764933D02*
X122203871Y-113498266D01*
X120703871Y-113498266D02*
X122203871Y-112764933D01*
X122203871Y-113917314D02*
X120703871Y-113917314D01*
X120703871Y-114179219D01*
X120775300Y-114336361D01*
X120918157Y-114441123D01*
X121061014Y-114493504D01*
X121346728Y-114545885D01*
X121561014Y-114545885D01*
X121846728Y-114493504D01*
X121989585Y-114441123D01*
X122132442Y-114336361D01*
X122203871Y-114179219D01*
X122203871Y-113917314D01*
X123118871Y-111743504D02*
X123118871Y-112372076D01*
X124618871Y-112057790D02*
X123118871Y-112057790D01*
X123118871Y-112633980D02*
X124618871Y-113367314D01*
X123118871Y-113367314D02*
X124618871Y-112633980D01*
X124618871Y-113786361D02*
X123118871Y-113786361D01*
X123118871Y-114048266D01*
X123190300Y-114205409D01*
X123333157Y-114310171D01*
X123476014Y-114362552D01*
X123761728Y-114414933D01*
X123976014Y-114414933D01*
X124261728Y-114362552D01*
X124404585Y-114310171D01*
X124547442Y-114205409D01*
X124618871Y-114048266D01*
X124618871Y-113786361D01*
X127033871Y-112031600D02*
X125533871Y-112031600D01*
X125533871Y-112764933D02*
X125533871Y-112974457D01*
X125605300Y-113079219D01*
X125748157Y-113183980D01*
X126033871Y-113236361D01*
X126533871Y-113236361D01*
X126819585Y-113183980D01*
X126962442Y-113079219D01*
X127033871Y-112974457D01*
X127033871Y-112764933D01*
X126962442Y-112660171D01*
X126819585Y-112555409D01*
X126533871Y-112503028D01*
X126033871Y-112503028D01*
X125748157Y-112555409D01*
X125605300Y-112660171D01*
X125533871Y-112764933D01*
X125533871Y-113917314D02*
X125533871Y-114022076D01*
X125605300Y-114126838D01*
X125676728Y-114179219D01*
X125819585Y-114231600D01*
X126105300Y-114283980D01*
X126462442Y-114283980D01*
X126748157Y-114231600D01*
X126891014Y-114179219D01*
X126962442Y-114126838D01*
X127033871Y-114022076D01*
X127033871Y-113917314D01*
X126962442Y-113812552D01*
X126891014Y-113760171D01*
X126748157Y-113707790D01*
X126462442Y-113655409D01*
X126105300Y-113655409D01*
X125819585Y-113707790D01*
X125676728Y-113760171D01*
X125605300Y-113812552D01*
X125533871Y-113917314D01*
X128663157Y-112319695D02*
X128663157Y-112686361D01*
X129448871Y-112843504D02*
X129448871Y-112319695D01*
X127948871Y-112319695D01*
X127948871Y-112843504D01*
X129448871Y-113314933D02*
X127948871Y-113314933D01*
X129448871Y-113943504D01*
X127948871Y-113943504D01*
X117373871Y-95059657D02*
X115873871Y-95059657D01*
X115873871Y-95321561D01*
X115945300Y-95478704D01*
X116088157Y-95583466D01*
X116231014Y-95635847D01*
X116516728Y-95688228D01*
X116731014Y-95688228D01*
X117016728Y-95635847D01*
X117159585Y-95583466D01*
X117302442Y-95478704D01*
X117373871Y-95321561D01*
X117373871Y-95059657D01*
X115873871Y-96002514D02*
X115873871Y-96631085D01*
X117373871Y-96316800D02*
X115873871Y-96316800D01*
X117373871Y-97626323D02*
X116659585Y-97259657D01*
X117373871Y-96997752D02*
X115873871Y-96997752D01*
X115873871Y-97416800D01*
X115945300Y-97521561D01*
X116016728Y-97573942D01*
X116159585Y-97626323D01*
X116373871Y-97626323D01*
X116516728Y-97573942D01*
X116588157Y-97521561D01*
X116659585Y-97416800D01*
X116659585Y-96997752D01*
X119788871Y-95583466D02*
X119074585Y-95216800D01*
X119788871Y-94954895D02*
X118288871Y-94954895D01*
X118288871Y-95373942D01*
X118360300Y-95478704D01*
X118431728Y-95531085D01*
X118574585Y-95583466D01*
X118788871Y-95583466D01*
X118931728Y-95531085D01*
X119003157Y-95478704D01*
X119074585Y-95373942D01*
X119074585Y-94954895D01*
X118288871Y-95950133D02*
X119788871Y-96683466D01*
X118288871Y-96683466D02*
X119788871Y-95950133D01*
X119788871Y-97102514D02*
X118288871Y-97102514D01*
X118288871Y-97364419D01*
X118360300Y-97521561D01*
X118503157Y-97626323D01*
X118646014Y-97678704D01*
X118931728Y-97731085D01*
X119146014Y-97731085D01*
X119431728Y-97678704D01*
X119574585Y-97626323D01*
X119717442Y-97521561D01*
X119788871Y-97364419D01*
X119788871Y-97102514D01*
X120703871Y-94928704D02*
X120703871Y-95557276D01*
X122203871Y-95242990D02*
X120703871Y-95242990D01*
X120703871Y-95819180D02*
X122203871Y-96552514D01*
X120703871Y-96552514D02*
X122203871Y-95819180D01*
X122203871Y-96971561D02*
X120703871Y-96971561D01*
X120703871Y-97233466D01*
X120775300Y-97390609D01*
X120918157Y-97495371D01*
X121061014Y-97547752D01*
X121346728Y-97600133D01*
X121561014Y-97600133D01*
X121846728Y-97547752D01*
X121989585Y-97495371D01*
X122132442Y-97390609D01*
X122203871Y-97233466D01*
X122203871Y-96971561D01*
X123118871Y-96107276D02*
X123118871Y-95583466D01*
X123833157Y-95531085D01*
X123761728Y-95583466D01*
X123690300Y-95688228D01*
X123690300Y-95950133D01*
X123761728Y-96054895D01*
X123833157Y-96107276D01*
X123976014Y-96159657D01*
X124333157Y-96159657D01*
X124476014Y-96107276D01*
X124547442Y-96054895D01*
X124618871Y-95950133D01*
X124618871Y-95688228D01*
X124547442Y-95583466D01*
X124476014Y-95531085D01*
X123118871Y-96473942D02*
X124618871Y-96840609D01*
X123118871Y-97207276D01*
X126891014Y-95714419D02*
X126962442Y-95662038D01*
X127033871Y-95504895D01*
X127033871Y-95400133D01*
X126962442Y-95242990D01*
X126819585Y-95138228D01*
X126676728Y-95085847D01*
X126391014Y-95033466D01*
X126176728Y-95033466D01*
X125891014Y-95085847D01*
X125748157Y-95138228D01*
X125605300Y-95242990D01*
X125533871Y-95400133D01*
X125533871Y-95504895D01*
X125605300Y-95662038D01*
X125676728Y-95714419D01*
X125533871Y-96028704D02*
X125533871Y-96657276D01*
X127033871Y-96342990D02*
X125533871Y-96342990D01*
X126962442Y-96971561D02*
X127033871Y-97128704D01*
X127033871Y-97390609D01*
X126962442Y-97495371D01*
X126891014Y-97547752D01*
X126748157Y-97600133D01*
X126605300Y-97600133D01*
X126462442Y-97547752D01*
X126391014Y-97495371D01*
X126319585Y-97390609D01*
X126248157Y-97181085D01*
X126176728Y-97076323D01*
X126105300Y-97023942D01*
X125962442Y-96971561D01*
X125819585Y-96971561D01*
X125676728Y-97023942D01*
X125605300Y-97076323D01*
X125533871Y-97181085D01*
X125533871Y-97442990D01*
X125605300Y-97600133D01*
X128020300Y-95478704D02*
X127948871Y-95373942D01*
X127948871Y-95216800D01*
X128020300Y-95059657D01*
X128163157Y-94954895D01*
X128306014Y-94902514D01*
X128591728Y-94850133D01*
X128806014Y-94850133D01*
X129091728Y-94902514D01*
X129234585Y-94954895D01*
X129377442Y-95059657D01*
X129448871Y-95216800D01*
X129448871Y-95321561D01*
X129377442Y-95478704D01*
X129306014Y-95531085D01*
X128806014Y-95531085D01*
X128806014Y-95321561D01*
X129448871Y-96002514D02*
X127948871Y-96002514D01*
X129448871Y-96631085D01*
X127948871Y-96631085D01*
X129448871Y-97154895D02*
X127948871Y-97154895D01*
X127948871Y-97416800D01*
X128020300Y-97573942D01*
X128163157Y-97678704D01*
X128306014Y-97731085D01*
X128591728Y-97783466D01*
X128806014Y-97783466D01*
X129091728Y-97731085D01*
X129234585Y-97678704D01*
X129377442Y-97573942D01*
X129448871Y-97416800D01*
X129448871Y-97154895D01*
D11*
X97299857Y-97876914D02*
X97299857Y-98276914D01*
X98085571Y-98448342D02*
X98085571Y-97876914D01*
X96585571Y-97876914D01*
X96585571Y-98448342D01*
X98014142Y-98905485D02*
X98085571Y-99076914D01*
X98085571Y-99362628D01*
X98014142Y-99476914D01*
X97942714Y-99534057D01*
X97799857Y-99591200D01*
X97657000Y-99591200D01*
X97514142Y-99534057D01*
X97442714Y-99476914D01*
X97371285Y-99362628D01*
X97299857Y-99134057D01*
X97228428Y-99019771D01*
X97157000Y-98962628D01*
X97014142Y-98905485D01*
X96871285Y-98905485D01*
X96728428Y-98962628D01*
X96657000Y-99019771D01*
X96585571Y-99134057D01*
X96585571Y-99419771D01*
X96657000Y-99591200D01*
X98085571Y-100105485D02*
X96585571Y-100105485D01*
X96585571Y-100562628D01*
X96657000Y-100676914D01*
X96728428Y-100734057D01*
X96871285Y-100791200D01*
X97085571Y-100791200D01*
X97228428Y-100734057D01*
X97299857Y-100676914D01*
X97371285Y-100562628D01*
X97371285Y-100105485D01*
X96585571Y-102219771D02*
X97799857Y-102219771D01*
X97942714Y-102276914D01*
X98014142Y-102334057D01*
X98085571Y-102448342D01*
X98085571Y-102676914D01*
X98014142Y-102791200D01*
X97942714Y-102848342D01*
X97799857Y-102905485D01*
X96585571Y-102905485D01*
X98014142Y-103419771D02*
X98085571Y-103591200D01*
X98085571Y-103876914D01*
X98014142Y-103991200D01*
X97942714Y-104048342D01*
X97799857Y-104105485D01*
X97657000Y-104105485D01*
X97514142Y-104048342D01*
X97442714Y-103991200D01*
X97371285Y-103876914D01*
X97299857Y-103648342D01*
X97228428Y-103534057D01*
X97157000Y-103476914D01*
X97014142Y-103419771D01*
X96871285Y-103419771D01*
X96728428Y-103476914D01*
X96657000Y-103534057D01*
X96585571Y-103648342D01*
X96585571Y-103934057D01*
X96657000Y-104105485D01*
X97299857Y-105019771D02*
X97371285Y-105191200D01*
X97442714Y-105248342D01*
X97585571Y-105305485D01*
X97799857Y-105305485D01*
X97942714Y-105248342D01*
X98014142Y-105191200D01*
X98085571Y-105076914D01*
X98085571Y-104619771D01*
X96585571Y-104619771D01*
X96585571Y-105019771D01*
X96657000Y-105134057D01*
X96728428Y-105191200D01*
X96871285Y-105248342D01*
X97014142Y-105248342D01*
X97157000Y-105191200D01*
X97228428Y-105134057D01*
X97299857Y-105019771D01*
X97299857Y-104619771D01*
X98085571Y-106734057D02*
X96585571Y-106734057D01*
X97657000Y-107134057D01*
X96585571Y-107534057D01*
X98085571Y-107534057D01*
X98085571Y-108105485D02*
X97085571Y-108105485D01*
X96585571Y-108105485D02*
X96657000Y-108048342D01*
X96728428Y-108105485D01*
X96657000Y-108162628D01*
X96585571Y-108105485D01*
X96728428Y-108105485D01*
X98014142Y-109191200D02*
X98085571Y-109076914D01*
X98085571Y-108848342D01*
X98014142Y-108734057D01*
X97942714Y-108676914D01*
X97799857Y-108619771D01*
X97371285Y-108619771D01*
X97228428Y-108676914D01*
X97157000Y-108734057D01*
X97085571Y-108848342D01*
X97085571Y-109076914D01*
X97157000Y-109191200D01*
X98085571Y-109705485D02*
X97085571Y-109705485D01*
X97371285Y-109705485D02*
X97228428Y-109762628D01*
X97157000Y-109819771D01*
X97085571Y-109934057D01*
X97085571Y-110048342D01*
X98085571Y-110619771D02*
X98014142Y-110505485D01*
X97942714Y-110448342D01*
X97799857Y-110391200D01*
X97371285Y-110391200D01*
X97228428Y-110448342D01*
X97157000Y-110505485D01*
X97085571Y-110619771D01*
X97085571Y-110791200D01*
X97157000Y-110905485D01*
X97228428Y-110962628D01*
X97371285Y-111019771D01*
X97799857Y-111019771D01*
X97942714Y-110962628D01*
X98014142Y-110905485D01*
X98085571Y-110791200D01*
X98085571Y-110619771D01*
X98085571Y-112448342D02*
X96585571Y-112448342D01*
X96585571Y-112905485D01*
X96657000Y-113019771D01*
X96728428Y-113076914D01*
X96871285Y-113134057D01*
X97085571Y-113134057D01*
X97228428Y-113076914D01*
X97299857Y-113019771D01*
X97371285Y-112905485D01*
X97371285Y-112448342D01*
X98085571Y-113648342D02*
X97085571Y-113648342D01*
X97371285Y-113648342D02*
X97228428Y-113705485D01*
X97157000Y-113762628D01*
X97085571Y-113876914D01*
X97085571Y-113991200D01*
X98085571Y-114562628D02*
X98014142Y-114448342D01*
X97942714Y-114391200D01*
X97799857Y-114334057D01*
X97371285Y-114334057D01*
X97228428Y-114391200D01*
X97157000Y-114448342D01*
X97085571Y-114562628D01*
X97085571Y-114734057D01*
X97157000Y-114848342D01*
X97228428Y-114905485D01*
X97371285Y-114962628D01*
X97799857Y-114962628D01*
X97942714Y-114905485D01*
X98014142Y-114848342D01*
X98085571Y-114734057D01*
X98085571Y-114562628D01*
X97085571Y-115991200D02*
X98299857Y-115991200D01*
X98442714Y-115934057D01*
X98514142Y-115876914D01*
X98585571Y-115762628D01*
X98585571Y-115591200D01*
X98514142Y-115476914D01*
X98014142Y-115991200D02*
X98085571Y-115876914D01*
X98085571Y-115648342D01*
X98014142Y-115534057D01*
X97942714Y-115476914D01*
X97799857Y-115419771D01*
X97371285Y-115419771D01*
X97228428Y-115476914D01*
X97157000Y-115534057D01*
X97085571Y-115648342D01*
X97085571Y-115876914D01*
X97157000Y-115991200D01*
X100500571Y-99362628D02*
X99786285Y-98962628D01*
X100500571Y-98676914D02*
X99000571Y-98676914D01*
X99000571Y-99134057D01*
X99072000Y-99248342D01*
X99143428Y-99305485D01*
X99286285Y-99362628D01*
X99500571Y-99362628D01*
X99643428Y-99305485D01*
X99714857Y-99248342D01*
X99786285Y-99134057D01*
X99786285Y-98676914D01*
X100429142Y-100334057D02*
X100500571Y-100219771D01*
X100500571Y-99991200D01*
X100429142Y-99876914D01*
X100286285Y-99819771D01*
X99714857Y-99819771D01*
X99572000Y-99876914D01*
X99500571Y-99991200D01*
X99500571Y-100219771D01*
X99572000Y-100334057D01*
X99714857Y-100391200D01*
X99857714Y-100391200D01*
X100000571Y-99819771D01*
X99500571Y-100791200D02*
X100500571Y-101076914D01*
X99500571Y-101362628D01*
X99000571Y-102962628D02*
X99000571Y-103076914D01*
X99072000Y-103191200D01*
X99143428Y-103248342D01*
X99286285Y-103305485D01*
X99572000Y-103362628D01*
X99929142Y-103362628D01*
X100214857Y-103305485D01*
X100357714Y-103248342D01*
X100429142Y-103191200D01*
X100500571Y-103076914D01*
X100500571Y-102962628D01*
X100429142Y-102848342D01*
X100357714Y-102791200D01*
X100214857Y-102734057D01*
X99929142Y-102676914D01*
X99572000Y-102676914D01*
X99286285Y-102734057D01*
X99143428Y-102791200D01*
X99072000Y-102848342D01*
X99000571Y-102962628D01*
X100357714Y-103876914D02*
X100429142Y-103934057D01*
X100500571Y-103876914D01*
X100429142Y-103819771D01*
X100357714Y-103876914D01*
X100500571Y-103876914D01*
X100500571Y-105076914D02*
X100500571Y-104391200D01*
X100500571Y-104734057D02*
X99000571Y-104734057D01*
X99214857Y-104619771D01*
X99357714Y-104505485D01*
X99429142Y-104391200D01*
X100357714Y-105591200D02*
X100429142Y-105648342D01*
X100500571Y-105591200D01*
X100429142Y-105534057D01*
X100357714Y-105591200D01*
X100500571Y-105591200D01*
X99143428Y-106105485D02*
X99072000Y-106162628D01*
X99000571Y-106276914D01*
X99000571Y-106562628D01*
X99072000Y-106676914D01*
X99143428Y-106734057D01*
X99286285Y-106791200D01*
X99429142Y-106791200D01*
X99643428Y-106734057D01*
X100500571Y-106048342D01*
X100500571Y-106791200D01*
X101072000Y-108562628D02*
X101000571Y-108505485D01*
X100786285Y-108391200D01*
X100643428Y-108334057D01*
X100429142Y-108276914D01*
X100072000Y-108219771D01*
X99786285Y-108219771D01*
X99429142Y-108276914D01*
X99214857Y-108334057D01*
X99072000Y-108391200D01*
X98857714Y-108505485D01*
X98786285Y-108562628D01*
X99143428Y-108962628D02*
X99072000Y-109019771D01*
X99000571Y-109134057D01*
X99000571Y-109419771D01*
X99072000Y-109534057D01*
X99143428Y-109591200D01*
X99286285Y-109648342D01*
X99429142Y-109648342D01*
X99643428Y-109591200D01*
X100500571Y-108905485D01*
X100500571Y-109648342D01*
X100500571Y-110791200D02*
X100500571Y-110105485D01*
X100500571Y-110448342D02*
X99000571Y-110448342D01*
X99214857Y-110334057D01*
X99357714Y-110219771D01*
X99429142Y-110105485D01*
X99000571Y-111534057D02*
X99000571Y-111648342D01*
X99072000Y-111762628D01*
X99143428Y-111819771D01*
X99286285Y-111876914D01*
X99572000Y-111934057D01*
X99929142Y-111934057D01*
X100214857Y-111876914D01*
X100357714Y-111819771D01*
X100429142Y-111762628D01*
X100500571Y-111648342D01*
X100500571Y-111534057D01*
X100429142Y-111419771D01*
X100357714Y-111362628D01*
X100214857Y-111305485D01*
X99929142Y-111248342D01*
X99572000Y-111248342D01*
X99286285Y-111305485D01*
X99143428Y-111362628D01*
X99072000Y-111419771D01*
X99000571Y-111534057D01*
X99500571Y-112962628D02*
X100500571Y-112962628D01*
X98929142Y-112676914D02*
X100000571Y-112391200D01*
X100000571Y-113134057D01*
X99143428Y-113534057D02*
X99072000Y-113591200D01*
X99000571Y-113705485D01*
X99000571Y-113991200D01*
X99072000Y-114105485D01*
X99143428Y-114162628D01*
X99286285Y-114219771D01*
X99429142Y-114219771D01*
X99643428Y-114162628D01*
X100500571Y-113476914D01*
X100500571Y-114219771D01*
X99143428Y-114676914D02*
X99072000Y-114734057D01*
X99000571Y-114848342D01*
X99000571Y-115134057D01*
X99072000Y-115248342D01*
X99143428Y-115305485D01*
X99286285Y-115362628D01*
X99429142Y-115362628D01*
X99643428Y-115305485D01*
X100500571Y-114619771D01*
X100500571Y-115362628D01*
X101072000Y-115762628D02*
X101000571Y-115819771D01*
X100786285Y-115934057D01*
X100643428Y-115991200D01*
X100429142Y-116048342D01*
X100072000Y-116105485D01*
X99786285Y-116105485D01*
X99429142Y-116048342D01*
X99214857Y-115991200D01*
X99072000Y-115934057D01*
X98857714Y-115819771D01*
X98786285Y-115762628D01*
M02*
