%TF.GenerationSoftware,KiCad,Pcbnew,(6.0.0)*%
%TF.CreationDate,2022-05-09T00:40:02+05:30*%
%TF.ProjectId,usb-micro-programmer,7573622d-6d69-4637-926f-2d70726f6772,rev?*%
%TF.SameCoordinates,Original*%
%TF.FileFunction,Copper,L2,Bot*%
%TF.FilePolarity,Positive*%
%FSLAX46Y46*%
G04 Gerber Fmt 4.6, Leading zero omitted, Abs format (unit mm)*
G04 Created by KiCad (PCBNEW (6.0.0)) date 2022-05-09 00:40:02*
%MOMM*%
%LPD*%
G01*
G04 APERTURE LIST*
G04 Aperture macros list*
%AMRoundRect*
0 Rectangle with rounded corners*
0 $1 Rounding radius*
0 $2 $3 $4 $5 $6 $7 $8 $9 X,Y pos of 4 corners*
0 Add a 4 corners polygon primitive as box body*
4,1,4,$2,$3,$4,$5,$6,$7,$8,$9,$2,$3,0*
0 Add four circle primitives for the rounded corners*
1,1,$1+$1,$2,$3*
1,1,$1+$1,$4,$5*
1,1,$1+$1,$6,$7*
1,1,$1+$1,$8,$9*
0 Add four rect primitives between the rounded corners*
20,1,$1+$1,$2,$3,$4,$5,0*
20,1,$1+$1,$4,$5,$6,$7,0*
20,1,$1+$1,$6,$7,$8,$9,0*
20,1,$1+$1,$8,$9,$2,$3,0*%
G04 Aperture macros list end*
%TA.AperFunction,ComponentPad*%
%ADD10C,2.000000*%
%TD*%
%TA.AperFunction,ComponentPad*%
%ADD11RoundRect,0.250000X-0.600000X-0.725000X0.600000X-0.725000X0.600000X0.725000X-0.600000X0.725000X0*%
%TD*%
%TA.AperFunction,ComponentPad*%
%ADD12O,1.700000X1.950000*%
%TD*%
%TA.AperFunction,ComponentPad*%
%ADD13C,6.400000*%
%TD*%
%TA.AperFunction,ComponentPad*%
%ADD14O,1.600000X1.300000*%
%TD*%
%TA.AperFunction,ViaPad*%
%ADD15C,0.800000*%
%TD*%
%TA.AperFunction,Conductor*%
%ADD16C,0.508000*%
%TD*%
%TA.AperFunction,Conductor*%
%ADD17C,0.635000*%
%TD*%
%TA.AperFunction,Conductor*%
%ADD18C,0.381000*%
%TD*%
G04 APERTURE END LIST*
D10*
%TO.P,SW_IO0,1,1*%
%TO.N,GND*%
X104250000Y-92250000D03*
X110750000Y-92250000D03*
%TO.P,SW_IO0,2,2*%
%TO.N,/IO0*%
X104250000Y-96750000D03*
X110750000Y-96750000D03*
%TD*%
D11*
%TO.P,J4,1,1*%
%TO.N,/~{DTR}*%
X116500000Y-92950000D03*
D12*
%TO.P,J4,2,2*%
%TO.N,/RXD*%
X119000000Y-92950000D03*
%TO.P,J4,3,3*%
%TO.N,/TXD*%
X121500000Y-92950000D03*
%TO.P,J4,4,4*%
%TO.N,+5V*%
X124000000Y-92950000D03*
%TO.P,J4,5,5*%
%TO.N,/~{CTS}*%
X126500000Y-92950000D03*
%TO.P,J4,6,6*%
%TO.N,GND*%
X129000000Y-92950000D03*
%TD*%
D13*
%TO.P,H3,1,1*%
%TO.N,GND*%
X137250000Y-116250000D03*
%TD*%
%TO.P,H2,1,1*%
%TO.N,GND*%
X84750000Y-116250000D03*
%TD*%
%TO.P,H4,1,1*%
%TO.N,GND*%
X137250000Y-93750000D03*
%TD*%
D11*
%TO.P,J3,1,1*%
%TO.N,+3V3*%
X116500000Y-116450000D03*
D12*
%TO.P,J3,2,2*%
%TO.N,GND*%
X119000000Y-116450000D03*
%TO.P,J3,3,3*%
%TO.N,/RXD*%
X121500000Y-116450000D03*
%TO.P,J3,4,4*%
%TO.N,/TXD*%
X124000000Y-116450000D03*
%TO.P,J3,5,5*%
%TO.N,/IO0*%
X126500000Y-116450000D03*
%TO.P,J3,6,6*%
%TO.N,/EN*%
X129000000Y-116450000D03*
%TD*%
D13*
%TO.P,H1,1,1*%
%TO.N,GND*%
X84750000Y-93750000D03*
%TD*%
D10*
%TO.P,SW_EN,1,1*%
%TO.N,GND*%
X100250000Y-92250000D03*
X93750000Y-92250000D03*
%TO.P,SW_EN,2,2*%
%TO.N,/EN*%
X93750000Y-96750000D03*
X100250000Y-96750000D03*
%TD*%
D14*
%TO.P,J1,6,Shield*%
%TO.N,GND*%
X82499987Y-108174993D03*
X82499987Y-101824993D03*
%TD*%
D15*
%TO.N,GND*%
X124750000Y-109250000D03*
X124750000Y-102500000D03*
X131000000Y-107250000D03*
X118998400Y-95910400D03*
X106250000Y-113750000D03*
X87750000Y-108000000D03*
X127750000Y-109250000D03*
X96000000Y-103500000D03*
X113385600Y-95910400D03*
X96200000Y-113850000D03*
X96000000Y-105500000D03*
X129500000Y-112250000D03*
X100550000Y-115200000D03*
X112250000Y-113750000D03*
X96200000Y-115200000D03*
X100550000Y-113750000D03*
X127750000Y-102500000D03*
%TO.N,+3V3*%
X113250000Y-105750000D03*
X131000000Y-112250000D03*
X118500000Y-101000000D03*
%TO.N,+5V*%
X93500000Y-106000000D03*
X92500000Y-99500000D03*
%TO.N,/EN*%
X108000000Y-115750000D03*
X101750000Y-107500000D03*
%TO.N,/IO0*%
X132000000Y-103500000D03*
%TO.N,/D+*%
X116500000Y-111750000D03*
X91500000Y-108000000D03*
%TO.N,/D-*%
X119250000Y-110250000D03*
X93000000Y-108000000D03*
%TO.N,/RXD*%
X116000000Y-106250000D03*
X131000000Y-106000000D03*
%TO.N,/TXD*%
X132000000Y-104710000D03*
X114750000Y-106000000D03*
%TO.N,/~{CTS}*%
X122000000Y-100750000D03*
%TD*%
D16*
%TO.N,GND*%
X112250000Y-113750000D02*
X106250000Y-113750000D01*
D17*
X118998400Y-95910400D02*
X113385600Y-95910400D01*
D16*
%TO.N,+3V3*%
X113250000Y-105750000D02*
X113750000Y-105750000D01*
X129000000Y-114250000D02*
X118700000Y-114250000D01*
X131000000Y-112250000D02*
X129000000Y-114250000D01*
X118700000Y-114250000D02*
X116500000Y-116450000D01*
X113750000Y-105750000D02*
X118500000Y-101000000D01*
D17*
%TO.N,+5V*%
X124000000Y-94440000D02*
X123461611Y-94978389D01*
X93500000Y-100500000D02*
X93250000Y-100250000D01*
X93500000Y-106000000D02*
X93500000Y-100500000D01*
X93125000Y-100125000D02*
X92500000Y-99500000D01*
X124000000Y-92950000D02*
X124000000Y-94440000D01*
X123461611Y-94978389D02*
X98271611Y-94978389D01*
X98271611Y-94978389D02*
X93125000Y-100125000D01*
X93250000Y-100250000D02*
X93125000Y-100125000D01*
D18*
%TO.N,/EN*%
X110750000Y-118250000D02*
X109250000Y-118250000D01*
X108000000Y-115750000D02*
X108000000Y-117000000D01*
X129000000Y-116450000D02*
X127200000Y-118250000D01*
X101750000Y-98250000D02*
X100250000Y-96750000D01*
X127200000Y-118250000D02*
X110750000Y-118250000D01*
X101750000Y-107500000D02*
X101750000Y-98250000D01*
X108000000Y-117000000D02*
X109250000Y-118250000D01*
%TO.N,/IO0*%
X132000000Y-103500000D02*
X121382755Y-103500000D01*
X119750000Y-101867245D02*
X119750000Y-99750000D01*
X119750000Y-99750000D02*
X116750000Y-96750000D01*
X116750000Y-96750000D02*
X110750000Y-96750000D01*
X121382755Y-103500000D02*
X119750000Y-101867245D01*
%TO.N,/D+*%
X95250000Y-111750000D02*
X116500000Y-111750000D01*
X91500000Y-108000000D02*
X95250000Y-111750000D01*
%TO.N,/D-*%
X118750000Y-110750000D02*
X119250000Y-110250000D01*
X95750000Y-110750000D02*
X115500000Y-110750000D01*
X93000000Y-108000000D02*
X95750000Y-110750000D01*
X115500000Y-110750000D02*
X118750000Y-110750000D01*
%TO.N,/RXD*%
X130750000Y-106250000D02*
X131000000Y-106000000D01*
X116000000Y-106250000D02*
X130750000Y-106250000D01*
%TO.N,/TXD*%
X131500000Y-105000000D02*
X131710000Y-105000000D01*
X114750000Y-106000000D02*
X115750000Y-105000000D01*
X115750000Y-105000000D02*
X131500000Y-105000000D01*
X131710000Y-105000000D02*
X132000000Y-104710000D01*
%TO.N,/~{CTS}*%
X126500000Y-96250000D02*
X122000000Y-100750000D01*
X126500000Y-92950000D02*
X126500000Y-96250000D01*
%TD*%
%TA.AperFunction,Conductor*%
%TO.N,GND*%
G36*
X82576815Y-90528002D02*
G01*
X82623308Y-90581658D01*
X82633412Y-90651932D01*
X82603918Y-90716512D01*
X82577317Y-90739674D01*
X82570260Y-90744257D01*
X82564939Y-90748123D01*
X82326165Y-90941478D01*
X82317700Y-90953733D01*
X82324034Y-90964824D01*
X84737188Y-93377978D01*
X84751132Y-93385592D01*
X84752965Y-93385461D01*
X84759580Y-93381210D01*
X87175100Y-90965690D01*
X87182241Y-90952614D01*
X87174784Y-90942247D01*
X86935065Y-90748126D01*
X86929728Y-90744248D01*
X86922681Y-90739672D01*
X86876444Y-90685795D01*
X86866675Y-90615474D01*
X86896476Y-90551034D01*
X86956385Y-90512936D01*
X86991306Y-90508000D01*
X93481625Y-90508000D01*
X93549746Y-90528002D01*
X93596239Y-90581658D01*
X93606343Y-90651932D01*
X93576849Y-90716512D01*
X93511039Y-90756519D01*
X93287373Y-90810217D01*
X93277988Y-90813266D01*
X93067837Y-90900313D01*
X93059042Y-90904795D01*
X92891555Y-91007432D01*
X92882093Y-91017890D01*
X92885876Y-91026666D01*
X93737188Y-91877978D01*
X93751132Y-91885592D01*
X93752965Y-91885461D01*
X93759580Y-91881210D01*
X94611080Y-91029710D01*
X94617840Y-91017330D01*
X94612113Y-91009680D01*
X94440958Y-90904795D01*
X94432163Y-90900313D01*
X94222012Y-90813266D01*
X94212627Y-90810217D01*
X93988961Y-90756519D01*
X93927392Y-90721167D01*
X93894709Y-90658140D01*
X93901290Y-90587449D01*
X93945044Y-90531538D01*
X94018375Y-90508000D01*
X99981625Y-90508000D01*
X100049746Y-90528002D01*
X100096239Y-90581658D01*
X100106343Y-90651932D01*
X100076849Y-90716512D01*
X100011039Y-90756519D01*
X99787373Y-90810217D01*
X99777988Y-90813266D01*
X99567837Y-90900313D01*
X99559042Y-90904795D01*
X99391555Y-91007432D01*
X99382093Y-91017890D01*
X99385876Y-91026666D01*
X100237188Y-91877978D01*
X100251132Y-91885592D01*
X100252965Y-91885461D01*
X100259580Y-91881210D01*
X101111080Y-91029710D01*
X101117840Y-91017330D01*
X101112113Y-91009680D01*
X100940958Y-90904795D01*
X100932163Y-90900313D01*
X100722012Y-90813266D01*
X100712627Y-90810217D01*
X100488961Y-90756519D01*
X100427392Y-90721167D01*
X100394709Y-90658140D01*
X100401290Y-90587449D01*
X100445044Y-90531538D01*
X100518375Y-90508000D01*
X103981625Y-90508000D01*
X104049746Y-90528002D01*
X104096239Y-90581658D01*
X104106343Y-90651932D01*
X104076849Y-90716512D01*
X104011039Y-90756519D01*
X103787373Y-90810217D01*
X103777988Y-90813266D01*
X103567837Y-90900313D01*
X103559042Y-90904795D01*
X103391555Y-91007432D01*
X103382093Y-91017890D01*
X103385876Y-91026666D01*
X104237188Y-91877978D01*
X104251132Y-91885592D01*
X104252965Y-91885461D01*
X104259580Y-91881210D01*
X105111080Y-91029710D01*
X105117840Y-91017330D01*
X105112113Y-91009680D01*
X104940958Y-90904795D01*
X104932163Y-90900313D01*
X104722012Y-90813266D01*
X104712627Y-90810217D01*
X104488961Y-90756519D01*
X104427392Y-90721167D01*
X104394709Y-90658140D01*
X104401290Y-90587449D01*
X104445044Y-90531538D01*
X104518375Y-90508000D01*
X110481625Y-90508000D01*
X110549746Y-90528002D01*
X110596239Y-90581658D01*
X110606343Y-90651932D01*
X110576849Y-90716512D01*
X110511039Y-90756519D01*
X110287373Y-90810217D01*
X110277988Y-90813266D01*
X110067837Y-90900313D01*
X110059042Y-90904795D01*
X109891555Y-91007432D01*
X109882093Y-91017890D01*
X109885876Y-91026666D01*
X110737188Y-91877978D01*
X110751132Y-91885592D01*
X110752965Y-91885461D01*
X110759580Y-91881210D01*
X111611080Y-91029710D01*
X111617840Y-91017330D01*
X111612113Y-91009680D01*
X111440958Y-90904795D01*
X111432163Y-90900313D01*
X111222012Y-90813266D01*
X111212627Y-90810217D01*
X110988961Y-90756519D01*
X110927392Y-90721167D01*
X110894709Y-90658140D01*
X110901290Y-90587449D01*
X110945044Y-90531538D01*
X111018375Y-90508000D01*
X135008694Y-90508000D01*
X135076815Y-90528002D01*
X135123308Y-90581658D01*
X135133412Y-90651932D01*
X135103918Y-90716512D01*
X135077317Y-90739674D01*
X135070260Y-90744257D01*
X135064939Y-90748123D01*
X134826165Y-90941478D01*
X134817700Y-90953733D01*
X134824034Y-90964824D01*
X137237188Y-93377978D01*
X137251132Y-93385592D01*
X137252965Y-93385461D01*
X137259580Y-93381210D01*
X139675100Y-90965690D01*
X139682241Y-90952614D01*
X139674784Y-90942247D01*
X139435065Y-90748126D01*
X139429728Y-90744248D01*
X139422681Y-90739672D01*
X139376444Y-90685795D01*
X139366675Y-90615474D01*
X139396476Y-90551034D01*
X139456385Y-90512936D01*
X139491306Y-90508000D01*
X140200672Y-90508000D01*
X140220057Y-90509500D01*
X140234859Y-90511805D01*
X140234861Y-90511805D01*
X140243730Y-90513186D01*
X140252631Y-90512022D01*
X140261606Y-90512132D01*
X140261596Y-90512949D01*
X140283087Y-90513241D01*
X140305068Y-90516722D01*
X140342563Y-90528904D01*
X140374465Y-90545159D01*
X140406357Y-90568331D01*
X140431669Y-90593643D01*
X140454841Y-90625535D01*
X140471096Y-90657437D01*
X140483278Y-90694930D01*
X140486624Y-90716057D01*
X140488054Y-90735766D01*
X140486814Y-90743730D01*
X140488638Y-90757678D01*
X140490936Y-90775251D01*
X140492000Y-90791589D01*
X140492000Y-91508694D01*
X140471998Y-91576815D01*
X140418342Y-91623308D01*
X140348068Y-91633412D01*
X140283488Y-91603918D01*
X140260326Y-91577317D01*
X140255743Y-91570260D01*
X140251877Y-91564939D01*
X140058522Y-91326165D01*
X140046267Y-91317700D01*
X140035176Y-91324034D01*
X137622022Y-93737188D01*
X137614408Y-93751132D01*
X137614539Y-93752965D01*
X137618790Y-93759580D01*
X140034310Y-96175100D01*
X140047386Y-96182241D01*
X140057753Y-96174784D01*
X140251877Y-95935061D01*
X140255743Y-95929740D01*
X140260326Y-95922683D01*
X140314202Y-95876445D01*
X140384523Y-95866675D01*
X140448963Y-95896474D01*
X140487063Y-95956382D01*
X140492000Y-95991306D01*
X140492000Y-114008694D01*
X140471998Y-114076815D01*
X140418342Y-114123308D01*
X140348068Y-114133412D01*
X140283488Y-114103918D01*
X140260326Y-114077317D01*
X140255743Y-114070260D01*
X140251877Y-114064939D01*
X140058522Y-113826165D01*
X140046267Y-113817700D01*
X140035176Y-113824034D01*
X137622022Y-116237188D01*
X137614408Y-116251132D01*
X137614539Y-116252965D01*
X137618790Y-116259580D01*
X140034310Y-118675100D01*
X140047386Y-118682241D01*
X140057753Y-118674784D01*
X140251877Y-118435061D01*
X140255743Y-118429740D01*
X140260326Y-118422683D01*
X140314202Y-118376445D01*
X140384523Y-118366675D01*
X140448963Y-118396474D01*
X140487063Y-118456382D01*
X140492000Y-118491306D01*
X140492000Y-119200672D01*
X140490500Y-119220056D01*
X140486814Y-119243730D01*
X140487978Y-119252631D01*
X140487868Y-119261606D01*
X140487051Y-119261596D01*
X140486759Y-119283087D01*
X140483278Y-119305068D01*
X140471096Y-119342563D01*
X140454841Y-119374465D01*
X140431669Y-119406357D01*
X140406357Y-119431669D01*
X140374465Y-119454841D01*
X140342563Y-119471096D01*
X140305070Y-119483278D01*
X140283943Y-119486624D01*
X140264234Y-119488054D01*
X140256270Y-119486814D01*
X140224749Y-119490936D01*
X140208411Y-119492000D01*
X139491306Y-119492000D01*
X139423185Y-119471998D01*
X139376692Y-119418342D01*
X139366588Y-119348068D01*
X139396082Y-119283488D01*
X139422681Y-119260328D01*
X139429728Y-119255752D01*
X139435065Y-119251874D01*
X139673835Y-119058522D01*
X139682300Y-119046267D01*
X139675966Y-119035176D01*
X137262812Y-116622022D01*
X137248868Y-116614408D01*
X137247035Y-116614539D01*
X137240420Y-116618790D01*
X134824900Y-119034310D01*
X134817759Y-119047386D01*
X134825216Y-119057753D01*
X135064935Y-119251874D01*
X135070272Y-119255752D01*
X135077319Y-119260328D01*
X135123556Y-119314205D01*
X135133325Y-119384526D01*
X135103524Y-119448966D01*
X135043615Y-119487064D01*
X135008694Y-119492000D01*
X86991306Y-119492000D01*
X86923185Y-119471998D01*
X86876692Y-119418342D01*
X86866588Y-119348068D01*
X86896082Y-119283488D01*
X86922681Y-119260328D01*
X86929728Y-119255752D01*
X86935065Y-119251874D01*
X87173835Y-119058522D01*
X87182300Y-119046267D01*
X87175966Y-119035176D01*
X84762812Y-116622022D01*
X84748868Y-116614408D01*
X84747035Y-116614539D01*
X84740420Y-116618790D01*
X82324900Y-119034310D01*
X82317759Y-119047386D01*
X82325216Y-119057753D01*
X82564935Y-119251874D01*
X82570272Y-119255752D01*
X82577319Y-119260328D01*
X82623556Y-119314205D01*
X82633325Y-119384526D01*
X82603524Y-119448966D01*
X82543615Y-119487064D01*
X82508694Y-119492000D01*
X81799328Y-119492000D01*
X81779943Y-119490500D01*
X81765141Y-119488195D01*
X81765139Y-119488195D01*
X81756270Y-119486814D01*
X81747369Y-119487978D01*
X81738394Y-119487868D01*
X81738404Y-119487051D01*
X81716913Y-119486759D01*
X81694932Y-119483278D01*
X81657437Y-119471096D01*
X81625535Y-119454841D01*
X81593643Y-119431669D01*
X81568331Y-119406357D01*
X81545159Y-119374465D01*
X81528904Y-119342563D01*
X81516722Y-119305068D01*
X81514157Y-119288871D01*
X81513266Y-119262541D01*
X81513071Y-119262539D01*
X81513123Y-119258314D01*
X81513123Y-119258305D01*
X81513224Y-119250000D01*
X81509273Y-119222412D01*
X81508000Y-119204549D01*
X81508000Y-118491306D01*
X81528002Y-118423185D01*
X81581658Y-118376692D01*
X81651932Y-118366588D01*
X81716512Y-118396082D01*
X81739674Y-118422683D01*
X81744257Y-118429740D01*
X81748123Y-118435061D01*
X81941478Y-118673835D01*
X81953733Y-118682300D01*
X81964824Y-118675966D01*
X84377978Y-116262812D01*
X84384356Y-116251132D01*
X85114408Y-116251132D01*
X85114539Y-116252965D01*
X85118790Y-116259580D01*
X87534310Y-118675100D01*
X87547386Y-118682241D01*
X87557753Y-118674784D01*
X87751877Y-118435061D01*
X87755747Y-118429735D01*
X87963831Y-118109313D01*
X87967128Y-118103603D01*
X88140578Y-117763189D01*
X88143260Y-117757164D01*
X88280171Y-117400498D01*
X88282212Y-117394216D01*
X88381094Y-117025184D01*
X88382465Y-117018734D01*
X88442234Y-116641371D01*
X88442920Y-116634833D01*
X88462916Y-116253301D01*
X88462916Y-116246699D01*
X88442920Y-115865167D01*
X88442234Y-115858629D01*
X88425029Y-115750000D01*
X107086496Y-115750000D01*
X107087186Y-115756565D01*
X107100287Y-115881210D01*
X107106458Y-115939928D01*
X107165473Y-116121556D01*
X107260960Y-116286944D01*
X107268637Y-116295470D01*
X107299353Y-116359476D01*
X107301000Y-116379779D01*
X107301000Y-116971401D01*
X107300708Y-116979971D01*
X107296830Y-117036852D01*
X107298135Y-117044328D01*
X107298135Y-117044332D01*
X107307663Y-117098924D01*
X107308626Y-117105449D01*
X107314203Y-117151529D01*
X107316191Y-117167960D01*
X107318875Y-117175062D01*
X107319719Y-117178500D01*
X107323583Y-117192623D01*
X107324613Y-117196034D01*
X107325919Y-117203517D01*
X107328972Y-117210472D01*
X107351239Y-117261198D01*
X107353730Y-117267304D01*
X107372038Y-117315752D01*
X107375994Y-117326222D01*
X107380293Y-117332477D01*
X107381935Y-117335618D01*
X107389033Y-117348372D01*
X107390870Y-117351478D01*
X107393923Y-117358433D01*
X107398548Y-117364460D01*
X107398550Y-117364464D01*
X107432265Y-117408402D01*
X107436129Y-117413720D01*
X107471821Y-117465652D01*
X107477491Y-117470704D01*
X107477492Y-117470705D01*
X107517688Y-117506518D01*
X107522964Y-117511499D01*
X108735503Y-118724038D01*
X108741356Y-118730303D01*
X108778842Y-118773274D01*
X108830378Y-118809494D01*
X108835674Y-118813427D01*
X108879263Y-118847606D01*
X108879266Y-118847608D01*
X108885240Y-118852292D01*
X108892164Y-118855418D01*
X108895199Y-118857256D01*
X108907898Y-118864500D01*
X108911046Y-118866188D01*
X108917261Y-118870556D01*
X108975950Y-118893438D01*
X108981995Y-118895978D01*
X109039435Y-118921913D01*
X109046908Y-118923298D01*
X109050326Y-118924369D01*
X109064315Y-118928354D01*
X109067807Y-118929251D01*
X109074889Y-118932012D01*
X109082422Y-118933004D01*
X109082423Y-118933004D01*
X109137330Y-118940233D01*
X109143843Y-118941265D01*
X109198318Y-118951361D01*
X109198320Y-118951361D01*
X109205787Y-118952745D01*
X109213367Y-118952308D01*
X109213368Y-118952308D01*
X109267112Y-118949209D01*
X109274365Y-118949000D01*
X127171401Y-118949000D01*
X127179971Y-118949292D01*
X127229277Y-118952654D01*
X127229281Y-118952654D01*
X127236852Y-118953170D01*
X127244328Y-118951865D01*
X127244332Y-118951865D01*
X127298924Y-118942337D01*
X127305449Y-118941374D01*
X127360418Y-118934722D01*
X127360420Y-118934721D01*
X127367960Y-118933809D01*
X127375062Y-118931125D01*
X127378500Y-118930281D01*
X127392623Y-118926417D01*
X127396034Y-118925387D01*
X127403517Y-118924081D01*
X127461197Y-118898761D01*
X127467304Y-118896270D01*
X127519117Y-118876691D01*
X127519118Y-118876690D01*
X127526222Y-118874006D01*
X127532477Y-118869707D01*
X127535618Y-118868065D01*
X127548372Y-118860967D01*
X127551478Y-118859130D01*
X127558433Y-118856077D01*
X127564460Y-118851452D01*
X127564464Y-118851450D01*
X127608402Y-118817735D01*
X127613720Y-118813871D01*
X127665652Y-118778179D01*
X127706519Y-118732311D01*
X127711499Y-118727036D01*
X128519664Y-117918871D01*
X128581976Y-117884845D01*
X128646121Y-117887633D01*
X128707227Y-117906607D01*
X128812208Y-117920521D01*
X128930489Y-117936198D01*
X128930494Y-117936198D01*
X128935774Y-117936898D01*
X128941103Y-117936698D01*
X128941105Y-117936698D01*
X129050966Y-117932573D01*
X129166158Y-117928249D01*
X129391791Y-117880907D01*
X129396750Y-117878949D01*
X129396752Y-117878948D01*
X129601256Y-117798185D01*
X129601258Y-117798184D01*
X129606221Y-117796224D01*
X129803317Y-117676623D01*
X129807347Y-117673126D01*
X129973412Y-117529023D01*
X129973414Y-117529021D01*
X129977445Y-117525523D01*
X130034391Y-117456073D01*
X130120240Y-117351373D01*
X130120244Y-117351367D01*
X130123624Y-117347245D01*
X130126424Y-117342327D01*
X130235032Y-117151529D01*
X130237675Y-117146886D01*
X130316337Y-116930175D01*
X130339023Y-116804720D01*
X130356623Y-116707392D01*
X130356624Y-116707385D01*
X130357361Y-116703308D01*
X130358500Y-116679156D01*
X130358500Y-116267110D01*
X130357328Y-116253301D01*
X133537084Y-116253301D01*
X133557080Y-116634833D01*
X133557766Y-116641371D01*
X133617535Y-117018734D01*
X133618906Y-117025184D01*
X133717788Y-117394216D01*
X133719829Y-117400498D01*
X133856740Y-117757164D01*
X133859422Y-117763189D01*
X134032872Y-118103603D01*
X134036169Y-118109313D01*
X134244253Y-118429735D01*
X134248123Y-118435061D01*
X134441478Y-118673835D01*
X134453733Y-118682300D01*
X134464824Y-118675966D01*
X136877978Y-116262812D01*
X136885592Y-116248868D01*
X136885461Y-116247035D01*
X136881210Y-116240420D01*
X134465690Y-113824900D01*
X134452614Y-113817759D01*
X134442247Y-113825216D01*
X134248123Y-114064939D01*
X134244253Y-114070265D01*
X134036169Y-114390687D01*
X134032872Y-114396397D01*
X133859422Y-114736811D01*
X133856740Y-114742836D01*
X133719829Y-115099502D01*
X133717788Y-115105784D01*
X133618906Y-115474816D01*
X133617535Y-115481266D01*
X133557766Y-115858629D01*
X133557080Y-115865167D01*
X133537084Y-116246699D01*
X133537084Y-116253301D01*
X130357328Y-116253301D01*
X130346150Y-116121556D01*
X130344371Y-116100591D01*
X130344370Y-116100587D01*
X130343920Y-116095280D01*
X130342582Y-116090125D01*
X130342581Y-116090119D01*
X130287343Y-115877297D01*
X130287342Y-115877293D01*
X130286001Y-115872128D01*
X130282866Y-115865167D01*
X130193507Y-115666798D01*
X130191312Y-115661925D01*
X130062559Y-115470681D01*
X130003918Y-115409209D01*
X129970785Y-115374477D01*
X129903424Y-115303865D01*
X129718458Y-115166246D01*
X129713707Y-115163830D01*
X129713703Y-115163828D01*
X129517696Y-115064173D01*
X129517691Y-115064171D01*
X129512949Y-115061760D01*
X129511926Y-115061442D01*
X129457335Y-115018074D01*
X129434447Y-114950868D01*
X129451526Y-114881956D01*
X129476923Y-114851055D01*
X129480005Y-114848333D01*
X129480031Y-114848362D01*
X129482962Y-114845762D01*
X129486316Y-114842958D01*
X129492435Y-114838946D01*
X129545989Y-114782413D01*
X129548366Y-114779972D01*
X130874605Y-113453733D01*
X134817700Y-113453733D01*
X134824034Y-113464824D01*
X137237188Y-115877978D01*
X137251132Y-115885592D01*
X137252965Y-115885461D01*
X137259580Y-115881210D01*
X139675100Y-113465690D01*
X139682241Y-113452614D01*
X139674784Y-113442247D01*
X139435065Y-113248126D01*
X139429728Y-113244249D01*
X139109315Y-113036170D01*
X139103606Y-113032873D01*
X138763189Y-112859422D01*
X138757164Y-112856740D01*
X138400498Y-112719829D01*
X138394216Y-112717788D01*
X138025184Y-112618906D01*
X138018734Y-112617535D01*
X137641371Y-112557766D01*
X137634833Y-112557080D01*
X137253301Y-112537084D01*
X137246699Y-112537084D01*
X136865167Y-112557080D01*
X136858629Y-112557766D01*
X136481266Y-112617535D01*
X136474816Y-112618906D01*
X136105784Y-112717788D01*
X136099502Y-112719829D01*
X135742836Y-112856740D01*
X135736811Y-112859422D01*
X135396397Y-113032872D01*
X135390687Y-113036169D01*
X135070265Y-113244253D01*
X135064939Y-113248123D01*
X134826165Y-113441478D01*
X134817700Y-113453733D01*
X130874605Y-113453733D01*
X131163515Y-113164823D01*
X131226412Y-113130672D01*
X131275824Y-113120169D01*
X131275833Y-113120166D01*
X131282288Y-113118794D01*
X131288319Y-113116109D01*
X131450722Y-113043803D01*
X131450724Y-113043802D01*
X131456752Y-113041118D01*
X131463563Y-113036170D01*
X131512157Y-113000864D01*
X131611253Y-112928866D01*
X131673781Y-112859422D01*
X131734621Y-112791852D01*
X131734622Y-112791851D01*
X131739040Y-112786944D01*
X131813197Y-112658500D01*
X131831223Y-112627279D01*
X131831224Y-112627278D01*
X131834527Y-112621556D01*
X131893542Y-112439928D01*
X131894759Y-112428354D01*
X131912814Y-112256565D01*
X131913504Y-112250000D01*
X131899344Y-112115271D01*
X131894232Y-112066635D01*
X131894232Y-112066633D01*
X131893542Y-112060072D01*
X131834527Y-111878444D01*
X131739040Y-111713056D01*
X131611253Y-111571134D01*
X131456752Y-111458882D01*
X131450724Y-111456198D01*
X131450722Y-111456197D01*
X131288319Y-111383891D01*
X131288318Y-111383891D01*
X131282288Y-111381206D01*
X131187072Y-111360967D01*
X131101944Y-111342872D01*
X131101939Y-111342872D01*
X131095487Y-111341500D01*
X130904513Y-111341500D01*
X130898061Y-111342872D01*
X130898056Y-111342872D01*
X130812928Y-111360967D01*
X130717712Y-111381206D01*
X130711682Y-111383891D01*
X130711681Y-111383891D01*
X130549278Y-111456197D01*
X130549276Y-111456198D01*
X130543248Y-111458882D01*
X130388747Y-111571134D01*
X130260960Y-111713056D01*
X130165473Y-111878444D01*
X130143456Y-111946206D01*
X130113335Y-112038907D01*
X130082597Y-112089066D01*
X128721067Y-113450595D01*
X128658755Y-113484621D01*
X128631972Y-113487500D01*
X118767376Y-113487500D01*
X118748426Y-113486067D01*
X118734027Y-113483876D01*
X118734021Y-113483876D01*
X118726792Y-113482776D01*
X118719500Y-113483369D01*
X118719497Y-113483369D01*
X118673817Y-113487085D01*
X118663602Y-113487500D01*
X118655475Y-113487500D01*
X118651839Y-113487924D01*
X118651837Y-113487924D01*
X118648385Y-113488327D01*
X118627076Y-113490811D01*
X118622756Y-113491238D01*
X118549574Y-113497191D01*
X118542612Y-113499447D01*
X118536624Y-113500643D01*
X118530667Y-113502051D01*
X118523393Y-113502899D01*
X118516511Y-113505397D01*
X118516507Y-113505398D01*
X118454393Y-113527945D01*
X118450289Y-113529355D01*
X118380425Y-113551987D01*
X118374162Y-113555787D01*
X118368620Y-113558325D01*
X118363144Y-113561067D01*
X118356259Y-113563566D01*
X118350135Y-113567581D01*
X118294868Y-113603815D01*
X118291200Y-113606130D01*
X118228419Y-113644227D01*
X118224214Y-113647941D01*
X118224211Y-113647943D01*
X118219995Y-113651667D01*
X118219969Y-113651638D01*
X118217038Y-113654238D01*
X118213684Y-113657042D01*
X118207565Y-113661054D01*
X118202533Y-113666366D01*
X118154012Y-113717586D01*
X118151634Y-113720028D01*
X116942067Y-114929595D01*
X116879755Y-114963621D01*
X116852972Y-114966500D01*
X115849600Y-114966500D01*
X115846354Y-114966837D01*
X115846350Y-114966837D01*
X115750692Y-114976762D01*
X115750688Y-114976763D01*
X115743834Y-114977474D01*
X115737298Y-114979655D01*
X115737296Y-114979655D01*
X115629979Y-115015459D01*
X115576054Y-115033450D01*
X115425652Y-115126522D01*
X115300695Y-115251697D01*
X115296855Y-115257927D01*
X115296854Y-115257928D01*
X115218693Y-115384729D01*
X115207885Y-115402262D01*
X115205581Y-115409209D01*
X115156432Y-115557390D01*
X115152203Y-115570139D01*
X115151503Y-115576975D01*
X115151502Y-115576978D01*
X115149934Y-115592284D01*
X115141500Y-115674600D01*
X115141500Y-117225400D01*
X115141837Y-117228646D01*
X115141837Y-117228650D01*
X115151224Y-117319117D01*
X115152474Y-117331166D01*
X115154657Y-117337708D01*
X115154657Y-117337710D01*
X115170475Y-117385123D01*
X115173060Y-117456073D01*
X115136877Y-117517157D01*
X115073413Y-117548982D01*
X115050952Y-117551000D01*
X109591725Y-117551000D01*
X109523604Y-117530998D01*
X109502630Y-117514095D01*
X108735905Y-116747370D01*
X108701879Y-116685058D01*
X108699000Y-116658275D01*
X108699000Y-116379779D01*
X108719002Y-116311658D01*
X108731359Y-116295475D01*
X108739040Y-116286944D01*
X108834527Y-116121556D01*
X108893542Y-115939928D01*
X108899714Y-115881210D01*
X108912814Y-115756565D01*
X108913504Y-115750000D01*
X108899991Y-115621434D01*
X108894232Y-115566635D01*
X108894232Y-115566633D01*
X108893542Y-115560072D01*
X108834527Y-115378444D01*
X108739040Y-115213056D01*
X108665791Y-115131704D01*
X108615675Y-115076045D01*
X108615674Y-115076044D01*
X108611253Y-115071134D01*
X108490095Y-114983107D01*
X108462094Y-114962763D01*
X108462093Y-114962762D01*
X108456752Y-114958882D01*
X108450724Y-114956198D01*
X108450722Y-114956197D01*
X108288319Y-114883891D01*
X108288318Y-114883891D01*
X108282288Y-114881206D01*
X108188888Y-114861353D01*
X108101944Y-114842872D01*
X108101939Y-114842872D01*
X108095487Y-114841500D01*
X107904513Y-114841500D01*
X107898061Y-114842872D01*
X107898056Y-114842872D01*
X107811112Y-114861353D01*
X107717712Y-114881206D01*
X107711682Y-114883891D01*
X107711681Y-114883891D01*
X107549278Y-114956197D01*
X107549276Y-114956198D01*
X107543248Y-114958882D01*
X107537907Y-114962762D01*
X107537906Y-114962763D01*
X107509905Y-114983107D01*
X107388747Y-115071134D01*
X107384326Y-115076044D01*
X107384325Y-115076045D01*
X107334210Y-115131704D01*
X107260960Y-115213056D01*
X107165473Y-115378444D01*
X107106458Y-115560072D01*
X107105768Y-115566633D01*
X107105768Y-115566635D01*
X107100009Y-115621434D01*
X107086496Y-115750000D01*
X88425029Y-115750000D01*
X88382465Y-115481266D01*
X88381094Y-115474816D01*
X88282212Y-115105784D01*
X88280171Y-115099502D01*
X88143260Y-114742836D01*
X88140578Y-114736811D01*
X87967128Y-114396397D01*
X87963831Y-114390687D01*
X87755747Y-114070265D01*
X87751877Y-114064939D01*
X87558522Y-113826165D01*
X87546267Y-113817700D01*
X87535176Y-113824034D01*
X85122022Y-116237188D01*
X85114408Y-116251132D01*
X84384356Y-116251132D01*
X84385592Y-116248868D01*
X84385461Y-116247035D01*
X84381210Y-116240420D01*
X81965690Y-113824900D01*
X81952614Y-113817759D01*
X81942247Y-113825216D01*
X81748123Y-114064939D01*
X81744257Y-114070260D01*
X81739674Y-114077317D01*
X81685798Y-114123555D01*
X81615477Y-114133325D01*
X81551037Y-114103526D01*
X81512937Y-114043618D01*
X81508000Y-114008694D01*
X81508000Y-113453733D01*
X82317700Y-113453733D01*
X82324034Y-113464824D01*
X84737188Y-115877978D01*
X84751132Y-115885592D01*
X84752965Y-115885461D01*
X84759580Y-115881210D01*
X87175100Y-113465690D01*
X87182241Y-113452614D01*
X87174784Y-113442247D01*
X86935065Y-113248126D01*
X86929728Y-113244249D01*
X86609315Y-113036170D01*
X86603606Y-113032873D01*
X86263189Y-112859422D01*
X86257164Y-112856740D01*
X85900498Y-112719829D01*
X85894216Y-112717788D01*
X85525184Y-112618906D01*
X85518734Y-112617535D01*
X85141371Y-112557766D01*
X85134833Y-112557080D01*
X84753301Y-112537084D01*
X84746699Y-112537084D01*
X84365167Y-112557080D01*
X84358629Y-112557766D01*
X83981266Y-112617535D01*
X83974816Y-112618906D01*
X83605784Y-112717788D01*
X83599502Y-112719829D01*
X83242836Y-112856740D01*
X83236811Y-112859422D01*
X82896397Y-113032872D01*
X82890687Y-113036169D01*
X82570265Y-113244253D01*
X82564939Y-113248123D01*
X82326165Y-113441478D01*
X82317700Y-113453733D01*
X81508000Y-113453733D01*
X81508000Y-109245668D01*
X81528002Y-109177547D01*
X81581658Y-109131054D01*
X81651932Y-109120950D01*
X81706678Y-109144432D01*
X81707211Y-109143611D01*
X81711972Y-109146703D01*
X81712005Y-109146717D01*
X81712057Y-109146758D01*
X81721707Y-109153025D01*
X81899823Y-109246736D01*
X81910466Y-109251145D01*
X82102671Y-109310826D01*
X82113933Y-109313220D01*
X82227999Y-109326720D01*
X82242418Y-109324278D01*
X82245987Y-109311536D01*
X82245987Y-109310283D01*
X82753987Y-109310283D01*
X82758258Y-109324828D01*
X82770392Y-109326891D01*
X82856163Y-109319009D01*
X82867485Y-109316910D01*
X83061190Y-109262280D01*
X83071937Y-109258156D01*
X83252453Y-109169134D01*
X83262260Y-109163124D01*
X83423536Y-109042694D01*
X83432076Y-109035004D01*
X83568707Y-108887199D01*
X83575708Y-108878074D01*
X83683112Y-108707849D01*
X83688333Y-108697602D01*
X83762915Y-108510661D01*
X83766184Y-108499624D01*
X83776699Y-108446763D01*
X83775547Y-108433887D01*
X83760391Y-108428993D01*
X82772102Y-108428993D01*
X82756863Y-108433468D01*
X82755658Y-108434858D01*
X82753987Y-108442541D01*
X82753987Y-109310283D01*
X82245987Y-109310283D01*
X82245987Y-108000000D01*
X90586496Y-108000000D01*
X90606458Y-108189928D01*
X90665473Y-108371556D01*
X90668776Y-108377278D01*
X90668777Y-108377279D01*
X90702686Y-108436010D01*
X90760960Y-108536944D01*
X90888747Y-108678866D01*
X91043248Y-108791118D01*
X91049276Y-108793802D01*
X91049278Y-108793803D01*
X91211681Y-108866109D01*
X91217712Y-108868794D01*
X91387631Y-108904912D01*
X91450528Y-108939063D01*
X94735503Y-112224038D01*
X94741356Y-112230303D01*
X94778842Y-112273274D01*
X94805276Y-112291852D01*
X94830378Y-112309494D01*
X94835674Y-112313427D01*
X94879263Y-112347606D01*
X94879266Y-112347608D01*
X94885240Y-112352292D01*
X94892164Y-112355418D01*
X94895199Y-112357256D01*
X94907898Y-112364500D01*
X94911046Y-112366188D01*
X94917261Y-112370556D01*
X94975950Y-112393438D01*
X94981995Y-112395978D01*
X95039435Y-112421913D01*
X95046908Y-112423298D01*
X95050326Y-112424369D01*
X95064315Y-112428354D01*
X95067807Y-112429251D01*
X95074889Y-112432012D01*
X95082422Y-112433004D01*
X95082423Y-112433004D01*
X95137330Y-112440233D01*
X95143843Y-112441265D01*
X95198318Y-112451361D01*
X95198320Y-112451361D01*
X95205787Y-112452745D01*
X95213367Y-112452308D01*
X95213368Y-112452308D01*
X95267112Y-112449209D01*
X95274365Y-112449000D01*
X115875519Y-112449000D01*
X115943640Y-112469002D01*
X115949580Y-112473064D01*
X116037696Y-112537084D01*
X116043248Y-112541118D01*
X116049276Y-112543802D01*
X116049278Y-112543803D01*
X116079099Y-112557080D01*
X116217712Y-112618794D01*
X116311113Y-112638647D01*
X116398056Y-112657128D01*
X116398061Y-112657128D01*
X116404513Y-112658500D01*
X116595487Y-112658500D01*
X116601939Y-112657128D01*
X116601944Y-112657128D01*
X116688888Y-112638647D01*
X116782288Y-112618794D01*
X116920901Y-112557080D01*
X116950722Y-112543803D01*
X116950724Y-112543802D01*
X116956752Y-112541118D01*
X116962305Y-112537084D01*
X117056011Y-112469002D01*
X117111253Y-112428866D01*
X117140856Y-112395989D01*
X117234621Y-112291852D01*
X117234622Y-112291851D01*
X117239040Y-112286944D01*
X117334527Y-112121556D01*
X117393542Y-111939928D01*
X117413504Y-111750000D01*
X117396495Y-111588170D01*
X117409267Y-111518332D01*
X117457769Y-111466485D01*
X117521805Y-111449000D01*
X118721401Y-111449000D01*
X118729971Y-111449292D01*
X118779277Y-111452654D01*
X118779281Y-111452654D01*
X118786852Y-111453170D01*
X118794328Y-111451865D01*
X118794332Y-111451865D01*
X118848924Y-111442337D01*
X118855449Y-111441374D01*
X118910418Y-111434722D01*
X118910420Y-111434721D01*
X118917960Y-111433809D01*
X118925062Y-111431125D01*
X118928500Y-111430281D01*
X118942623Y-111426417D01*
X118946034Y-111425387D01*
X118953517Y-111424081D01*
X119011197Y-111398761D01*
X119017304Y-111396270D01*
X119069117Y-111376691D01*
X119069118Y-111376690D01*
X119076222Y-111374006D01*
X119082477Y-111369707D01*
X119085618Y-111368065D01*
X119098372Y-111360967D01*
X119101478Y-111359130D01*
X119108433Y-111356077D01*
X119114460Y-111351452D01*
X119114464Y-111351450D01*
X119158402Y-111317735D01*
X119163720Y-111313871D01*
X119215652Y-111278179D01*
X119256535Y-111232293D01*
X119261498Y-111227037D01*
X119299472Y-111189063D01*
X119362369Y-111154912D01*
X119532288Y-111118794D01*
X119538319Y-111116109D01*
X119700722Y-111043803D01*
X119700724Y-111043802D01*
X119706752Y-111041118D01*
X119861253Y-110928866D01*
X119989040Y-110786944D01*
X120084527Y-110621556D01*
X120143542Y-110439928D01*
X120163504Y-110250000D01*
X120143542Y-110060072D01*
X120084527Y-109878444D01*
X119989040Y-109713056D01*
X119861253Y-109571134D01*
X119706752Y-109458882D01*
X119700724Y-109456198D01*
X119700722Y-109456197D01*
X119538319Y-109383891D01*
X119538318Y-109383891D01*
X119532288Y-109381206D01*
X119438888Y-109361353D01*
X119351944Y-109342872D01*
X119351939Y-109342872D01*
X119345487Y-109341500D01*
X119154513Y-109341500D01*
X119148061Y-109342872D01*
X119148056Y-109342872D01*
X119061112Y-109361353D01*
X118967712Y-109381206D01*
X118961682Y-109383891D01*
X118961681Y-109383891D01*
X118799278Y-109456197D01*
X118799276Y-109456198D01*
X118793248Y-109458882D01*
X118638747Y-109571134D01*
X118510960Y-109713056D01*
X118415473Y-109878444D01*
X118413431Y-109884729D01*
X118387695Y-109963936D01*
X118347622Y-110022542D01*
X118282225Y-110050179D01*
X118267862Y-110051000D01*
X96091726Y-110051000D01*
X96023605Y-110030998D01*
X96002631Y-110014095D01*
X93936243Y-107947708D01*
X93902218Y-107885396D01*
X93900028Y-107871783D01*
X93894232Y-107816637D01*
X93894232Y-107816635D01*
X93893542Y-107810072D01*
X93834527Y-107628444D01*
X93739040Y-107463056D01*
X93611253Y-107321134D01*
X93512157Y-107249136D01*
X93462094Y-107212763D01*
X93462093Y-107212762D01*
X93456752Y-107208882D01*
X93450724Y-107206198D01*
X93450722Y-107206197D01*
X93308634Y-107142936D01*
X93254539Y-107096956D01*
X93239070Y-107046071D01*
X93193548Y-107086281D01*
X93123374Y-107097054D01*
X93113920Y-107095418D01*
X93101944Y-107092872D01*
X93101939Y-107092872D01*
X93095487Y-107091500D01*
X92904513Y-107091500D01*
X92898061Y-107092872D01*
X92898056Y-107092872D01*
X92811112Y-107111353D01*
X92717712Y-107131206D01*
X92711682Y-107133891D01*
X92711681Y-107133891D01*
X92549278Y-107206197D01*
X92549276Y-107206198D01*
X92543248Y-107208882D01*
X92537907Y-107212762D01*
X92537906Y-107212763D01*
X92487843Y-107249136D01*
X92388747Y-107321134D01*
X92384326Y-107326044D01*
X92384325Y-107326045D01*
X92343636Y-107371235D01*
X92283190Y-107408475D01*
X92212207Y-107407123D01*
X92156364Y-107371235D01*
X92115675Y-107326045D01*
X92115674Y-107326044D01*
X92111253Y-107321134D01*
X92012157Y-107249136D01*
X91962094Y-107212763D01*
X91962093Y-107212762D01*
X91956752Y-107208882D01*
X91950724Y-107206198D01*
X91950722Y-107206197D01*
X91788319Y-107133891D01*
X91788318Y-107133891D01*
X91782288Y-107131206D01*
X91688888Y-107111353D01*
X91601944Y-107092872D01*
X91601939Y-107092872D01*
X91595487Y-107091500D01*
X91404513Y-107091500D01*
X91398061Y-107092872D01*
X91398056Y-107092872D01*
X91311112Y-107111353D01*
X91217712Y-107131206D01*
X91211682Y-107133891D01*
X91211681Y-107133891D01*
X91049278Y-107206197D01*
X91049276Y-107206198D01*
X91043248Y-107208882D01*
X91037907Y-107212762D01*
X91037906Y-107212763D01*
X90987843Y-107249136D01*
X90888747Y-107321134D01*
X90760960Y-107463056D01*
X90665473Y-107628444D01*
X90606458Y-107810072D01*
X90605768Y-107816633D01*
X90605768Y-107816635D01*
X90598541Y-107885396D01*
X90586496Y-108000000D01*
X82245987Y-108000000D01*
X82245987Y-107902878D01*
X82753987Y-107902878D01*
X82758462Y-107918117D01*
X82759852Y-107919322D01*
X82767535Y-107920993D01*
X83763281Y-107920993D01*
X83776243Y-107917187D01*
X83778179Y-107902271D01*
X83774300Y-107879693D01*
X83771321Y-107868576D01*
X83701656Y-107679741D01*
X83696706Y-107669363D01*
X83593796Y-107496387D01*
X83587032Y-107487078D01*
X83454322Y-107335750D01*
X83445987Y-107327840D01*
X83287918Y-107203229D01*
X83278267Y-107196961D01*
X83100151Y-107103250D01*
X83089508Y-107098841D01*
X82897303Y-107039160D01*
X82886041Y-107036766D01*
X82771975Y-107023266D01*
X82757556Y-107025708D01*
X82753987Y-107038450D01*
X82753987Y-107902878D01*
X82245987Y-107902878D01*
X82245987Y-107039703D01*
X82241716Y-107025158D01*
X82229582Y-107023095D01*
X82143811Y-107030977D01*
X82132489Y-107033076D01*
X81938784Y-107087706D01*
X81928037Y-107091830D01*
X81747521Y-107180852D01*
X81737714Y-107186862D01*
X81709389Y-107208013D01*
X81642839Y-107232745D01*
X81573483Y-107217570D01*
X81523340Y-107167308D01*
X81508000Y-107107055D01*
X81508000Y-102895668D01*
X81528002Y-102827547D01*
X81581658Y-102781054D01*
X81651932Y-102770950D01*
X81706678Y-102794432D01*
X81707211Y-102793611D01*
X81711972Y-102796703D01*
X81712005Y-102796717D01*
X81712057Y-102796758D01*
X81721707Y-102803025D01*
X81899823Y-102896736D01*
X81910466Y-102901145D01*
X82102671Y-102960826D01*
X82113933Y-102963220D01*
X82227999Y-102976720D01*
X82242418Y-102974278D01*
X82245987Y-102961536D01*
X82245987Y-102960283D01*
X82753987Y-102960283D01*
X82758258Y-102974828D01*
X82770392Y-102976891D01*
X82856163Y-102969009D01*
X82867485Y-102966910D01*
X83061190Y-102912280D01*
X83071937Y-102908156D01*
X83252453Y-102819134D01*
X83262260Y-102813124D01*
X83423536Y-102692694D01*
X83432076Y-102685004D01*
X83568707Y-102537199D01*
X83575708Y-102528074D01*
X83683112Y-102357849D01*
X83688333Y-102347602D01*
X83762915Y-102160661D01*
X83766184Y-102149624D01*
X83776699Y-102096763D01*
X83775547Y-102083887D01*
X83760391Y-102078993D01*
X82772102Y-102078993D01*
X82756863Y-102083468D01*
X82755658Y-102084858D01*
X82753987Y-102092541D01*
X82753987Y-102960283D01*
X82245987Y-102960283D01*
X82245987Y-101552878D01*
X82753987Y-101552878D01*
X82758462Y-101568117D01*
X82759852Y-101569322D01*
X82767535Y-101570993D01*
X83763281Y-101570993D01*
X83776243Y-101567187D01*
X83778179Y-101552271D01*
X83774300Y-101529693D01*
X83771321Y-101518576D01*
X83701656Y-101329741D01*
X83696706Y-101319363D01*
X83593796Y-101146387D01*
X83587032Y-101137078D01*
X83454322Y-100985750D01*
X83445987Y-100977840D01*
X83287918Y-100853229D01*
X83278267Y-100846961D01*
X83100151Y-100753250D01*
X83089508Y-100748841D01*
X82897303Y-100689160D01*
X82886041Y-100686766D01*
X82771975Y-100673266D01*
X82757556Y-100675708D01*
X82753987Y-100688450D01*
X82753987Y-101552878D01*
X82245987Y-101552878D01*
X82245987Y-100689703D01*
X82241716Y-100675158D01*
X82229582Y-100673095D01*
X82143811Y-100680977D01*
X82132489Y-100683076D01*
X81938784Y-100737706D01*
X81928037Y-100741830D01*
X81747521Y-100830852D01*
X81737714Y-100836862D01*
X81709389Y-100858013D01*
X81642839Y-100882745D01*
X81573483Y-100867570D01*
X81523340Y-100817308D01*
X81508000Y-100757055D01*
X81508000Y-99500000D01*
X91586496Y-99500000D01*
X91587186Y-99506565D01*
X91602375Y-99651076D01*
X91606458Y-99689928D01*
X91665473Y-99871556D01*
X91668776Y-99877278D01*
X91668777Y-99877279D01*
X91702686Y-99936010D01*
X91760960Y-100036944D01*
X91765378Y-100041851D01*
X91765379Y-100041852D01*
X91810082Y-100091500D01*
X91888747Y-100178866D01*
X91954998Y-100227000D01*
X92024308Y-100277357D01*
X92043248Y-100291118D01*
X92049276Y-100293802D01*
X92049278Y-100293803D01*
X92165632Y-100345607D01*
X92203478Y-100371619D01*
X92485536Y-100653677D01*
X92498890Y-100669422D01*
X92501634Y-100673255D01*
X92501637Y-100673259D01*
X92505606Y-100678802D01*
X92510675Y-100683366D01*
X92553929Y-100722313D01*
X92558713Y-100726854D01*
X92637095Y-100805236D01*
X92671121Y-100867548D01*
X92674000Y-100894331D01*
X92674000Y-105584207D01*
X92664654Y-105628178D01*
X92665473Y-105628444D01*
X92606458Y-105810072D01*
X92605768Y-105816633D01*
X92605768Y-105816635D01*
X92592810Y-105939928D01*
X92586496Y-106000000D01*
X92606458Y-106189928D01*
X92665473Y-106371556D01*
X92760960Y-106536944D01*
X92888747Y-106678866D01*
X93043248Y-106791118D01*
X93049276Y-106793802D01*
X93049278Y-106793803D01*
X93191366Y-106857064D01*
X93245461Y-106903044D01*
X93260930Y-106953929D01*
X93306452Y-106913719D01*
X93376626Y-106902946D01*
X93386080Y-106904582D01*
X93398056Y-106907128D01*
X93398061Y-106907128D01*
X93404513Y-106908500D01*
X93595487Y-106908500D01*
X93601939Y-106907128D01*
X93601944Y-106907128D01*
X93688887Y-106888647D01*
X93782288Y-106868794D01*
X93788319Y-106866109D01*
X93950722Y-106793803D01*
X93950724Y-106793802D01*
X93956752Y-106791118D01*
X94111253Y-106678866D01*
X94239040Y-106536944D01*
X94334527Y-106371556D01*
X94393542Y-106189928D01*
X94413504Y-106000000D01*
X94407190Y-105939928D01*
X94394232Y-105816635D01*
X94394232Y-105816633D01*
X94393542Y-105810072D01*
X94334527Y-105628444D01*
X94335346Y-105628178D01*
X94326000Y-105584207D01*
X94326000Y-100540033D01*
X94326442Y-100529489D01*
X94330052Y-100486498D01*
X94330623Y-100479700D01*
X94320289Y-100402257D01*
X94319924Y-100399236D01*
X94312226Y-100328366D01*
X94312226Y-100328364D01*
X94311489Y-100321583D01*
X94309313Y-100315117D01*
X94308796Y-100312767D01*
X94308699Y-100312218D01*
X94308522Y-100311459D01*
X94308364Y-100310914D01*
X94307789Y-100308575D01*
X94306887Y-100301810D01*
X94283492Y-100237533D01*
X94278989Y-100166679D01*
X94312798Y-100105343D01*
X98576846Y-95841294D01*
X98639158Y-95807268D01*
X98665941Y-95804389D01*
X98835270Y-95804389D01*
X98903391Y-95824391D01*
X98949884Y-95878047D01*
X98959988Y-95948321D01*
X98942703Y-95996224D01*
X98901760Y-96063037D01*
X98899867Y-96067607D01*
X98899865Y-96067611D01*
X98813564Y-96275962D01*
X98810895Y-96282406D01*
X98806267Y-96301682D01*
X98770738Y-96449674D01*
X98755465Y-96513289D01*
X98736835Y-96750000D01*
X98755465Y-96986711D01*
X98810895Y-97217594D01*
X98901760Y-97436963D01*
X98904346Y-97441183D01*
X99023241Y-97635202D01*
X99023245Y-97635208D01*
X99025824Y-97639416D01*
X99180031Y-97819969D01*
X99360584Y-97974176D01*
X99364792Y-97976755D01*
X99364798Y-97976759D01*
X99558817Y-98095654D01*
X99563037Y-98098240D01*
X99567607Y-98100133D01*
X99567611Y-98100135D01*
X99777833Y-98187211D01*
X99782406Y-98189105D01*
X99851404Y-98205670D01*
X100008476Y-98243380D01*
X100008482Y-98243381D01*
X100013289Y-98244535D01*
X100250000Y-98263165D01*
X100486711Y-98244535D01*
X100491518Y-98243381D01*
X100491524Y-98243380D01*
X100568398Y-98224924D01*
X100635254Y-98208873D01*
X100706161Y-98212420D01*
X100753762Y-98242297D01*
X101014095Y-98502630D01*
X101048121Y-98564942D01*
X101051000Y-98591725D01*
X101051000Y-106870221D01*
X101030998Y-106938342D01*
X101018641Y-106954525D01*
X101010960Y-106963056D01*
X100967431Y-107038450D01*
X100922595Y-107116109D01*
X100915473Y-107128444D01*
X100856458Y-107310072D01*
X100855768Y-107316633D01*
X100855768Y-107316635D01*
X100840895Y-107458148D01*
X100836496Y-107500000D01*
X100837186Y-107506565D01*
X100854297Y-107669363D01*
X100856458Y-107689928D01*
X100915473Y-107871556D01*
X100918776Y-107877278D01*
X100918777Y-107877279D01*
X100952686Y-107936010D01*
X101010960Y-108036944D01*
X101138747Y-108178866D01*
X101293248Y-108291118D01*
X101299276Y-108293802D01*
X101299278Y-108293803D01*
X101459799Y-108365271D01*
X101467712Y-108368794D01*
X101561113Y-108388647D01*
X101648056Y-108407128D01*
X101648061Y-108407128D01*
X101654513Y-108408500D01*
X101845487Y-108408500D01*
X101851939Y-108407128D01*
X101851944Y-108407128D01*
X101938887Y-108388647D01*
X102032288Y-108368794D01*
X102040201Y-108365271D01*
X102200722Y-108293803D01*
X102200724Y-108293802D01*
X102206752Y-108291118D01*
X102361253Y-108178866D01*
X102489040Y-108036944D01*
X102547314Y-107936010D01*
X102581223Y-107877279D01*
X102581224Y-107877278D01*
X102584527Y-107871556D01*
X102643542Y-107689928D01*
X102645704Y-107669363D01*
X102662814Y-107506565D01*
X102663504Y-107500000D01*
X102659105Y-107458148D01*
X102644232Y-107316635D01*
X102644232Y-107316633D01*
X102643542Y-107310072D01*
X102584527Y-107128444D01*
X102577406Y-107116109D01*
X102532569Y-107038450D01*
X102489040Y-106963056D01*
X102481363Y-106954530D01*
X102450647Y-106890524D01*
X102449000Y-106870221D01*
X102449000Y-98278589D01*
X102449292Y-98270019D01*
X102452653Y-98220724D01*
X102452653Y-98220720D01*
X102453169Y-98213148D01*
X102442337Y-98151085D01*
X102441375Y-98144564D01*
X102434722Y-98089582D01*
X102434721Y-98089579D01*
X102433809Y-98082040D01*
X102431123Y-98074931D01*
X102430277Y-98071488D01*
X102426414Y-98057363D01*
X102425386Y-98053958D01*
X102424081Y-98046482D01*
X102398765Y-97988810D01*
X102396277Y-97982715D01*
X102376690Y-97930880D01*
X102376689Y-97930878D01*
X102374006Y-97923778D01*
X102369709Y-97917526D01*
X102368066Y-97914383D01*
X102360971Y-97901635D01*
X102359130Y-97898523D01*
X102356077Y-97891567D01*
X102317732Y-97841593D01*
X102313861Y-97836266D01*
X102282481Y-97790607D01*
X102282480Y-97790605D01*
X102278179Y-97784348D01*
X102232320Y-97743489D01*
X102227045Y-97738509D01*
X101742297Y-97253761D01*
X101708271Y-97191449D01*
X101708873Y-97135254D01*
X101744535Y-96986711D01*
X101763165Y-96750000D01*
X101744535Y-96513289D01*
X101729263Y-96449674D01*
X101693733Y-96301682D01*
X101689105Y-96282406D01*
X101686436Y-96275962D01*
X101600135Y-96067611D01*
X101600133Y-96067607D01*
X101598240Y-96063037D01*
X101557297Y-95996224D01*
X101538759Y-95927690D01*
X101560215Y-95860014D01*
X101614855Y-95814681D01*
X101664730Y-95804389D01*
X102835270Y-95804389D01*
X102903391Y-95824391D01*
X102949884Y-95878047D01*
X102959988Y-95948321D01*
X102942703Y-95996224D01*
X102901760Y-96063037D01*
X102899867Y-96067607D01*
X102899865Y-96067611D01*
X102813564Y-96275962D01*
X102810895Y-96282406D01*
X102806267Y-96301682D01*
X102770738Y-96449674D01*
X102755465Y-96513289D01*
X102736835Y-96750000D01*
X102755465Y-96986711D01*
X102810895Y-97217594D01*
X102901760Y-97436963D01*
X102904346Y-97441183D01*
X103023241Y-97635202D01*
X103023245Y-97635208D01*
X103025824Y-97639416D01*
X103180031Y-97819969D01*
X103360584Y-97974176D01*
X103364792Y-97976755D01*
X103364798Y-97976759D01*
X103558817Y-98095654D01*
X103563037Y-98098240D01*
X103567607Y-98100133D01*
X103567611Y-98100135D01*
X103777833Y-98187211D01*
X103782406Y-98189105D01*
X103851404Y-98205670D01*
X104008476Y-98243380D01*
X104008482Y-98243381D01*
X104013289Y-98244535D01*
X104250000Y-98263165D01*
X104486711Y-98244535D01*
X104491518Y-98243381D01*
X104491524Y-98243380D01*
X104648596Y-98205670D01*
X104717594Y-98189105D01*
X104722167Y-98187211D01*
X104932389Y-98100135D01*
X104932393Y-98100133D01*
X104936963Y-98098240D01*
X104941183Y-98095654D01*
X105135202Y-97976759D01*
X105135208Y-97976755D01*
X105139416Y-97974176D01*
X105319969Y-97819969D01*
X105474176Y-97639416D01*
X105476755Y-97635208D01*
X105476759Y-97635202D01*
X105595654Y-97441183D01*
X105598240Y-97436963D01*
X105689105Y-97217594D01*
X105744535Y-96986711D01*
X105763165Y-96750000D01*
X105744535Y-96513289D01*
X105729263Y-96449674D01*
X105693733Y-96301682D01*
X105689105Y-96282406D01*
X105686436Y-96275962D01*
X105600135Y-96067611D01*
X105600133Y-96067607D01*
X105598240Y-96063037D01*
X105557297Y-95996224D01*
X105538759Y-95927690D01*
X105560215Y-95860014D01*
X105614855Y-95814681D01*
X105664730Y-95804389D01*
X109335270Y-95804389D01*
X109403391Y-95824391D01*
X109449884Y-95878047D01*
X109459988Y-95948321D01*
X109442703Y-95996224D01*
X109401760Y-96063037D01*
X109399867Y-96067607D01*
X109399865Y-96067611D01*
X109313564Y-96275962D01*
X109310895Y-96282406D01*
X109306267Y-96301682D01*
X109270738Y-96449674D01*
X109255465Y-96513289D01*
X109236835Y-96750000D01*
X109255465Y-96986711D01*
X109310895Y-97217594D01*
X109401760Y-97436963D01*
X109404346Y-97441183D01*
X109523241Y-97635202D01*
X109523245Y-97635208D01*
X109525824Y-97639416D01*
X109680031Y-97819969D01*
X109860584Y-97974176D01*
X109864792Y-97976755D01*
X109864798Y-97976759D01*
X110058817Y-98095654D01*
X110063037Y-98098240D01*
X110067607Y-98100133D01*
X110067611Y-98100135D01*
X110277833Y-98187211D01*
X110282406Y-98189105D01*
X110351404Y-98205670D01*
X110508476Y-98243380D01*
X110508482Y-98243381D01*
X110513289Y-98244535D01*
X110750000Y-98263165D01*
X110986711Y-98244535D01*
X110991518Y-98243381D01*
X110991524Y-98243380D01*
X111148596Y-98205670D01*
X111217594Y-98189105D01*
X111222167Y-98187211D01*
X111432389Y-98100135D01*
X111432393Y-98100133D01*
X111436963Y-98098240D01*
X111441183Y-98095654D01*
X111635202Y-97976759D01*
X111635208Y-97976755D01*
X111639416Y-97974176D01*
X111819969Y-97819969D01*
X111887348Y-97741079D01*
X111970963Y-97643178D01*
X111974176Y-97639416D01*
X112053995Y-97509165D01*
X112106643Y-97461533D01*
X112161427Y-97449000D01*
X116408275Y-97449000D01*
X116476396Y-97469002D01*
X116497370Y-97485905D01*
X118951177Y-99939713D01*
X118985203Y-100002025D01*
X118980138Y-100072841D01*
X118937591Y-100129676D01*
X118871071Y-100154487D01*
X118810833Y-100143915D01*
X118788319Y-100133891D01*
X118788318Y-100133891D01*
X118782288Y-100131206D01*
X118688887Y-100111353D01*
X118601944Y-100092872D01*
X118601939Y-100092872D01*
X118595487Y-100091500D01*
X118404513Y-100091500D01*
X118398061Y-100092872D01*
X118398056Y-100092872D01*
X118311113Y-100111353D01*
X118217712Y-100131206D01*
X118211682Y-100133891D01*
X118211681Y-100133891D01*
X118049278Y-100206197D01*
X118049276Y-100206198D01*
X118043248Y-100208882D01*
X117888747Y-100321134D01*
X117884326Y-100326044D01*
X117884325Y-100326045D01*
X117817042Y-100400771D01*
X117760960Y-100463056D01*
X117665473Y-100628444D01*
X117663432Y-100634726D01*
X117613335Y-100788907D01*
X117582597Y-100839065D01*
X113587400Y-104834262D01*
X113525088Y-104868288D01*
X113472108Y-104868414D01*
X113351944Y-104842872D01*
X113351939Y-104842872D01*
X113345487Y-104841500D01*
X113154513Y-104841500D01*
X113148061Y-104842872D01*
X113148056Y-104842872D01*
X113061113Y-104861353D01*
X112967712Y-104881206D01*
X112961682Y-104883891D01*
X112961681Y-104883891D01*
X112799278Y-104956197D01*
X112799276Y-104956198D01*
X112793248Y-104958882D01*
X112638747Y-105071134D01*
X112510960Y-105213056D01*
X112415473Y-105378444D01*
X112356458Y-105560072D01*
X112355768Y-105566633D01*
X112355768Y-105566635D01*
X112337943Y-105736237D01*
X112336496Y-105750000D01*
X112337186Y-105756565D01*
X112343500Y-105816635D01*
X112356458Y-105939928D01*
X112415473Y-106121556D01*
X112510960Y-106286944D01*
X112638747Y-106428866D01*
X112707324Y-106478690D01*
X112786672Y-106536340D01*
X112793248Y-106541118D01*
X112799276Y-106543802D01*
X112799278Y-106543803D01*
X112961681Y-106616109D01*
X112967712Y-106618794D01*
X113061113Y-106638647D01*
X113148056Y-106657128D01*
X113148061Y-106657128D01*
X113154513Y-106658500D01*
X113345487Y-106658500D01*
X113351939Y-106657128D01*
X113351944Y-106657128D01*
X113438887Y-106638647D01*
X113532288Y-106618794D01*
X113538319Y-106616109D01*
X113700722Y-106543803D01*
X113700724Y-106543802D01*
X113706752Y-106541118D01*
X113713020Y-106536564D01*
X113713646Y-106536340D01*
X113717811Y-106533936D01*
X113718251Y-106534698D01*
X113779887Y-106512706D01*
X113787081Y-106512500D01*
X113794525Y-106512500D01*
X113798161Y-106512076D01*
X113798163Y-106512076D01*
X113801615Y-106511673D01*
X113822924Y-106509189D01*
X113827244Y-106508762D01*
X113899811Y-106502859D01*
X113900427Y-106502809D01*
X113900436Y-106502914D01*
X113967788Y-106508884D01*
X114015390Y-106541864D01*
X114138747Y-106678866D01*
X114293248Y-106791118D01*
X114299276Y-106793802D01*
X114299278Y-106793803D01*
X114461681Y-106866109D01*
X114467712Y-106868794D01*
X114561113Y-106888647D01*
X114648056Y-106907128D01*
X114648061Y-106907128D01*
X114654513Y-106908500D01*
X114845487Y-106908500D01*
X114851939Y-106907128D01*
X114851944Y-106907128D01*
X114938887Y-106888647D01*
X115032288Y-106868794D01*
X115164502Y-106809929D01*
X115234868Y-106800495D01*
X115299165Y-106830601D01*
X115309373Y-106840712D01*
X115388747Y-106928866D01*
X115449580Y-106973064D01*
X115518442Y-107023095D01*
X115543248Y-107041118D01*
X115549276Y-107043802D01*
X115549278Y-107043803D01*
X115711681Y-107116109D01*
X115717712Y-107118794D01*
X115792680Y-107134729D01*
X115898056Y-107157128D01*
X115898061Y-107157128D01*
X115904513Y-107158500D01*
X116095487Y-107158500D01*
X116101939Y-107157128D01*
X116101944Y-107157128D01*
X116207320Y-107134729D01*
X116282288Y-107118794D01*
X116288319Y-107116109D01*
X116450722Y-107043803D01*
X116450724Y-107043802D01*
X116456752Y-107041118D01*
X116481559Y-107023095D01*
X116550420Y-106973064D01*
X116617288Y-106949206D01*
X116624481Y-106949000D01*
X130721401Y-106949000D01*
X130729971Y-106949292D01*
X130779277Y-106952654D01*
X130779281Y-106952654D01*
X130786852Y-106953170D01*
X130794328Y-106951865D01*
X130794332Y-106951865D01*
X130848924Y-106942337D01*
X130855449Y-106941374D01*
X130910418Y-106934722D01*
X130910420Y-106934721D01*
X130917960Y-106933809D01*
X130925062Y-106931125D01*
X130928500Y-106930281D01*
X130942633Y-106926414D01*
X130946034Y-106925387D01*
X130953517Y-106924081D01*
X130964804Y-106919126D01*
X131015448Y-106908500D01*
X131095487Y-106908500D01*
X131101939Y-106907128D01*
X131101944Y-106907128D01*
X131188887Y-106888647D01*
X131282288Y-106868794D01*
X131288319Y-106866109D01*
X131450722Y-106793803D01*
X131450724Y-106793802D01*
X131456752Y-106791118D01*
X131611253Y-106678866D01*
X131739040Y-106536944D01*
X131834527Y-106371556D01*
X131893542Y-106189928D01*
X131913504Y-106000000D01*
X131907190Y-105939928D01*
X131894232Y-105816635D01*
X131894232Y-105816633D01*
X131893542Y-105810072D01*
X131891502Y-105803794D01*
X131890129Y-105797334D01*
X131892314Y-105796869D01*
X131890579Y-105736237D01*
X131927238Y-105675437D01*
X131961798Y-105652888D01*
X131971200Y-105648761D01*
X131977273Y-105646282D01*
X132029270Y-105626633D01*
X132073804Y-105618500D01*
X132095487Y-105618500D01*
X132101939Y-105617128D01*
X132101944Y-105617128D01*
X132188887Y-105598647D01*
X132282288Y-105578794D01*
X132324339Y-105560072D01*
X132450722Y-105503803D01*
X132450724Y-105503802D01*
X132456752Y-105501118D01*
X132611253Y-105388866D01*
X132739040Y-105246944D01*
X132834527Y-105081556D01*
X132893542Y-104899928D01*
X132896868Y-104868288D01*
X132912814Y-104716565D01*
X132913504Y-104710000D01*
X132893542Y-104520072D01*
X132834527Y-104338444D01*
X132811575Y-104298689D01*
X132739040Y-104173056D01*
X132740172Y-104172402D01*
X132718691Y-104112187D01*
X132734775Y-104043036D01*
X132737817Y-104038302D01*
X132739040Y-104036944D01*
X132834527Y-103871556D01*
X132893542Y-103689928D01*
X132913504Y-103500000D01*
X132893542Y-103310072D01*
X132834527Y-103128444D01*
X132739040Y-102963056D01*
X132611253Y-102821134D01*
X132456752Y-102708882D01*
X132450724Y-102706198D01*
X132450722Y-102706197D01*
X132288319Y-102633891D01*
X132288318Y-102633891D01*
X132282288Y-102631206D01*
X132188888Y-102611353D01*
X132101944Y-102592872D01*
X132101939Y-102592872D01*
X132095487Y-102591500D01*
X131904513Y-102591500D01*
X131898061Y-102592872D01*
X131898056Y-102592872D01*
X131811113Y-102611353D01*
X131717712Y-102631206D01*
X131711682Y-102633891D01*
X131711681Y-102633891D01*
X131549278Y-102706197D01*
X131549276Y-102706198D01*
X131543248Y-102708882D01*
X131537907Y-102712762D01*
X131537906Y-102712763D01*
X131449580Y-102776936D01*
X131382712Y-102800794D01*
X131375519Y-102801000D01*
X121724481Y-102801000D01*
X121656360Y-102780998D01*
X121635386Y-102764095D01*
X120485905Y-101614615D01*
X120451880Y-101552303D01*
X120449000Y-101525520D01*
X120449000Y-99778600D01*
X120449292Y-99770029D01*
X120452653Y-99720725D01*
X120453170Y-99713149D01*
X120442334Y-99651065D01*
X120441378Y-99644586D01*
X120433809Y-99582040D01*
X120431125Y-99574938D01*
X120430270Y-99571456D01*
X120426430Y-99557421D01*
X120425389Y-99553973D01*
X120424082Y-99546483D01*
X120398763Y-99488805D01*
X120396270Y-99482697D01*
X120376692Y-99430886D01*
X120376692Y-99430885D01*
X120374006Y-99423778D01*
X120369700Y-99417512D01*
X120368050Y-99414357D01*
X120360931Y-99401565D01*
X120359131Y-99398521D01*
X120356078Y-99391567D01*
X120317740Y-99341604D01*
X120313862Y-99336267D01*
X120282481Y-99290607D01*
X120282479Y-99290605D01*
X120278179Y-99284348D01*
X120232311Y-99243481D01*
X120227036Y-99238501D01*
X117264497Y-96275962D01*
X117258643Y-96269696D01*
X117226152Y-96232451D01*
X117221158Y-96226726D01*
X117169622Y-96190506D01*
X117164326Y-96186573D01*
X117120737Y-96152394D01*
X117120734Y-96152392D01*
X117114760Y-96147708D01*
X117107836Y-96144582D01*
X117104801Y-96142744D01*
X117092102Y-96135500D01*
X117088954Y-96133812D01*
X117082739Y-96129444D01*
X117024050Y-96106562D01*
X117018005Y-96104022D01*
X116960565Y-96078087D01*
X116953092Y-96076702D01*
X116949674Y-96075631D01*
X116935685Y-96071646D01*
X116932193Y-96070749D01*
X116925111Y-96067988D01*
X116917578Y-96066996D01*
X116917577Y-96066996D01*
X116862670Y-96059767D01*
X116856159Y-96058736D01*
X116832112Y-96054279D01*
X116768778Y-96022200D01*
X116732841Y-95960970D01*
X116735711Y-95890032D01*
X116776478Y-95831906D01*
X116842198Y-95805048D01*
X116855073Y-95804389D01*
X123421578Y-95804389D01*
X123432122Y-95804831D01*
X123441611Y-95805628D01*
X123481911Y-95809012D01*
X123559354Y-95798678D01*
X123562354Y-95798316D01*
X123604109Y-95793780D01*
X123633245Y-95790615D01*
X123633247Y-95790615D01*
X123640028Y-95789878D01*
X123646494Y-95787702D01*
X123648844Y-95787185D01*
X123649394Y-95787088D01*
X123650161Y-95786909D01*
X123650696Y-95786754D01*
X123653043Y-95786178D01*
X123659801Y-95785276D01*
X123733153Y-95758578D01*
X123736054Y-95757563D01*
X123803650Y-95734814D01*
X123803657Y-95734811D01*
X123810122Y-95732635D01*
X123815971Y-95729120D01*
X123818164Y-95728107D01*
X123818679Y-95727895D01*
X123819377Y-95727562D01*
X123819878Y-95727289D01*
X123822032Y-95726229D01*
X123828445Y-95723895D01*
X123894413Y-95682030D01*
X123897005Y-95680430D01*
X123958113Y-95643713D01*
X123963955Y-95640203D01*
X123968906Y-95635522D01*
X123970842Y-95634052D01*
X123971773Y-95633404D01*
X123975607Y-95630504D01*
X123979975Y-95627732D01*
X123984075Y-95624066D01*
X124035996Y-95572145D01*
X124038518Y-95569692D01*
X124089393Y-95521582D01*
X124089395Y-95521580D01*
X124094351Y-95516893D01*
X124098185Y-95511251D01*
X124102308Y-95506407D01*
X124109164Y-95498977D01*
X124555761Y-95052379D01*
X124563529Y-95045236D01*
X124596480Y-95017390D01*
X124601693Y-95012985D01*
X124649134Y-94950934D01*
X124651032Y-94948514D01*
X124695693Y-94892968D01*
X124699969Y-94887650D01*
X124703002Y-94881540D01*
X124704304Y-94879504D01*
X124704623Y-94879048D01*
X124705033Y-94878390D01*
X124705302Y-94877900D01*
X124706553Y-94875834D01*
X124710697Y-94870414D01*
X124743696Y-94799646D01*
X124745030Y-94796875D01*
X124776732Y-94733011D01*
X124779767Y-94726898D01*
X124781419Y-94720273D01*
X124782253Y-94718006D01*
X124782472Y-94717481D01*
X124782721Y-94716777D01*
X124782883Y-94716227D01*
X124783661Y-94713943D01*
X124786543Y-94707761D01*
X124788031Y-94701103D01*
X124788034Y-94701095D01*
X124803581Y-94631542D01*
X124804289Y-94628546D01*
X124821533Y-94559385D01*
X124821533Y-94559382D01*
X124823184Y-94552762D01*
X124823375Y-94545941D01*
X124823703Y-94543544D01*
X124823904Y-94542430D01*
X124824566Y-94537656D01*
X124825693Y-94532616D01*
X124826000Y-94527125D01*
X124826000Y-94453711D01*
X124826049Y-94450193D01*
X124826468Y-94435196D01*
X124828195Y-94373365D01*
X124826916Y-94366658D01*
X124826406Y-94360323D01*
X124826000Y-94350216D01*
X124826000Y-94214428D01*
X124846002Y-94146307D01*
X124869420Y-94119262D01*
X124973412Y-94029023D01*
X124973414Y-94029021D01*
X124977445Y-94025523D01*
X125048048Y-93939417D01*
X125120240Y-93851373D01*
X125120244Y-93851367D01*
X125123624Y-93847245D01*
X125141552Y-93815750D01*
X125192632Y-93766445D01*
X125262262Y-93752583D01*
X125328333Y-93778566D01*
X125355573Y-93807716D01*
X125437441Y-93929319D01*
X125441120Y-93933176D01*
X125441122Y-93933178D01*
X125502710Y-93997738D01*
X125596576Y-94096135D01*
X125750214Y-94210445D01*
X125792926Y-94267154D01*
X125801000Y-94311533D01*
X125801000Y-95908275D01*
X125780998Y-95976396D01*
X125764095Y-95997370D01*
X121950528Y-99810937D01*
X121887631Y-99845088D01*
X121717712Y-99881206D01*
X121711682Y-99883891D01*
X121711681Y-99883891D01*
X121549278Y-99956197D01*
X121549276Y-99956198D01*
X121543248Y-99958882D01*
X121388747Y-100071134D01*
X121384326Y-100076044D01*
X121384325Y-100076045D01*
X121288249Y-100182749D01*
X121260960Y-100213056D01*
X121165473Y-100378444D01*
X121106458Y-100560072D01*
X121105768Y-100566633D01*
X121105768Y-100566635D01*
X121093530Y-100683076D01*
X121086496Y-100750000D01*
X121087186Y-100756565D01*
X121101666Y-100894331D01*
X121106458Y-100939928D01*
X121165473Y-101121556D01*
X121168776Y-101127278D01*
X121168777Y-101127279D01*
X121179809Y-101146387D01*
X121260960Y-101286944D01*
X121265378Y-101291851D01*
X121265379Y-101291852D01*
X121384325Y-101423955D01*
X121388747Y-101428866D01*
X121543248Y-101541118D01*
X121549276Y-101543802D01*
X121549278Y-101543803D01*
X121711681Y-101616109D01*
X121717712Y-101618794D01*
X121811112Y-101638647D01*
X121898056Y-101657128D01*
X121898061Y-101657128D01*
X121904513Y-101658500D01*
X122095487Y-101658500D01*
X122101939Y-101657128D01*
X122101944Y-101657128D01*
X122188888Y-101638647D01*
X122282288Y-101618794D01*
X122288319Y-101616109D01*
X122450722Y-101543803D01*
X122450724Y-101543802D01*
X122456752Y-101541118D01*
X122611253Y-101428866D01*
X122615675Y-101423955D01*
X122734621Y-101291852D01*
X122734622Y-101291851D01*
X122739040Y-101286944D01*
X122820191Y-101146387D01*
X122831223Y-101127279D01*
X122831224Y-101127278D01*
X122834527Y-101121556D01*
X122859766Y-101043880D01*
X122891502Y-100946207D01*
X122891502Y-100946205D01*
X122893542Y-100939928D01*
X122900028Y-100878217D01*
X122927041Y-100812560D01*
X122936243Y-100802292D01*
X126974038Y-96764497D01*
X126980304Y-96758643D01*
X126984560Y-96754930D01*
X127023274Y-96721158D01*
X127059494Y-96669622D01*
X127063427Y-96664326D01*
X127097606Y-96620737D01*
X127097608Y-96620734D01*
X127102292Y-96614760D01*
X127105418Y-96607836D01*
X127107256Y-96604801D01*
X127114500Y-96592102D01*
X127116188Y-96588954D01*
X127120556Y-96582739D01*
X127134340Y-96547386D01*
X134817759Y-96547386D01*
X134825216Y-96557753D01*
X135064935Y-96751874D01*
X135070272Y-96755751D01*
X135390685Y-96963830D01*
X135396394Y-96967127D01*
X135736811Y-97140578D01*
X135742836Y-97143260D01*
X136099502Y-97280171D01*
X136105784Y-97282212D01*
X136474816Y-97381094D01*
X136481266Y-97382465D01*
X136858629Y-97442234D01*
X136865167Y-97442920D01*
X137246699Y-97462916D01*
X137253301Y-97462916D01*
X137634833Y-97442920D01*
X137641371Y-97442234D01*
X138018734Y-97382465D01*
X138025184Y-97381094D01*
X138394216Y-97282212D01*
X138400498Y-97280171D01*
X138757164Y-97143260D01*
X138763189Y-97140578D01*
X139103606Y-96967127D01*
X139109315Y-96963830D01*
X139429728Y-96755751D01*
X139435065Y-96751874D01*
X139673835Y-96558522D01*
X139682300Y-96546267D01*
X139675966Y-96535176D01*
X137262812Y-94122022D01*
X137248868Y-94114408D01*
X137247035Y-94114539D01*
X137240420Y-94118790D01*
X134824900Y-96534310D01*
X134817759Y-96547386D01*
X127134340Y-96547386D01*
X127143438Y-96524050D01*
X127145978Y-96518005D01*
X127171913Y-96460565D01*
X127173298Y-96453092D01*
X127174369Y-96449674D01*
X127178354Y-96435685D01*
X127179251Y-96432193D01*
X127182012Y-96425111D01*
X127190233Y-96362670D01*
X127191265Y-96356157D01*
X127201361Y-96301682D01*
X127201361Y-96301680D01*
X127202745Y-96294213D01*
X127201518Y-96272924D01*
X127199209Y-96232888D01*
X127199000Y-96225635D01*
X127199000Y-94310849D01*
X127219002Y-94242728D01*
X127259633Y-94203131D01*
X127303317Y-94176623D01*
X127307815Y-94172720D01*
X127473412Y-94029023D01*
X127473414Y-94029021D01*
X127477445Y-94025523D01*
X127548048Y-93939417D01*
X127620240Y-93851373D01*
X127620244Y-93851367D01*
X127623624Y-93847245D01*
X127636681Y-93824308D01*
X127641829Y-93815265D01*
X127692912Y-93765959D01*
X127762542Y-93752098D01*
X127828613Y-93778082D01*
X127855851Y-93807232D01*
X127934852Y-93924578D01*
X127941519Y-93932870D01*
X128093228Y-94091900D01*
X128101186Y-94098941D01*
X128277525Y-94230141D01*
X128286562Y-94235745D01*
X128482484Y-94335357D01*
X128492335Y-94339357D01*
X128702240Y-94404534D01*
X128712624Y-94406817D01*
X128728043Y-94408861D01*
X128742207Y-94406665D01*
X128746000Y-94393478D01*
X128746000Y-94391192D01*
X129254000Y-94391192D01*
X129257973Y-94404723D01*
X129268580Y-94406248D01*
X129386421Y-94381523D01*
X129396617Y-94378463D01*
X129601029Y-94297737D01*
X129610561Y-94293006D01*
X129798462Y-94178984D01*
X129807052Y-94172720D01*
X129973052Y-94028673D01*
X129980472Y-94021042D01*
X130119826Y-93851089D01*
X130125850Y-93842322D01*
X130176524Y-93753301D01*
X133537084Y-93753301D01*
X133557080Y-94134833D01*
X133557766Y-94141371D01*
X133617535Y-94518734D01*
X133618906Y-94525184D01*
X133717788Y-94894216D01*
X133719829Y-94900498D01*
X133856740Y-95257164D01*
X133859422Y-95263189D01*
X134032872Y-95603603D01*
X134036169Y-95609313D01*
X134244253Y-95929735D01*
X134248123Y-95935061D01*
X134441478Y-96173835D01*
X134453733Y-96182300D01*
X134464824Y-96175966D01*
X136877978Y-93762812D01*
X136885592Y-93748868D01*
X136885461Y-93747035D01*
X136881210Y-93740420D01*
X134465690Y-91324900D01*
X134452614Y-91317759D01*
X134442247Y-91325216D01*
X134248123Y-91564939D01*
X134244253Y-91570265D01*
X134036169Y-91890687D01*
X134032872Y-91896397D01*
X133859422Y-92236811D01*
X133856740Y-92242836D01*
X133719829Y-92599502D01*
X133717788Y-92605784D01*
X133618906Y-92974816D01*
X133617535Y-92981266D01*
X133557766Y-93358629D01*
X133557080Y-93365167D01*
X133537084Y-93746699D01*
X133537084Y-93753301D01*
X130176524Y-93753301D01*
X130234576Y-93651318D01*
X130239041Y-93641654D01*
X130314031Y-93435059D01*
X130316802Y-93424792D01*
X130353504Y-93221826D01*
X130352085Y-93208586D01*
X130337450Y-93204000D01*
X129272115Y-93204000D01*
X129256876Y-93208475D01*
X129255671Y-93209865D01*
X129254000Y-93217548D01*
X129254000Y-94391192D01*
X128746000Y-94391192D01*
X128746000Y-92677885D01*
X129254000Y-92677885D01*
X129258475Y-92693124D01*
X129259865Y-92694329D01*
X129267548Y-92696000D01*
X130333849Y-92696000D01*
X130348527Y-92691690D01*
X130350590Y-92679807D01*
X130343876Y-92600675D01*
X130342086Y-92590203D01*
X130286870Y-92377465D01*
X130283335Y-92367425D01*
X130193063Y-92167030D01*
X130187894Y-92157744D01*
X130065150Y-91975425D01*
X130058481Y-91967130D01*
X129906772Y-91808100D01*
X129898814Y-91801059D01*
X129722475Y-91669859D01*
X129713438Y-91664255D01*
X129517516Y-91564643D01*
X129507665Y-91560643D01*
X129297760Y-91495466D01*
X129287376Y-91493183D01*
X129271957Y-91491139D01*
X129257793Y-91493335D01*
X129254000Y-91506522D01*
X129254000Y-92677885D01*
X128746000Y-92677885D01*
X128746000Y-91508808D01*
X128742027Y-91495277D01*
X128731420Y-91493752D01*
X128613579Y-91518477D01*
X128603383Y-91521537D01*
X128398971Y-91602263D01*
X128389439Y-91606994D01*
X128201538Y-91721016D01*
X128192948Y-91727280D01*
X128026948Y-91871327D01*
X128019528Y-91878958D01*
X127880174Y-92048911D01*
X127874152Y-92057674D01*
X127858762Y-92084711D01*
X127807680Y-92134018D01*
X127738049Y-92147880D01*
X127671978Y-92121897D01*
X127644739Y-92092747D01*
X127594619Y-92018301D01*
X127562559Y-91970681D01*
X127503918Y-91909209D01*
X127474725Y-91878608D01*
X127403424Y-91803865D01*
X127218458Y-91666246D01*
X127213707Y-91663830D01*
X127213703Y-91663828D01*
X127095097Y-91603526D01*
X127012949Y-91561760D01*
X127007855Y-91560178D01*
X127007852Y-91560177D01*
X126797871Y-91494976D01*
X126792773Y-91493393D01*
X126787484Y-91492692D01*
X126569511Y-91463802D01*
X126569506Y-91463802D01*
X126564226Y-91463102D01*
X126558897Y-91463302D01*
X126558895Y-91463302D01*
X126449034Y-91467426D01*
X126333842Y-91471751D01*
X126328623Y-91472846D01*
X126306566Y-91477474D01*
X126108209Y-91519093D01*
X126103250Y-91521051D01*
X126103248Y-91521052D01*
X125898744Y-91601815D01*
X125898742Y-91601816D01*
X125893779Y-91603776D01*
X125889220Y-91606543D01*
X125889217Y-91606544D01*
X125794113Y-91664255D01*
X125696683Y-91723377D01*
X125692653Y-91726874D01*
X125599484Y-91807722D01*
X125522555Y-91874477D01*
X125519168Y-91878608D01*
X125379760Y-92048627D01*
X125379756Y-92048633D01*
X125376376Y-92052755D01*
X125358448Y-92084250D01*
X125307368Y-92133555D01*
X125237738Y-92147417D01*
X125171667Y-92121434D01*
X125144427Y-92092284D01*
X125117814Y-92052755D01*
X125062559Y-91970681D01*
X125003918Y-91909209D01*
X124974725Y-91878608D01*
X124903424Y-91803865D01*
X124718458Y-91666246D01*
X124713707Y-91663830D01*
X124713703Y-91663828D01*
X124595097Y-91603526D01*
X124512949Y-91561760D01*
X124507855Y-91560178D01*
X124507852Y-91560177D01*
X124297871Y-91494976D01*
X124292773Y-91493393D01*
X124287484Y-91492692D01*
X124069511Y-91463802D01*
X124069506Y-91463802D01*
X124064226Y-91463102D01*
X124058897Y-91463302D01*
X124058895Y-91463302D01*
X123949034Y-91467426D01*
X123833842Y-91471751D01*
X123828623Y-91472846D01*
X123806566Y-91477474D01*
X123608209Y-91519093D01*
X123603250Y-91521051D01*
X123603248Y-91521052D01*
X123398744Y-91601815D01*
X123398742Y-91601816D01*
X123393779Y-91603776D01*
X123389220Y-91606543D01*
X123389217Y-91606544D01*
X123294113Y-91664255D01*
X123196683Y-91723377D01*
X123192653Y-91726874D01*
X123099484Y-91807722D01*
X123022555Y-91874477D01*
X123019168Y-91878608D01*
X122879760Y-92048627D01*
X122879756Y-92048633D01*
X122876376Y-92052755D01*
X122858448Y-92084250D01*
X122807368Y-92133555D01*
X122737738Y-92147417D01*
X122671667Y-92121434D01*
X122644427Y-92092284D01*
X122617814Y-92052755D01*
X122562559Y-91970681D01*
X122503918Y-91909209D01*
X122474725Y-91878608D01*
X122403424Y-91803865D01*
X122218458Y-91666246D01*
X122213707Y-91663830D01*
X122213703Y-91663828D01*
X122095097Y-91603526D01*
X122012949Y-91561760D01*
X122007855Y-91560178D01*
X122007852Y-91560177D01*
X121797871Y-91494976D01*
X121792773Y-91493393D01*
X121787484Y-91492692D01*
X121569511Y-91463802D01*
X121569506Y-91463802D01*
X121564226Y-91463102D01*
X121558897Y-91463302D01*
X121558895Y-91463302D01*
X121449034Y-91467426D01*
X121333842Y-91471751D01*
X121328623Y-91472846D01*
X121306566Y-91477474D01*
X121108209Y-91519093D01*
X121103250Y-91521051D01*
X121103248Y-91521052D01*
X120898744Y-91601815D01*
X120898742Y-91601816D01*
X120893779Y-91603776D01*
X120889220Y-91606543D01*
X120889217Y-91606544D01*
X120794113Y-91664255D01*
X120696683Y-91723377D01*
X120692653Y-91726874D01*
X120599484Y-91807722D01*
X120522555Y-91874477D01*
X120519168Y-91878608D01*
X120379760Y-92048627D01*
X120379756Y-92048633D01*
X120376376Y-92052755D01*
X120358448Y-92084250D01*
X120307368Y-92133555D01*
X120237738Y-92147417D01*
X120171667Y-92121434D01*
X120144427Y-92092284D01*
X120117814Y-92052755D01*
X120062559Y-91970681D01*
X120003918Y-91909209D01*
X119974725Y-91878608D01*
X119903424Y-91803865D01*
X119718458Y-91666246D01*
X119713707Y-91663830D01*
X119713703Y-91663828D01*
X119595097Y-91603526D01*
X119512949Y-91561760D01*
X119507855Y-91560178D01*
X119507852Y-91560177D01*
X119297871Y-91494976D01*
X119292773Y-91493393D01*
X119287484Y-91492692D01*
X119069511Y-91463802D01*
X119069506Y-91463802D01*
X119064226Y-91463102D01*
X119058897Y-91463302D01*
X119058895Y-91463302D01*
X118949034Y-91467426D01*
X118833842Y-91471751D01*
X118828623Y-91472846D01*
X118806566Y-91477474D01*
X118608209Y-91519093D01*
X118603250Y-91521051D01*
X118603248Y-91521052D01*
X118398744Y-91601815D01*
X118398742Y-91601816D01*
X118393779Y-91603776D01*
X118389220Y-91606543D01*
X118389217Y-91606544D01*
X118294113Y-91664255D01*
X118196683Y-91723377D01*
X118192653Y-91726874D01*
X118099484Y-91807722D01*
X118022555Y-91874477D01*
X117993330Y-91910120D01*
X117934671Y-91950114D01*
X117863701Y-91952046D01*
X117802952Y-91915302D01*
X117788752Y-91896532D01*
X117702332Y-91756880D01*
X117698478Y-91750652D01*
X117573303Y-91625695D01*
X117542965Y-91606994D01*
X117428968Y-91536725D01*
X117428966Y-91536724D01*
X117422738Y-91532885D01*
X117309353Y-91495277D01*
X117261389Y-91479368D01*
X117261387Y-91479368D01*
X117254861Y-91477203D01*
X117248025Y-91476503D01*
X117248022Y-91476502D01*
X117204969Y-91472091D01*
X117150400Y-91466500D01*
X115849600Y-91466500D01*
X115846354Y-91466837D01*
X115846350Y-91466837D01*
X115750692Y-91476762D01*
X115750688Y-91476763D01*
X115743834Y-91477474D01*
X115737298Y-91479655D01*
X115737296Y-91479655D01*
X115605194Y-91523728D01*
X115576054Y-91533450D01*
X115425652Y-91626522D01*
X115300695Y-91751697D01*
X115296855Y-91757927D01*
X115296854Y-91757928D01*
X115218161Y-91885592D01*
X115207885Y-91902262D01*
X115186472Y-91966822D01*
X115156432Y-92057390D01*
X115152203Y-92070139D01*
X115151503Y-92076975D01*
X115151502Y-92076978D01*
X115149338Y-92098102D01*
X115141500Y-92174600D01*
X115141500Y-93725400D01*
X115141837Y-93728646D01*
X115141837Y-93728650D01*
X115150875Y-93815752D01*
X115152474Y-93831166D01*
X115154655Y-93837702D01*
X115154655Y-93837704D01*
X115204302Y-93986513D01*
X115206886Y-94057462D01*
X115170703Y-94118546D01*
X115107238Y-94150371D01*
X115084778Y-94152389D01*
X98311644Y-94152389D01*
X98301100Y-94151947D01*
X98282332Y-94150371D01*
X98251311Y-94147766D01*
X98173868Y-94158100D01*
X98170868Y-94158462D01*
X98129113Y-94162998D01*
X98099977Y-94166163D01*
X98099975Y-94166163D01*
X98093194Y-94166900D01*
X98086728Y-94169076D01*
X98084378Y-94169593D01*
X98083829Y-94169690D01*
X98083070Y-94169867D01*
X98082525Y-94170025D01*
X98080186Y-94170600D01*
X98073421Y-94171502D01*
X98000015Y-94198220D01*
X97997180Y-94199213D01*
X97923100Y-94224143D01*
X97917250Y-94227658D01*
X97915038Y-94228680D01*
X97914533Y-94228888D01*
X97913850Y-94229214D01*
X97913334Y-94229495D01*
X97911193Y-94230549D01*
X97904777Y-94232884D01*
X97899012Y-94236542D01*
X97899013Y-94236542D01*
X97838852Y-94274720D01*
X97836234Y-94276337D01*
X97778797Y-94310849D01*
X97769267Y-94316575D01*
X97764310Y-94321263D01*
X97762374Y-94322732D01*
X97761451Y-94323373D01*
X97757606Y-94326281D01*
X97753247Y-94329047D01*
X97749147Y-94332712D01*
X97697224Y-94384635D01*
X97694702Y-94387088D01*
X97676054Y-94404723D01*
X97638871Y-94439885D01*
X97635037Y-94445526D01*
X97630908Y-94450378D01*
X97624051Y-94457808D01*
X96447808Y-95634052D01*
X95461440Y-96620420D01*
X95399128Y-96654445D01*
X95328313Y-96649381D01*
X95271477Y-96606834D01*
X95246734Y-96541213D01*
X95244925Y-96518235D01*
X95244923Y-96518223D01*
X95244535Y-96513289D01*
X95229263Y-96449674D01*
X95193733Y-96301682D01*
X95189105Y-96282406D01*
X95186436Y-96275962D01*
X95100135Y-96067611D01*
X95100133Y-96067607D01*
X95098240Y-96063037D01*
X95035693Y-95960970D01*
X94976759Y-95864798D01*
X94976755Y-95864792D01*
X94974176Y-95860584D01*
X94819969Y-95680031D01*
X94639416Y-95525824D01*
X94635208Y-95523245D01*
X94635202Y-95523241D01*
X94441183Y-95404346D01*
X94436963Y-95401760D01*
X94432393Y-95399867D01*
X94432389Y-95399865D01*
X94222167Y-95312789D01*
X94222165Y-95312788D01*
X94217594Y-95310895D01*
X94137391Y-95291640D01*
X93991524Y-95256620D01*
X93991518Y-95256619D01*
X93986711Y-95255465D01*
X93750000Y-95236835D01*
X93513289Y-95255465D01*
X93508482Y-95256619D01*
X93508476Y-95256620D01*
X93362609Y-95291640D01*
X93282406Y-95310895D01*
X93277835Y-95312788D01*
X93277833Y-95312789D01*
X93067611Y-95399865D01*
X93067607Y-95399867D01*
X93063037Y-95401760D01*
X93058817Y-95404346D01*
X92864798Y-95523241D01*
X92864792Y-95523245D01*
X92860584Y-95525824D01*
X92680031Y-95680031D01*
X92525824Y-95860584D01*
X92523245Y-95864792D01*
X92523241Y-95864798D01*
X92464307Y-95960970D01*
X92401760Y-96063037D01*
X92399867Y-96067607D01*
X92399865Y-96067611D01*
X92313564Y-96275962D01*
X92310895Y-96282406D01*
X92306267Y-96301682D01*
X92270738Y-96449674D01*
X92255465Y-96513289D01*
X92236835Y-96750000D01*
X92255465Y-96986711D01*
X92310895Y-97217594D01*
X92401760Y-97436963D01*
X92404346Y-97441183D01*
X92523241Y-97635202D01*
X92523245Y-97635208D01*
X92525824Y-97639416D01*
X92680031Y-97819969D01*
X92860584Y-97974176D01*
X92864792Y-97976755D01*
X92864798Y-97976759D01*
X93058817Y-98095654D01*
X93063037Y-98098240D01*
X93067607Y-98100133D01*
X93067611Y-98100135D01*
X93277833Y-98187211D01*
X93282406Y-98189105D01*
X93351404Y-98205670D01*
X93508476Y-98243380D01*
X93508482Y-98243381D01*
X93513289Y-98244535D01*
X93518226Y-98244924D01*
X93518235Y-98244925D01*
X93541213Y-98246734D01*
X93607554Y-98272020D01*
X93649693Y-98329159D01*
X93654251Y-98400009D01*
X93620420Y-98461440D01*
X93273921Y-98807939D01*
X93211609Y-98841965D01*
X93140794Y-98836900D01*
X93110768Y-98820782D01*
X92956752Y-98708882D01*
X92950724Y-98706198D01*
X92950722Y-98706197D01*
X92788319Y-98633891D01*
X92788318Y-98633891D01*
X92782288Y-98631206D01*
X92688888Y-98611353D01*
X92601944Y-98592872D01*
X92601939Y-98592872D01*
X92595487Y-98591500D01*
X92404513Y-98591500D01*
X92398061Y-98592872D01*
X92398056Y-98592872D01*
X92311112Y-98611353D01*
X92217712Y-98631206D01*
X92211682Y-98633891D01*
X92211681Y-98633891D01*
X92049278Y-98706197D01*
X92049276Y-98706198D01*
X92043248Y-98708882D01*
X91888747Y-98821134D01*
X91884326Y-98826044D01*
X91884325Y-98826045D01*
X91817928Y-98899787D01*
X91760960Y-98963056D01*
X91665473Y-99128444D01*
X91606458Y-99310072D01*
X91605768Y-99316633D01*
X91605768Y-99316635D01*
X91603144Y-99341604D01*
X91586496Y-99500000D01*
X81508000Y-99500000D01*
X81508000Y-96547386D01*
X82317759Y-96547386D01*
X82325216Y-96557753D01*
X82564935Y-96751874D01*
X82570272Y-96755751D01*
X82890685Y-96963830D01*
X82896394Y-96967127D01*
X83236811Y-97140578D01*
X83242836Y-97143260D01*
X83599502Y-97280171D01*
X83605784Y-97282212D01*
X83974816Y-97381094D01*
X83981266Y-97382465D01*
X84358629Y-97442234D01*
X84365167Y-97442920D01*
X84746699Y-97462916D01*
X84753301Y-97462916D01*
X85134833Y-97442920D01*
X85141371Y-97442234D01*
X85518734Y-97382465D01*
X85525184Y-97381094D01*
X85894216Y-97282212D01*
X85900498Y-97280171D01*
X86257164Y-97143260D01*
X86263189Y-97140578D01*
X86603606Y-96967127D01*
X86609315Y-96963830D01*
X86929728Y-96755751D01*
X86935065Y-96751874D01*
X87173835Y-96558522D01*
X87182300Y-96546267D01*
X87175966Y-96535176D01*
X84762812Y-94122022D01*
X84748868Y-94114408D01*
X84747035Y-94114539D01*
X84740420Y-94118790D01*
X82324900Y-96534310D01*
X82317759Y-96547386D01*
X81508000Y-96547386D01*
X81508000Y-95991306D01*
X81528002Y-95923185D01*
X81581658Y-95876692D01*
X81651932Y-95866588D01*
X81716512Y-95896082D01*
X81739674Y-95922683D01*
X81744257Y-95929740D01*
X81748123Y-95935061D01*
X81941478Y-96173835D01*
X81953733Y-96182300D01*
X81964824Y-96175966D01*
X84377978Y-93762812D01*
X84384356Y-93751132D01*
X85114408Y-93751132D01*
X85114539Y-93752965D01*
X85118790Y-93759580D01*
X87534310Y-96175100D01*
X87547386Y-96182241D01*
X87557753Y-96174784D01*
X87751877Y-95935061D01*
X87755747Y-95929735D01*
X87963831Y-95609313D01*
X87967128Y-95603603D01*
X88140578Y-95263189D01*
X88143260Y-95257164D01*
X88280171Y-94900498D01*
X88282212Y-94894216D01*
X88381094Y-94525184D01*
X88382465Y-94518734D01*
X88442234Y-94141371D01*
X88442920Y-94134833D01*
X88462916Y-93753301D01*
X88462916Y-93746699D01*
X88449078Y-93482670D01*
X92882160Y-93482670D01*
X92887887Y-93490320D01*
X93059042Y-93595205D01*
X93067837Y-93599687D01*
X93277988Y-93686734D01*
X93287373Y-93689783D01*
X93508554Y-93742885D01*
X93518301Y-93744428D01*
X93745070Y-93762275D01*
X93754930Y-93762275D01*
X93981699Y-93744428D01*
X93991446Y-93742885D01*
X94212627Y-93689783D01*
X94222012Y-93686734D01*
X94432163Y-93599687D01*
X94440958Y-93595205D01*
X94608445Y-93492568D01*
X94617400Y-93482670D01*
X99382160Y-93482670D01*
X99387887Y-93490320D01*
X99559042Y-93595205D01*
X99567837Y-93599687D01*
X99777988Y-93686734D01*
X99787373Y-93689783D01*
X100008554Y-93742885D01*
X100018301Y-93744428D01*
X100245070Y-93762275D01*
X100254930Y-93762275D01*
X100481699Y-93744428D01*
X100491446Y-93742885D01*
X100712627Y-93689783D01*
X100722012Y-93686734D01*
X100932163Y-93599687D01*
X100940958Y-93595205D01*
X101108445Y-93492568D01*
X101117400Y-93482670D01*
X103382160Y-93482670D01*
X103387887Y-93490320D01*
X103559042Y-93595205D01*
X103567837Y-93599687D01*
X103777988Y-93686734D01*
X103787373Y-93689783D01*
X104008554Y-93742885D01*
X104018301Y-93744428D01*
X104245070Y-93762275D01*
X104254930Y-93762275D01*
X104481699Y-93744428D01*
X104491446Y-93742885D01*
X104712627Y-93689783D01*
X104722012Y-93686734D01*
X104932163Y-93599687D01*
X104940958Y-93595205D01*
X105108445Y-93492568D01*
X105117400Y-93482670D01*
X109882160Y-93482670D01*
X109887887Y-93490320D01*
X110059042Y-93595205D01*
X110067837Y-93599687D01*
X110277988Y-93686734D01*
X110287373Y-93689783D01*
X110508554Y-93742885D01*
X110518301Y-93744428D01*
X110745070Y-93762275D01*
X110754930Y-93762275D01*
X110981699Y-93744428D01*
X110991446Y-93742885D01*
X111212627Y-93689783D01*
X111222012Y-93686734D01*
X111432163Y-93599687D01*
X111440958Y-93595205D01*
X111608445Y-93492568D01*
X111617907Y-93482110D01*
X111614124Y-93473334D01*
X110762812Y-92622022D01*
X110748868Y-92614408D01*
X110747035Y-92614539D01*
X110740420Y-92618790D01*
X109888920Y-93470290D01*
X109882160Y-93482670D01*
X105117400Y-93482670D01*
X105117907Y-93482110D01*
X105114124Y-93473334D01*
X104262812Y-92622022D01*
X104248868Y-92614408D01*
X104247035Y-92614539D01*
X104240420Y-92618790D01*
X103388920Y-93470290D01*
X103382160Y-93482670D01*
X101117400Y-93482670D01*
X101117907Y-93482110D01*
X101114124Y-93473334D01*
X100262812Y-92622022D01*
X100248868Y-92614408D01*
X100247035Y-92614539D01*
X100240420Y-92618790D01*
X99388920Y-93470290D01*
X99382160Y-93482670D01*
X94617400Y-93482670D01*
X94617907Y-93482110D01*
X94614124Y-93473334D01*
X93762812Y-92622022D01*
X93748868Y-92614408D01*
X93747035Y-92614539D01*
X93740420Y-92618790D01*
X92888920Y-93470290D01*
X92882160Y-93482670D01*
X88449078Y-93482670D01*
X88442920Y-93365167D01*
X88442234Y-93358629D01*
X88382465Y-92981266D01*
X88381094Y-92974816D01*
X88282212Y-92605784D01*
X88280171Y-92599502D01*
X88147902Y-92254930D01*
X92237725Y-92254930D01*
X92255572Y-92481699D01*
X92257115Y-92491446D01*
X92310217Y-92712627D01*
X92313266Y-92722012D01*
X92400313Y-92932163D01*
X92404795Y-92940958D01*
X92507432Y-93108445D01*
X92517890Y-93117907D01*
X92526666Y-93114124D01*
X93377978Y-92262812D01*
X93384356Y-92251132D01*
X94114408Y-92251132D01*
X94114539Y-92252965D01*
X94118790Y-92259580D01*
X94970290Y-93111080D01*
X94982670Y-93117840D01*
X94990320Y-93112113D01*
X95095205Y-92940958D01*
X95099687Y-92932163D01*
X95186734Y-92722012D01*
X95189783Y-92712627D01*
X95242885Y-92491446D01*
X95244428Y-92481699D01*
X95262275Y-92254930D01*
X98737725Y-92254930D01*
X98755572Y-92481699D01*
X98757115Y-92491446D01*
X98810217Y-92712627D01*
X98813266Y-92722012D01*
X98900313Y-92932163D01*
X98904795Y-92940958D01*
X99007432Y-93108445D01*
X99017890Y-93117907D01*
X99026666Y-93114124D01*
X99877978Y-92262812D01*
X99884356Y-92251132D01*
X100614408Y-92251132D01*
X100614539Y-92252965D01*
X100618790Y-92259580D01*
X101470290Y-93111080D01*
X101482670Y-93117840D01*
X101490320Y-93112113D01*
X101595205Y-92940958D01*
X101599687Y-92932163D01*
X101686734Y-92722012D01*
X101689783Y-92712627D01*
X101742885Y-92491446D01*
X101744428Y-92481699D01*
X101762275Y-92254930D01*
X102737725Y-92254930D01*
X102755572Y-92481699D01*
X102757115Y-92491446D01*
X102810217Y-92712627D01*
X102813266Y-92722012D01*
X102900313Y-92932163D01*
X102904795Y-92940958D01*
X103007432Y-93108445D01*
X103017890Y-93117907D01*
X103026666Y-93114124D01*
X103877978Y-92262812D01*
X103884356Y-92251132D01*
X104614408Y-92251132D01*
X104614539Y-92252965D01*
X104618790Y-92259580D01*
X105470290Y-93111080D01*
X105482670Y-93117840D01*
X105490320Y-93112113D01*
X105595205Y-92940958D01*
X105599687Y-92932163D01*
X105686734Y-92722012D01*
X105689783Y-92712627D01*
X105742885Y-92491446D01*
X105744428Y-92481699D01*
X105762275Y-92254930D01*
X109237725Y-92254930D01*
X109255572Y-92481699D01*
X109257115Y-92491446D01*
X109310217Y-92712627D01*
X109313266Y-92722012D01*
X109400313Y-92932163D01*
X109404795Y-92940958D01*
X109507432Y-93108445D01*
X109517890Y-93117907D01*
X109526666Y-93114124D01*
X110377978Y-92262812D01*
X110384356Y-92251132D01*
X111114408Y-92251132D01*
X111114539Y-92252965D01*
X111118790Y-92259580D01*
X111970290Y-93111080D01*
X111982670Y-93117840D01*
X111990320Y-93112113D01*
X112095205Y-92940958D01*
X112099687Y-92932163D01*
X112186734Y-92722012D01*
X112189783Y-92712627D01*
X112242885Y-92491446D01*
X112244428Y-92481699D01*
X112262275Y-92254930D01*
X112262275Y-92245070D01*
X112244428Y-92018301D01*
X112242885Y-92008554D01*
X112189783Y-91787373D01*
X112186734Y-91777988D01*
X112099687Y-91567837D01*
X112095205Y-91559042D01*
X111992568Y-91391555D01*
X111982110Y-91382093D01*
X111973334Y-91385876D01*
X111122022Y-92237188D01*
X111114408Y-92251132D01*
X110384356Y-92251132D01*
X110385592Y-92248868D01*
X110385461Y-92247035D01*
X110381210Y-92240420D01*
X109529710Y-91388920D01*
X109517330Y-91382160D01*
X109509680Y-91387887D01*
X109404795Y-91559042D01*
X109400313Y-91567837D01*
X109313266Y-91777988D01*
X109310217Y-91787373D01*
X109257115Y-92008554D01*
X109255572Y-92018301D01*
X109237725Y-92245070D01*
X109237725Y-92254930D01*
X105762275Y-92254930D01*
X105762275Y-92245070D01*
X105744428Y-92018301D01*
X105742885Y-92008554D01*
X105689783Y-91787373D01*
X105686734Y-91777988D01*
X105599687Y-91567837D01*
X105595205Y-91559042D01*
X105492568Y-91391555D01*
X105482110Y-91382093D01*
X105473334Y-91385876D01*
X104622022Y-92237188D01*
X104614408Y-92251132D01*
X103884356Y-92251132D01*
X103885592Y-92248868D01*
X103885461Y-92247035D01*
X103881210Y-92240420D01*
X103029710Y-91388920D01*
X103017330Y-91382160D01*
X103009680Y-91387887D01*
X102904795Y-91559042D01*
X102900313Y-91567837D01*
X102813266Y-91777988D01*
X102810217Y-91787373D01*
X102757115Y-92008554D01*
X102755572Y-92018301D01*
X102737725Y-92245070D01*
X102737725Y-92254930D01*
X101762275Y-92254930D01*
X101762275Y-92245070D01*
X101744428Y-92018301D01*
X101742885Y-92008554D01*
X101689783Y-91787373D01*
X101686734Y-91777988D01*
X101599687Y-91567837D01*
X101595205Y-91559042D01*
X101492568Y-91391555D01*
X101482110Y-91382093D01*
X101473334Y-91385876D01*
X100622022Y-92237188D01*
X100614408Y-92251132D01*
X99884356Y-92251132D01*
X99885592Y-92248868D01*
X99885461Y-92247035D01*
X99881210Y-92240420D01*
X99029710Y-91388920D01*
X99017330Y-91382160D01*
X99009680Y-91387887D01*
X98904795Y-91559042D01*
X98900313Y-91567837D01*
X98813266Y-91777988D01*
X98810217Y-91787373D01*
X98757115Y-92008554D01*
X98755572Y-92018301D01*
X98737725Y-92245070D01*
X98737725Y-92254930D01*
X95262275Y-92254930D01*
X95262275Y-92245070D01*
X95244428Y-92018301D01*
X95242885Y-92008554D01*
X95189783Y-91787373D01*
X95186734Y-91777988D01*
X95099687Y-91567837D01*
X95095205Y-91559042D01*
X94992568Y-91391555D01*
X94982110Y-91382093D01*
X94973334Y-91385876D01*
X94122022Y-92237188D01*
X94114408Y-92251132D01*
X93384356Y-92251132D01*
X93385592Y-92248868D01*
X93385461Y-92247035D01*
X93381210Y-92240420D01*
X92529710Y-91388920D01*
X92517330Y-91382160D01*
X92509680Y-91387887D01*
X92404795Y-91559042D01*
X92400313Y-91567837D01*
X92313266Y-91777988D01*
X92310217Y-91787373D01*
X92257115Y-92008554D01*
X92255572Y-92018301D01*
X92237725Y-92245070D01*
X92237725Y-92254930D01*
X88147902Y-92254930D01*
X88143260Y-92242836D01*
X88140578Y-92236811D01*
X87967128Y-91896397D01*
X87963831Y-91890687D01*
X87755747Y-91570265D01*
X87751877Y-91564939D01*
X87558522Y-91326165D01*
X87546267Y-91317700D01*
X87535176Y-91324034D01*
X85122022Y-93737188D01*
X85114408Y-93751132D01*
X84384356Y-93751132D01*
X84385592Y-93748868D01*
X84385461Y-93747035D01*
X84381210Y-93740420D01*
X81965690Y-91324900D01*
X81952614Y-91317759D01*
X81942247Y-91325216D01*
X81748123Y-91564939D01*
X81744257Y-91570260D01*
X81739674Y-91577317D01*
X81685798Y-91623555D01*
X81615477Y-91633325D01*
X81551037Y-91603526D01*
X81512937Y-91543618D01*
X81508000Y-91508694D01*
X81508000Y-90803207D01*
X81509746Y-90782303D01*
X81512264Y-90767335D01*
X81513071Y-90762539D01*
X81513224Y-90750000D01*
X81512533Y-90745178D01*
X81512348Y-90742334D01*
X81513633Y-90714434D01*
X81516722Y-90694930D01*
X81528904Y-90657437D01*
X81545159Y-90625535D01*
X81568331Y-90593643D01*
X81593643Y-90568331D01*
X81625535Y-90545159D01*
X81657437Y-90528904D01*
X81694930Y-90516722D01*
X81716057Y-90513376D01*
X81735766Y-90511946D01*
X81743730Y-90513186D01*
X81775252Y-90509064D01*
X81791589Y-90508000D01*
X82508694Y-90508000D01*
X82576815Y-90528002D01*
G37*
%TD.AperFunction*%
%TD*%
M02*
