M48
INCH,TZ
T1C0.0157
T2C0.0374
T3C0.0433
T4C0.1260
%
G90
G05
T1
X34547Y-42520
X36024Y-42520
X36417Y-39173
X36614Y-42520
X36811Y-41732
X37795Y-40748
X37795Y-41535
X37874Y-44823
X37874Y-45354
X39587Y-44783
X39587Y-45354
X40059Y-42323
X41831Y-44783
X42520Y-45571
X44193Y-44783
X44587Y-41634
X44640Y-37760
X45177Y-41732
X45669Y-41831
X45866Y-43996
X46654Y-39764
X46850Y-37760
X46949Y-43406
X48031Y-39665
X49114Y-40354
X49114Y-43012
X50295Y-40354
X50295Y-43012
X50984Y-44193
X51575Y-41732
X51575Y-42224
X51575Y-44193
X51969Y-40748
X51969Y-41224
T2
X45866Y-36594
X45866Y-45846
X46850Y-36594
X46850Y-45846
X47835Y-36594
X47835Y-45846
X48819Y-36594
X48819Y-45846
X49803Y-36594
X49803Y-45846
X50787Y-36594
X50787Y-45846
T3
X32480Y-40089
X32480Y-42589
X36909Y-36319
X36909Y-38091
X39469Y-36319
X39469Y-38091
X41043Y-36319
X41043Y-38091
X43602Y-36319
X43602Y-38091
T4
X33366Y-36909
X33366Y-45768
X54035Y-36909
X54035Y-45768
T0
M30
