%TF.GenerationSoftware,KiCad,Pcbnew,(6.0.0)*%
%TF.CreationDate,2022-05-09T00:40:02+05:30*%
%TF.ProjectId,usb-micro-programmer,7573622d-6d69-4637-926f-2d70726f6772,rev?*%
%TF.SameCoordinates,Original*%
%TF.FileFunction,Copper,L1,Top*%
%TF.FilePolarity,Positive*%
%FSLAX46Y46*%
G04 Gerber Fmt 4.6, Leading zero omitted, Abs format (unit mm)*
G04 Created by KiCad (PCBNEW (6.0.0)) date 2022-05-09 00:40:02*
%MOMM*%
%LPD*%
G01*
G04 APERTURE LIST*
G04 Aperture macros list*
%AMRoundRect*
0 Rectangle with rounded corners*
0 $1 Rounding radius*
0 $2 $3 $4 $5 $6 $7 $8 $9 X,Y pos of 4 corners*
0 Add a 4 corners polygon primitive as box body*
4,1,4,$2,$3,$4,$5,$6,$7,$8,$9,$2,$3,0*
0 Add four circle primitives for the rounded corners*
1,1,$1+$1,$2,$3*
1,1,$1+$1,$4,$5*
1,1,$1+$1,$6,$7*
1,1,$1+$1,$8,$9*
0 Add four rect primitives between the rounded corners*
20,1,$1+$1,$2,$3,$4,$5,0*
20,1,$1+$1,$4,$5,$6,$7,0*
20,1,$1+$1,$6,$7,$8,$9,0*
20,1,$1+$1,$8,$9,$2,$3,0*%
G04 Aperture macros list end*
%TA.AperFunction,SMDPad,CuDef*%
%ADD10R,1.700000X2.500000*%
%TD*%
%TA.AperFunction,SMDPad,CuDef*%
%ADD11RoundRect,0.250000X0.325000X0.450000X-0.325000X0.450000X-0.325000X-0.450000X0.325000X-0.450000X0*%
%TD*%
%TA.AperFunction,SMDPad,CuDef*%
%ADD12RoundRect,0.250000X0.337500X0.475000X-0.337500X0.475000X-0.337500X-0.475000X0.337500X-0.475000X0*%
%TD*%
%TA.AperFunction,SMDPad,CuDef*%
%ADD13R,1.000000X0.700000*%
%TD*%
%TA.AperFunction,SMDPad,CuDef*%
%ADD14R,0.600000X0.700000*%
%TD*%
%TA.AperFunction,SMDPad,CuDef*%
%ADD15RoundRect,0.150000X0.150000X-0.825000X0.150000X0.825000X-0.150000X0.825000X-0.150000X-0.825000X0*%
%TD*%
%TA.AperFunction,ComponentPad*%
%ADD16C,2.000000*%
%TD*%
%TA.AperFunction,SMDPad,CuDef*%
%ADD17RoundRect,0.150000X0.587500X0.150000X-0.587500X0.150000X-0.587500X-0.150000X0.587500X-0.150000X0*%
%TD*%
%TA.AperFunction,SMDPad,CuDef*%
%ADD18C,0.500000*%
%TD*%
%TA.AperFunction,SMDPad,CuDef*%
%ADD19RoundRect,0.250000X-0.337500X-0.475000X0.337500X-0.475000X0.337500X0.475000X-0.337500X0.475000X0*%
%TD*%
%TA.AperFunction,SMDPad,CuDef*%
%ADD20RoundRect,0.150000X0.625000X-0.150000X0.625000X0.150000X-0.625000X0.150000X-0.625000X-0.150000X0*%
%TD*%
%TA.AperFunction,SMDPad,CuDef*%
%ADD21RoundRect,0.250000X0.650000X-0.350000X0.650000X0.350000X-0.650000X0.350000X-0.650000X-0.350000X0*%
%TD*%
%TA.AperFunction,ComponentPad*%
%ADD22RoundRect,0.250000X-0.600000X-0.725000X0.600000X-0.725000X0.600000X0.725000X-0.600000X0.725000X0*%
%TD*%
%TA.AperFunction,ComponentPad*%
%ADD23O,1.700000X1.950000*%
%TD*%
%TA.AperFunction,ComponentPad*%
%ADD24C,6.400000*%
%TD*%
%TA.AperFunction,SMDPad,CuDef*%
%ADD25RoundRect,0.250000X0.350000X0.450000X-0.350000X0.450000X-0.350000X-0.450000X0.350000X-0.450000X0*%
%TD*%
%TA.AperFunction,SMDPad,CuDef*%
%ADD26RoundRect,0.250000X0.475000X-0.337500X0.475000X0.337500X-0.475000X0.337500X-0.475000X-0.337500X0*%
%TD*%
%TA.AperFunction,SMDPad,CuDef*%
%ADD27RoundRect,0.250000X-0.475000X0.337500X-0.475000X-0.337500X0.475000X-0.337500X0.475000X0.337500X0*%
%TD*%
%TA.AperFunction,SMDPad,CuDef*%
%ADD28R,2.100000X1.800000*%
%TD*%
%TA.AperFunction,SMDPad,CuDef*%
%ADD29R,1.900000X1.900000*%
%TD*%
%TA.AperFunction,ComponentPad*%
%ADD30O,1.600000X1.300000*%
%TD*%
%TA.AperFunction,SMDPad,CuDef*%
%ADD31R,1.400000X1.600000*%
%TD*%
%TA.AperFunction,SMDPad,CuDef*%
%ADD32R,1.350000X0.400000*%
%TD*%
%TA.AperFunction,SMDPad,CuDef*%
%ADD33R,1.500000X2.000000*%
%TD*%
%TA.AperFunction,SMDPad,CuDef*%
%ADD34R,3.800000X2.000000*%
%TD*%
%TA.AperFunction,SMDPad,CuDef*%
%ADD35RoundRect,0.250000X-0.325000X-0.450000X0.325000X-0.450000X0.325000X0.450000X-0.325000X0.450000X0*%
%TD*%
%TA.AperFunction,SMDPad,CuDef*%
%ADD36RoundRect,0.250001X-0.924999X0.499999X-0.924999X-0.499999X0.924999X-0.499999X0.924999X0.499999X0*%
%TD*%
%TA.AperFunction,SMDPad,CuDef*%
%ADD37RoundRect,0.250000X-0.350000X-0.450000X0.350000X-0.450000X0.350000X0.450000X-0.350000X0.450000X0*%
%TD*%
%TA.AperFunction,ViaPad*%
%ADD38C,0.800000*%
%TD*%
%TA.AperFunction,Conductor*%
%ADD39C,0.508000*%
%TD*%
%TA.AperFunction,Conductor*%
%ADD40C,0.381000*%
%TD*%
%TA.AperFunction,Conductor*%
%ADD41C,0.457200*%
%TD*%
%TA.AperFunction,Conductor*%
%ADD42C,0.635000*%
%TD*%
G04 APERTURE END LIST*
D10*
%TO.P,D2,A*%
%TO.N,V_USB*%
X90250000Y-95250000D03*
%TO.P,D2,K*%
%TO.N,+5V*%
X90250000Y-99250000D03*
%TD*%
D11*
%TO.P,L2,1,K*%
%TO.N,/TXD*%
X130000000Y-97750000D03*
%TO.P,L2,2,A*%
%TO.N,Net-(L2-Pad2)*%
X127950000Y-97750000D03*
%TD*%
%TO.P,F1,1*%
%TO.N,V_USB*%
X87025000Y-98750000D03*
%TO.P,F1,2*%
%TO.N,Net-(C2-Pad1)*%
X84975000Y-98750000D03*
%TD*%
%TO.P,L1,1,K*%
%TO.N,/RXD*%
X130000000Y-100500000D03*
%TO.P,L1,2,A*%
%TO.N,Net-(L1-Pad2)*%
X127950000Y-100500000D03*
%TD*%
D12*
%TO.P,C3,1,1*%
%TO.N,Net-(C3-Pad1)*%
X128000000Y-112000000D03*
%TO.P,C3,2,2*%
%TO.N,GND*%
X125925000Y-112000000D03*
%TD*%
D13*
%TO.P,D1,1,A*%
%TO.N,GND*%
X90750000Y-104000000D03*
D14*
%TO.P,D1,2,K*%
%TO.N,Net-(C2-Pad1)*%
X89050000Y-104000000D03*
%TO.P,D1,3,K*%
%TO.N,/D+*%
X89050000Y-106000000D03*
%TO.P,D1,4,K*%
%TO.N,/D-*%
X90950000Y-106000000D03*
%TD*%
D15*
%TO.P,U1,1,GND*%
%TO.N,GND*%
X113055000Y-108225000D03*
%TO.P,U1,2,TXD*%
%TO.N,/TXD*%
X114325000Y-108225000D03*
%TO.P,U1,3,RXD*%
%TO.N,/RXD*%
X115595000Y-108225000D03*
%TO.P,U1,4,V3*%
%TO.N,Net-(C5-Pad1)*%
X116865000Y-108225000D03*
%TO.P,U1,5,UD+*%
%TO.N,/D+*%
X118135000Y-108225000D03*
%TO.P,U1,6,UD-*%
%TO.N,/D-*%
X119405000Y-108225000D03*
%TO.P,U1,7,XI*%
%TO.N,Net-(C1-Pad1)*%
X120675000Y-108225000D03*
%TO.P,U1,8,XO*%
%TO.N,Net-(C3-Pad1)*%
X121945000Y-108225000D03*
%TO.P,U1,9,~{CTS}*%
%TO.N,/~{CTS}*%
X121945000Y-103275000D03*
%TO.P,U1,10,~{DSR}*%
%TO.N,unconnected-(U1-Pad10)*%
X120675000Y-103275000D03*
%TO.P,U1,11,~{RI}*%
%TO.N,unconnected-(U1-Pad11)*%
X119405000Y-103275000D03*
%TO.P,U1,12,~{DCD}*%
%TO.N,unconnected-(U1-Pad12)*%
X118135000Y-103275000D03*
%TO.P,U1,13,~{DTR}*%
%TO.N,/~{DTR}*%
X116865000Y-103275000D03*
%TO.P,U1,14,~{RTS}*%
%TO.N,/~{RTS}*%
X115595000Y-103275000D03*
%TO.P,U1,15,R232*%
%TO.N,unconnected-(U1-Pad15)*%
X114325000Y-103275000D03*
%TO.P,U1,16,VCC*%
%TO.N,+3V3*%
X113055000Y-103275000D03*
%TD*%
D16*
%TO.P,SW_IO0,1,1*%
%TO.N,GND*%
X104250000Y-92250000D03*
X110750000Y-92250000D03*
%TO.P,SW_IO0,2,2*%
%TO.N,/IO0*%
X104250000Y-96750000D03*
X110750000Y-96750000D03*
%TD*%
D17*
%TO.P,Q1,1,B*%
%TO.N,Net-(Q1-Pad1)*%
X105687500Y-109200000D03*
%TO.P,Q1,2,E*%
%TO.N,/~{RTS}*%
X105687500Y-107300000D03*
%TO.P,Q1,3,C*%
%TO.N,/EN*%
X103812500Y-108250000D03*
%TD*%
D18*
%TO.P,FID2,*%
%TO.N,*%
X109250000Y-113750000D03*
%TD*%
D19*
%TO.P,C8,1,1*%
%TO.N,GND*%
X98250000Y-101250000D03*
%TO.P,C8,2,2*%
%TO.N,/EN*%
X100325000Y-101250000D03*
%TD*%
D20*
%TO.P,J2,1,1*%
%TO.N,+3V3*%
X133500000Y-107500000D03*
%TO.P,J2,2,2*%
%TO.N,GND*%
X133500000Y-106500000D03*
%TO.P,J2,3,3*%
%TO.N,/RXD*%
X133500000Y-105500000D03*
%TO.P,J2,4,4*%
%TO.N,/TXD*%
X133500000Y-104500000D03*
%TO.P,J2,5,5*%
%TO.N,/IO0*%
X133500000Y-103500000D03*
%TO.P,J2,6,6*%
%TO.N,/EN*%
X133500000Y-102500000D03*
D21*
%TO.P,J2,MP*%
%TO.N,N/C*%
X137375000Y-101200000D03*
X137375000Y-108800000D03*
%TD*%
D22*
%TO.P,J4,1,1*%
%TO.N,/~{DTR}*%
X116500000Y-92950000D03*
D23*
%TO.P,J4,2,2*%
%TO.N,/RXD*%
X119000000Y-92950000D03*
%TO.P,J4,3,3*%
%TO.N,/TXD*%
X121500000Y-92950000D03*
%TO.P,J4,4,4*%
%TO.N,+5V*%
X124000000Y-92950000D03*
%TO.P,J4,5,5*%
%TO.N,/~{CTS}*%
X126500000Y-92950000D03*
%TO.P,J4,6,6*%
%TO.N,GND*%
X129000000Y-92950000D03*
%TD*%
D18*
%TO.P,FID1,*%
%TO.N,*%
X90250000Y-92500000D03*
%TD*%
%TO.P,FID3,*%
%TO.N,*%
X137250000Y-98750000D03*
%TD*%
D24*
%TO.P,H3,1,1*%
%TO.N,GND*%
X137250000Y-116250000D03*
%TD*%
%TO.P,H2,1,1*%
%TO.N,GND*%
X84750000Y-116250000D03*
%TD*%
D25*
%TO.P,R1,1,1*%
%TO.N,Net-(L1-Pad2)*%
X125250000Y-100500000D03*
%TO.P,R1,2,2*%
%TO.N,+3V3*%
X123250000Y-100500000D03*
%TD*%
D12*
%TO.P,C5,1,1*%
%TO.N,Net-(C5-Pad1)*%
X114787500Y-112000000D03*
%TO.P,C5,2,2*%
%TO.N,GND*%
X112712500Y-112000000D03*
%TD*%
D19*
%TO.P,C1,1,1*%
%TO.N,Net-(C1-Pad1)*%
X120675000Y-112000000D03*
%TO.P,C1,2,2*%
%TO.N,GND*%
X122750000Y-112000000D03*
%TD*%
D26*
%TO.P,C4,1,1*%
%TO.N,+3V3*%
X120000000Y-99787500D03*
%TO.P,C4,2,2*%
%TO.N,GND*%
X120000000Y-97712500D03*
%TD*%
D27*
%TO.P,C9,1,1*%
%TO.N,GND*%
X115250000Y-97712500D03*
%TO.P,C9,2,2*%
%TO.N,/IO0*%
X115250000Y-99787500D03*
%TD*%
D24*
%TO.P,H4,1,1*%
%TO.N,GND*%
X137250000Y-93750000D03*
%TD*%
D22*
%TO.P,J3,1,1*%
%TO.N,+3V3*%
X116500000Y-116450000D03*
D23*
%TO.P,J3,2,2*%
%TO.N,GND*%
X119000000Y-116450000D03*
%TO.P,J3,3,3*%
%TO.N,/RXD*%
X121500000Y-116450000D03*
%TO.P,J3,4,4*%
%TO.N,/TXD*%
X124000000Y-116450000D03*
%TO.P,J3,5,5*%
%TO.N,/IO0*%
X126500000Y-116450000D03*
%TO.P,J3,6,6*%
%TO.N,/EN*%
X129000000Y-116450000D03*
%TD*%
D24*
%TO.P,H1,1,1*%
%TO.N,GND*%
X84750000Y-93750000D03*
%TD*%
D25*
%TO.P,R2,1,1*%
%TO.N,Net-(L2-Pad2)*%
X125250000Y-97750000D03*
%TO.P,R2,2,2*%
%TO.N,+3V3*%
X123250000Y-97750000D03*
%TD*%
D16*
%TO.P,SW_EN,1,1*%
%TO.N,GND*%
X100250000Y-92250000D03*
X93750000Y-92250000D03*
%TO.P,SW_EN,2,2*%
%TO.N,/EN*%
X93750000Y-96750000D03*
X100250000Y-96750000D03*
%TD*%
D26*
%TO.P,C7,1,1*%
%TO.N,+3V3*%
X104250000Y-115287500D03*
%TO.P,C7,2,2*%
%TO.N,GND*%
X104250000Y-113212500D03*
%TD*%
D28*
%TO.P,Y1,1,1*%
%TO.N,Net-(C1-Pad1)*%
X124800000Y-107150000D03*
%TO.P,Y1,2,2*%
%TO.N,GND*%
X127700000Y-107150000D03*
%TO.P,Y1,3,3*%
%TO.N,Net-(C3-Pad1)*%
X127700000Y-104850000D03*
%TO.P,Y1,4,4*%
%TO.N,GND*%
X124800000Y-104850000D03*
%TD*%
D29*
%TO.P,J1,6,Shield*%
%TO.N,GND*%
X82499987Y-103799993D03*
D30*
X82499987Y-108174993D03*
X82499987Y-101824993D03*
D31*
X84949987Y-101799993D03*
D29*
X82499987Y-106199993D03*
D31*
X84949987Y-108199993D03*
D32*
%TO.P,J1,5,GND*%
X85174987Y-106299993D03*
%TO.P,J1,4,ID*%
%TO.N,unconnected-(J1-Pad4)*%
X85174987Y-105649993D03*
%TO.P,J1,3,D+*%
%TO.N,/D+*%
X85174987Y-104999993D03*
%TO.P,J1,2,D-*%
%TO.N,/D-*%
X85174987Y-104349993D03*
%TO.P,J1,1,VBUS*%
%TO.N,Net-(C2-Pad1)*%
X85174987Y-103699993D03*
%TD*%
D33*
%TO.P,U2,1,GND*%
%TO.N,GND*%
X100800000Y-111100000D03*
%TO.P,U2,2,VO*%
%TO.N,+3V3*%
X98500000Y-111100000D03*
D34*
X98500000Y-117400000D03*
D33*
%TO.P,U2,3,VI*%
%TO.N,+5V*%
X96200000Y-111100000D03*
%TD*%
D35*
%TO.P,L3,1,K*%
%TO.N,GND*%
X84700000Y-111250000D03*
%TO.P,L3,2,A*%
%TO.N,Net-(L3-Pad2)*%
X86750000Y-111250000D03*
%TD*%
D25*
%TO.P,R5,1,1*%
%TO.N,/~{RTS}*%
X110750000Y-101000000D03*
%TO.P,R5,2,2*%
%TO.N,Net-(Q2-Pad1)*%
X108750000Y-101000000D03*
%TD*%
D17*
%TO.P,Q2,1,B*%
%TO.N,Net-(Q2-Pad1)*%
X105687500Y-104450000D03*
%TO.P,Q2,2,E*%
%TO.N,/~{DTR}*%
X105687500Y-102550000D03*
%TO.P,Q2,3,C*%
%TO.N,/IO0*%
X103812500Y-103500000D03*
%TD*%
D36*
%TO.P,C6,1,1*%
%TO.N,+5V*%
X91000000Y-114375000D03*
%TO.P,C6,2,2*%
%TO.N,GND*%
X91000000Y-117625000D03*
%TD*%
D25*
%TO.P,R4,1,1*%
%TO.N,/~{DTR}*%
X100250000Y-105500000D03*
%TO.P,R4,2,2*%
%TO.N,Net-(Q1-Pad1)*%
X98250000Y-105500000D03*
%TD*%
D37*
%TO.P,R3,1,1*%
%TO.N,Net-(L3-Pad2)*%
X89000000Y-111250000D03*
%TO.P,R3,2,2*%
%TO.N,+5V*%
X91000000Y-111250000D03*
%TD*%
D19*
%TO.P,C2,1,1*%
%TO.N,Net-(C2-Pad1)*%
X93212500Y-101250000D03*
%TO.P,C2,2,2*%
%TO.N,GND*%
X95287500Y-101250000D03*
%TD*%
D38*
%TO.N,GND*%
X124750000Y-109250000D03*
X124750000Y-102500000D03*
X131000000Y-107250000D03*
X118998400Y-95910400D03*
X106250000Y-113750000D03*
X87750000Y-108000000D03*
X127750000Y-109250000D03*
X96000000Y-103500000D03*
X113385600Y-95910400D03*
X96200000Y-113850000D03*
X96000000Y-105500000D03*
X129500000Y-112250000D03*
X100550000Y-115200000D03*
X112250000Y-113750000D03*
X96200000Y-115200000D03*
X100550000Y-113750000D03*
X127750000Y-102500000D03*
%TO.N,+3V3*%
X113250000Y-105750000D03*
X131000000Y-112250000D03*
X118500000Y-101000000D03*
%TO.N,+5V*%
X93500000Y-106000000D03*
X92500000Y-99500000D03*
%TO.N,/EN*%
X108000000Y-115750000D03*
X101750000Y-107500000D03*
%TO.N,/IO0*%
X132000000Y-103500000D03*
%TO.N,/D+*%
X116500000Y-111750000D03*
X91500000Y-108000000D03*
%TO.N,/D-*%
X119250000Y-110250000D03*
X93000000Y-108000000D03*
%TO.N,/RXD*%
X116000000Y-106250000D03*
X131000000Y-106000000D03*
%TO.N,/TXD*%
X132000000Y-104710000D03*
X114750000Y-106000000D03*
%TO.N,/~{CTS}*%
X122000000Y-100750000D03*
%TD*%
D39*
%TO.N,GND*%
X119000000Y-116450000D02*
X119000000Y-114090000D01*
X118660000Y-113750000D02*
X122368400Y-113750000D01*
X119000000Y-114090000D02*
X118660000Y-113750000D01*
X112250000Y-113750000D02*
X118660000Y-113750000D01*
X122750000Y-112000000D02*
X122750000Y-113368400D01*
X122750000Y-113368400D02*
X122368400Y-113750000D01*
D40*
%TO.N,/RXD*%
X121959820Y-116450000D02*
X124945310Y-113464510D01*
X121500000Y-116450000D02*
X121959820Y-116450000D01*
X131214510Y-113464510D02*
X124945310Y-113464510D01*
D41*
%TO.N,GND*%
X131750000Y-106500000D02*
X131000000Y-107250000D01*
X133500000Y-106500000D02*
X131750000Y-106500000D01*
D40*
X113055000Y-111657500D02*
X112712500Y-112000000D01*
X113055000Y-108225000D02*
X113055000Y-111657500D01*
D42*
X82499987Y-108174993D02*
X82499987Y-113999987D01*
X82499987Y-113999987D02*
X84750000Y-116250000D01*
X82499987Y-101824993D02*
X82499987Y-108174993D01*
X82500000Y-96000000D02*
X82500000Y-101825000D01*
X84750000Y-93750000D02*
X82500000Y-96000000D01*
D41*
X87750000Y-108000000D02*
X86049993Y-106299993D01*
X86049993Y-106299993D02*
X85174987Y-106299993D01*
X82599987Y-106299993D02*
X82499987Y-106199993D01*
X85174987Y-106299993D02*
X82599987Y-106299993D01*
D39*
X105712500Y-113212500D02*
X104250000Y-113212500D01*
X106250000Y-113750000D02*
X105712500Y-113212500D01*
D40*
%TO.N,Net-(C1-Pad1)*%
X124150000Y-106500000D02*
X121000000Y-106500000D01*
X120675000Y-106825000D02*
X120675000Y-108225000D01*
X124800000Y-107150000D02*
X124150000Y-106500000D01*
X121000000Y-106500000D02*
X120675000Y-106825000D01*
X120675000Y-108225000D02*
X120675000Y-112000000D01*
D42*
%TO.N,GND*%
X102912500Y-113212500D02*
X100800000Y-111100000D01*
X84700000Y-116200000D02*
X84750000Y-116250000D01*
X104250000Y-113212500D02*
X102912500Y-113212500D01*
X92750000Y-91250000D02*
X87250000Y-91250000D01*
X84925000Y-108175000D02*
X84950000Y-108200000D01*
X84950000Y-101800000D02*
X82525000Y-101800000D01*
X91000000Y-117625000D02*
X86125000Y-117625000D01*
X93750000Y-92250000D02*
X100250000Y-92250000D01*
X104250000Y-92250000D02*
X110750000Y-92250000D01*
D39*
X112712500Y-112000000D02*
X112712500Y-113287500D01*
D42*
X93750000Y-92250000D02*
X92750000Y-91250000D01*
D39*
X95287500Y-101250000D02*
X98250000Y-101250000D01*
D41*
X85175000Y-107975000D02*
X84950000Y-108200000D01*
X85175000Y-106300000D02*
X85175000Y-107975000D01*
D39*
X95287500Y-101250000D02*
X92537500Y-104000000D01*
D42*
X87250000Y-91250000D02*
X84750000Y-93750000D01*
D39*
X112712500Y-113287500D02*
X112250000Y-113750000D01*
D42*
X104250000Y-92250000D02*
X100250000Y-92250000D01*
X86125000Y-117625000D02*
X84750000Y-116250000D01*
X84700000Y-111250000D02*
X84700000Y-108450000D01*
D39*
X125925000Y-112000000D02*
X122750000Y-112000000D01*
X92537500Y-104000000D02*
X90750000Y-104000000D01*
D42*
X84700000Y-111250000D02*
X84700000Y-116200000D01*
X82500000Y-108175000D02*
X84925000Y-108175000D01*
X84700000Y-108450000D02*
X84950000Y-108200000D01*
D41*
%TO.N,Net-(C2-Pad1)*%
X85800000Y-103700000D02*
X85175000Y-103700000D01*
X89050000Y-104000000D02*
X88750000Y-103700000D01*
X86625000Y-100400000D02*
X86625000Y-102875000D01*
X93212500Y-101250000D02*
X91800000Y-101250000D01*
X88750000Y-103700000D02*
X85175000Y-103700000D01*
X91800000Y-101250000D02*
X89050000Y-104000000D01*
X86625000Y-102875000D02*
X85800000Y-103700000D01*
X84975000Y-98750000D02*
X86625000Y-100400000D01*
D40*
%TO.N,Net-(C3-Pad1)*%
X130000000Y-106000000D02*
X128850000Y-104850000D01*
X128850000Y-104850000D02*
X127700000Y-104850000D01*
X130000000Y-108750000D02*
X130000000Y-106000000D01*
X128000000Y-110750000D02*
X129000000Y-109750000D01*
X129000000Y-109750000D02*
X130000000Y-108750000D01*
X121945000Y-108225000D02*
X124470000Y-110750000D01*
X128000000Y-112000000D02*
X128000000Y-110750000D01*
X124470000Y-110750000D02*
X128000000Y-110750000D01*
D42*
%TO.N,+3V3*%
X116500000Y-116450000D02*
X115550000Y-117400000D01*
D39*
X133500000Y-107500000D02*
X133500000Y-109750000D01*
D42*
X110750000Y-105580000D02*
X110750000Y-106750000D01*
D39*
X111750000Y-105750000D02*
X110750000Y-106750000D01*
D42*
X104250000Y-115287500D02*
X102137500Y-117400000D01*
X110750000Y-116550000D02*
X109900000Y-117400000D01*
X102137500Y-117400000D02*
X98500000Y-117400000D01*
D39*
X123250000Y-100500000D02*
X122537500Y-99787500D01*
D42*
X98500000Y-111100000D02*
X98500000Y-117400000D01*
D39*
X122537500Y-99787500D02*
X120000000Y-99787500D01*
X118500000Y-101000000D02*
X119712500Y-99787500D01*
D42*
X115550000Y-117400000D02*
X109900000Y-117400000D01*
D39*
X133500000Y-109750000D02*
X131000000Y-112250000D01*
D42*
X109900000Y-117400000D02*
X98500000Y-117400000D01*
X110750000Y-106750000D02*
X110750000Y-116550000D01*
D39*
X119712500Y-99787500D02*
X120000000Y-99787500D01*
X113250000Y-105750000D02*
X111750000Y-105750000D01*
D42*
X113055000Y-103275000D02*
X110750000Y-105580000D01*
D39*
X121212500Y-99787500D02*
X123250000Y-97750000D01*
D40*
%TO.N,Net-(C5-Pad1)*%
X116865000Y-109922500D02*
X114787500Y-112000000D01*
X116865000Y-108225000D02*
X116865000Y-109922500D01*
D42*
%TO.N,+5V*%
X96200000Y-108700000D02*
X93500000Y-106000000D01*
X91000000Y-114375000D02*
X91000000Y-111250000D01*
X96200000Y-111100000D02*
X91150000Y-111100000D01*
X92500000Y-99500000D02*
X92250000Y-99250000D01*
X92250000Y-99250000D02*
X90250000Y-99250000D01*
X96200000Y-111100000D02*
X96200000Y-108700000D01*
D40*
%TO.N,/EN*%
X93750000Y-96750000D02*
X100250000Y-96750000D01*
X138250000Y-111000000D02*
X136750000Y-111000000D01*
X107750000Y-109000000D02*
X108000000Y-109250000D01*
X139250000Y-110000000D02*
X138250000Y-111000000D01*
X108000000Y-109250000D02*
X108000000Y-115750000D01*
X136750000Y-111000000D02*
X131300000Y-116450000D01*
X100250000Y-96750000D02*
X100250000Y-101175000D01*
X103700000Y-108250000D02*
X107000000Y-108250000D01*
X133500000Y-102500000D02*
X138500000Y-102500000D01*
X107000000Y-108250000D02*
X107750000Y-109000000D01*
X138500000Y-102500000D02*
X139250000Y-103250000D01*
X100250000Y-101175000D02*
X100325000Y-101250000D01*
X139250000Y-103250000D02*
X139250000Y-110000000D01*
X103700000Y-108250000D02*
X102500000Y-108250000D01*
X102500000Y-108250000D02*
X101750000Y-107500000D01*
X131300000Y-116450000D02*
X129000000Y-116450000D01*
%TO.N,/IO0*%
X126500000Y-116450000D02*
X128200000Y-114750000D01*
X128200000Y-114750000D02*
X132000000Y-114750000D01*
X133500000Y-103500000D02*
X132000000Y-103500000D01*
X115250000Y-99787500D02*
X112212500Y-96750000D01*
X136080520Y-110669480D02*
X132000000Y-114750000D01*
X107500000Y-98000000D02*
X108750000Y-96750000D01*
X136080520Y-103911040D02*
X136080520Y-110669480D01*
X110750000Y-96750000D02*
X104250000Y-96750000D01*
X107500000Y-103000000D02*
X107500000Y-98000000D01*
X103700000Y-103500000D02*
X107000000Y-103500000D01*
X112212500Y-96750000D02*
X110750000Y-96750000D01*
X135669480Y-103500000D02*
X136080520Y-103911040D01*
X107000000Y-103500000D02*
X107500000Y-103000000D01*
X135669480Y-103500000D02*
X133500000Y-103500000D01*
%TO.N,/D+*%
X87750000Y-106000000D02*
X86750000Y-105000000D01*
X89500000Y-106000000D02*
X91500000Y-108000000D01*
X89050000Y-106000000D02*
X89500000Y-106000000D01*
X86750000Y-105000000D02*
X85175000Y-105000000D01*
X89050000Y-106000000D02*
X87750000Y-106000000D01*
X118135000Y-110115000D02*
X118135000Y-108225000D01*
X116500000Y-111750000D02*
X118135000Y-110115000D01*
%TO.N,/D-*%
X87830969Y-105259989D02*
X86920980Y-104350000D01*
X119405000Y-110095000D02*
X119405000Y-108225000D01*
X119250000Y-110250000D02*
X119405000Y-110095000D01*
X90209989Y-105259989D02*
X87830969Y-105259989D01*
X90950000Y-106000000D02*
X90209989Y-105259989D01*
X90950000Y-106000000D02*
X91000000Y-106000000D01*
X91000000Y-106000000D02*
X93000000Y-108000000D01*
X86920980Y-104350000D02*
X85175000Y-104350000D01*
D42*
%TO.N,V_USB*%
X87025000Y-98475000D02*
X87025000Y-98750000D01*
X90250000Y-95250000D02*
X87025000Y-98475000D01*
D40*
%TO.N,/RXD*%
X130000000Y-105000000D02*
X131000000Y-106000000D01*
X119000000Y-92950000D02*
X122050000Y-96000000D01*
X129000000Y-99500000D02*
X130000000Y-100500000D01*
X115595000Y-108225000D02*
X115595000Y-106655000D01*
X129000000Y-97119876D02*
X129000000Y-99500000D01*
X134919480Y-109759540D02*
X131214510Y-113464510D01*
X130000000Y-100500000D02*
X130000000Y-105000000D01*
X115595000Y-106655000D02*
X116000000Y-106250000D01*
X131000000Y-106000000D02*
X131500000Y-105500000D01*
X127880124Y-96000000D02*
X129000000Y-97119876D01*
X134919480Y-105669480D02*
X134919480Y-109759540D01*
X131500000Y-105500000D02*
X133500000Y-105500000D01*
X122050000Y-96000000D02*
X127880124Y-96000000D01*
X133500000Y-105500000D02*
X134750000Y-105500000D01*
X134750000Y-105500000D02*
X134919480Y-105669480D01*
%TO.N,/TXD*%
X121500000Y-92950000D02*
X123550000Y-95000000D01*
X132210000Y-104500000D02*
X133500000Y-104500000D01*
X131209989Y-98959989D02*
X131209989Y-103919989D01*
X126280520Y-114169480D02*
X131330520Y-114169480D01*
X135500000Y-105000000D02*
X135000000Y-104500000D01*
X132000000Y-104710000D02*
X132210000Y-104500000D01*
X131209989Y-103919989D02*
X132000000Y-104710000D01*
X131330520Y-114169480D02*
X135500000Y-110000000D01*
X130000000Y-96000000D02*
X130000000Y-97750000D01*
X130000000Y-97750000D02*
X131209989Y-98959989D01*
X124000000Y-116450000D02*
X126280520Y-114169480D01*
X114325000Y-108225000D02*
X114325000Y-106425000D01*
X129000000Y-95000000D02*
X130000000Y-96000000D01*
X123550000Y-95000000D02*
X129000000Y-95000000D01*
X135000000Y-104500000D02*
X133500000Y-104500000D01*
X114325000Y-106425000D02*
X114750000Y-106000000D01*
X135500000Y-110000000D02*
X135500000Y-105000000D01*
%TO.N,/~{DTR}*%
X111500000Y-94750000D02*
X103750000Y-94750000D01*
X102859989Y-102609989D02*
X100250000Y-105219978D01*
X100250000Y-105219978D02*
X100250000Y-105500000D01*
X102250000Y-102000000D02*
X102859989Y-102609989D01*
X113300000Y-92950000D02*
X111500000Y-94750000D01*
X116500000Y-92950000D02*
X113300000Y-92950000D01*
X103750000Y-94750000D02*
X102250000Y-96250000D01*
X116865000Y-93315000D02*
X116500000Y-92950000D01*
X105800000Y-102550000D02*
X102919978Y-102550000D01*
X102250000Y-96250000D02*
X102250000Y-102000000D01*
X102919978Y-102550000D02*
X102859989Y-102609989D01*
X116865000Y-103275000D02*
X116865000Y-93315000D01*
%TO.N,/~{CTS}*%
X121945000Y-100805000D02*
X122000000Y-100750000D01*
X121945000Y-103275000D02*
X121945000Y-100805000D01*
%TO.N,Net-(L1-Pad2)*%
X127950000Y-100500000D02*
X125250000Y-100500000D01*
%TO.N,Net-(L2-Pad2)*%
X127950000Y-97750000D02*
X125250000Y-97750000D01*
%TO.N,Net-(L3-Pad2)*%
X89000000Y-111250000D02*
X86750000Y-111250000D01*
%TO.N,/~{RTS}*%
X115595000Y-102806297D02*
X113788703Y-101000000D01*
X113788703Y-101000000D02*
X110750000Y-101000000D01*
X110750000Y-102350000D02*
X110750000Y-101000000D01*
X105800000Y-107300000D02*
X110750000Y-102350000D01*
X115595000Y-103275000D02*
X115595000Y-102806297D01*
%TO.N,Net-(Q1-Pad1)*%
X98250000Y-105500000D02*
X101950000Y-109200000D01*
X101950000Y-109200000D02*
X105800000Y-109200000D01*
%TO.N,Net-(Q2-Pad1)*%
X106870980Y-104450000D02*
X108750000Y-102570980D01*
X108750000Y-102570980D02*
X108750000Y-101000000D01*
X105800000Y-104450000D02*
X106870980Y-104450000D01*
%TD*%
%TA.AperFunction,Conductor*%
%TO.N,GND*%
G36*
X82576815Y-90528002D02*
G01*
X82623308Y-90581658D01*
X82633412Y-90651932D01*
X82603918Y-90716512D01*
X82577317Y-90739674D01*
X82570260Y-90744257D01*
X82564939Y-90748123D01*
X82326165Y-90941478D01*
X82317700Y-90953733D01*
X82324034Y-90964824D01*
X84737188Y-93377978D01*
X84751132Y-93385592D01*
X84752965Y-93385461D01*
X84759580Y-93381210D01*
X87175100Y-90965690D01*
X87182241Y-90952614D01*
X87174784Y-90942247D01*
X86935065Y-90748126D01*
X86929728Y-90744248D01*
X86922681Y-90739672D01*
X86876444Y-90685795D01*
X86866675Y-90615474D01*
X86896476Y-90551034D01*
X86956385Y-90512936D01*
X86991306Y-90508000D01*
X93481625Y-90508000D01*
X93549746Y-90528002D01*
X93596239Y-90581658D01*
X93606343Y-90651932D01*
X93576849Y-90716512D01*
X93511039Y-90756519D01*
X93287373Y-90810217D01*
X93277988Y-90813266D01*
X93067837Y-90900313D01*
X93059042Y-90904795D01*
X92891555Y-91007432D01*
X92882093Y-91017890D01*
X92885876Y-91026666D01*
X93737188Y-91877978D01*
X93751132Y-91885592D01*
X93752965Y-91885461D01*
X93759580Y-91881210D01*
X94611080Y-91029710D01*
X94617840Y-91017330D01*
X94612113Y-91009680D01*
X94440958Y-90904795D01*
X94432163Y-90900313D01*
X94222012Y-90813266D01*
X94212627Y-90810217D01*
X93988961Y-90756519D01*
X93927392Y-90721167D01*
X93894709Y-90658140D01*
X93901290Y-90587449D01*
X93945044Y-90531538D01*
X94018375Y-90508000D01*
X99981625Y-90508000D01*
X100049746Y-90528002D01*
X100096239Y-90581658D01*
X100106343Y-90651932D01*
X100076849Y-90716512D01*
X100011039Y-90756519D01*
X99787373Y-90810217D01*
X99777988Y-90813266D01*
X99567837Y-90900313D01*
X99559042Y-90904795D01*
X99391555Y-91007432D01*
X99382093Y-91017890D01*
X99385876Y-91026666D01*
X100237188Y-91877978D01*
X100251132Y-91885592D01*
X100252965Y-91885461D01*
X100259580Y-91881210D01*
X101111080Y-91029710D01*
X101117840Y-91017330D01*
X101112113Y-91009680D01*
X100940958Y-90904795D01*
X100932163Y-90900313D01*
X100722012Y-90813266D01*
X100712627Y-90810217D01*
X100488961Y-90756519D01*
X100427392Y-90721167D01*
X100394709Y-90658140D01*
X100401290Y-90587449D01*
X100445044Y-90531538D01*
X100518375Y-90508000D01*
X103981625Y-90508000D01*
X104049746Y-90528002D01*
X104096239Y-90581658D01*
X104106343Y-90651932D01*
X104076849Y-90716512D01*
X104011039Y-90756519D01*
X103787373Y-90810217D01*
X103777988Y-90813266D01*
X103567837Y-90900313D01*
X103559042Y-90904795D01*
X103391555Y-91007432D01*
X103382093Y-91017890D01*
X103385876Y-91026666D01*
X104237188Y-91877978D01*
X104251132Y-91885592D01*
X104252965Y-91885461D01*
X104259580Y-91881210D01*
X105111080Y-91029710D01*
X105117840Y-91017330D01*
X105112113Y-91009680D01*
X104940958Y-90904795D01*
X104932163Y-90900313D01*
X104722012Y-90813266D01*
X104712627Y-90810217D01*
X104488961Y-90756519D01*
X104427392Y-90721167D01*
X104394709Y-90658140D01*
X104401290Y-90587449D01*
X104445044Y-90531538D01*
X104518375Y-90508000D01*
X110481625Y-90508000D01*
X110549746Y-90528002D01*
X110596239Y-90581658D01*
X110606343Y-90651932D01*
X110576849Y-90716512D01*
X110511039Y-90756519D01*
X110287373Y-90810217D01*
X110277988Y-90813266D01*
X110067837Y-90900313D01*
X110059042Y-90904795D01*
X109891555Y-91007432D01*
X109882093Y-91017890D01*
X109885876Y-91026666D01*
X110737188Y-91877978D01*
X110751132Y-91885592D01*
X110752965Y-91885461D01*
X110759580Y-91881210D01*
X111611080Y-91029710D01*
X111617840Y-91017330D01*
X111612113Y-91009680D01*
X111440958Y-90904795D01*
X111432163Y-90900313D01*
X111222012Y-90813266D01*
X111212627Y-90810217D01*
X110988961Y-90756519D01*
X110927392Y-90721167D01*
X110894709Y-90658140D01*
X110901290Y-90587449D01*
X110945044Y-90531538D01*
X111018375Y-90508000D01*
X135008694Y-90508000D01*
X135076815Y-90528002D01*
X135123308Y-90581658D01*
X135133412Y-90651932D01*
X135103918Y-90716512D01*
X135077317Y-90739674D01*
X135070260Y-90744257D01*
X135064939Y-90748123D01*
X134826165Y-90941478D01*
X134817700Y-90953733D01*
X134824034Y-90964824D01*
X137237188Y-93377978D01*
X137251132Y-93385592D01*
X137252965Y-93385461D01*
X137259580Y-93381210D01*
X139675100Y-90965690D01*
X139682241Y-90952614D01*
X139674784Y-90942247D01*
X139435065Y-90748126D01*
X139429728Y-90744248D01*
X139422681Y-90739672D01*
X139376444Y-90685795D01*
X139366675Y-90615474D01*
X139396476Y-90551034D01*
X139456385Y-90512936D01*
X139491306Y-90508000D01*
X140200672Y-90508000D01*
X140220057Y-90509500D01*
X140234859Y-90511805D01*
X140234861Y-90511805D01*
X140243730Y-90513186D01*
X140252631Y-90512022D01*
X140261606Y-90512132D01*
X140261596Y-90512949D01*
X140283087Y-90513241D01*
X140305068Y-90516722D01*
X140342563Y-90528904D01*
X140374465Y-90545159D01*
X140406357Y-90568331D01*
X140431669Y-90593643D01*
X140454841Y-90625535D01*
X140471096Y-90657437D01*
X140483278Y-90694930D01*
X140486624Y-90716057D01*
X140488054Y-90735766D01*
X140486814Y-90743730D01*
X140488638Y-90757678D01*
X140490936Y-90775251D01*
X140492000Y-90791589D01*
X140492000Y-91508694D01*
X140471998Y-91576815D01*
X140418342Y-91623308D01*
X140348068Y-91633412D01*
X140283488Y-91603918D01*
X140260326Y-91577317D01*
X140255743Y-91570260D01*
X140251877Y-91564939D01*
X140058522Y-91326165D01*
X140046267Y-91317700D01*
X140035176Y-91324034D01*
X137622022Y-93737188D01*
X137614408Y-93751132D01*
X137614539Y-93752965D01*
X137618790Y-93759580D01*
X140034310Y-96175100D01*
X140047386Y-96182241D01*
X140057753Y-96174784D01*
X140251877Y-95935061D01*
X140255743Y-95929740D01*
X140260326Y-95922683D01*
X140314202Y-95876445D01*
X140384523Y-95866675D01*
X140448963Y-95896474D01*
X140487063Y-95956382D01*
X140492000Y-95991306D01*
X140492000Y-114008694D01*
X140471998Y-114076815D01*
X140418342Y-114123308D01*
X140348068Y-114133412D01*
X140283488Y-114103918D01*
X140260326Y-114077317D01*
X140255743Y-114070260D01*
X140251877Y-114064939D01*
X140058522Y-113826165D01*
X140046267Y-113817700D01*
X140035176Y-113824034D01*
X137622022Y-116237188D01*
X137614408Y-116251132D01*
X137614539Y-116252965D01*
X137618790Y-116259580D01*
X140034310Y-118675100D01*
X140047386Y-118682241D01*
X140057753Y-118674784D01*
X140251877Y-118435061D01*
X140255743Y-118429740D01*
X140260326Y-118422683D01*
X140314202Y-118376445D01*
X140384523Y-118366675D01*
X140448963Y-118396474D01*
X140487063Y-118456382D01*
X140492000Y-118491306D01*
X140492000Y-119200672D01*
X140490500Y-119220056D01*
X140486814Y-119243730D01*
X140487978Y-119252631D01*
X140487868Y-119261606D01*
X140487051Y-119261596D01*
X140486759Y-119283087D01*
X140483278Y-119305068D01*
X140471096Y-119342563D01*
X140454841Y-119374465D01*
X140431669Y-119406357D01*
X140406357Y-119431669D01*
X140374465Y-119454841D01*
X140342563Y-119471096D01*
X140305070Y-119483278D01*
X140283943Y-119486624D01*
X140264234Y-119488054D01*
X140256270Y-119486814D01*
X140224749Y-119490936D01*
X140208411Y-119492000D01*
X139491306Y-119492000D01*
X139423185Y-119471998D01*
X139376692Y-119418342D01*
X139366588Y-119348068D01*
X139396082Y-119283488D01*
X139422681Y-119260328D01*
X139429728Y-119255752D01*
X139435065Y-119251874D01*
X139673835Y-119058522D01*
X139682300Y-119046267D01*
X139675966Y-119035176D01*
X137262812Y-116622022D01*
X137248868Y-116614408D01*
X137247035Y-116614539D01*
X137240420Y-116618790D01*
X134824900Y-119034310D01*
X134817759Y-119047386D01*
X134825216Y-119057753D01*
X135064935Y-119251874D01*
X135070272Y-119255752D01*
X135077319Y-119260328D01*
X135123556Y-119314205D01*
X135133325Y-119384526D01*
X135103524Y-119448966D01*
X135043615Y-119487064D01*
X135008694Y-119492000D01*
X86991306Y-119492000D01*
X86923185Y-119471998D01*
X86876692Y-119418342D01*
X86866588Y-119348068D01*
X86896082Y-119283488D01*
X86922681Y-119260328D01*
X86929728Y-119255752D01*
X86935065Y-119251874D01*
X87173835Y-119058522D01*
X87182300Y-119046267D01*
X87175966Y-119035176D01*
X84762812Y-116622022D01*
X84748868Y-116614408D01*
X84747035Y-116614539D01*
X84740420Y-116618790D01*
X82324900Y-119034310D01*
X82317759Y-119047386D01*
X82325216Y-119057753D01*
X82564935Y-119251874D01*
X82570272Y-119255752D01*
X82577319Y-119260328D01*
X82623556Y-119314205D01*
X82633325Y-119384526D01*
X82603524Y-119448966D01*
X82543615Y-119487064D01*
X82508694Y-119492000D01*
X81799328Y-119492000D01*
X81779943Y-119490500D01*
X81765141Y-119488195D01*
X81765139Y-119488195D01*
X81756270Y-119486814D01*
X81747369Y-119487978D01*
X81738394Y-119487868D01*
X81738404Y-119487051D01*
X81716913Y-119486759D01*
X81694932Y-119483278D01*
X81657437Y-119471096D01*
X81625535Y-119454841D01*
X81593643Y-119431669D01*
X81568331Y-119406357D01*
X81545159Y-119374465D01*
X81528904Y-119342563D01*
X81516722Y-119305068D01*
X81514157Y-119288871D01*
X81513266Y-119262541D01*
X81513071Y-119262539D01*
X81513123Y-119258314D01*
X81513123Y-119258305D01*
X81513224Y-119250000D01*
X81509273Y-119222412D01*
X81508000Y-119204549D01*
X81508000Y-118491306D01*
X81528002Y-118423185D01*
X81581658Y-118376692D01*
X81651932Y-118366588D01*
X81716512Y-118396082D01*
X81739674Y-118422683D01*
X81744257Y-118429740D01*
X81748123Y-118435061D01*
X81941478Y-118673835D01*
X81953733Y-118682300D01*
X81964824Y-118675966D01*
X84377978Y-116262812D01*
X84384356Y-116251132D01*
X85114408Y-116251132D01*
X85114539Y-116252965D01*
X85118790Y-116259580D01*
X87534310Y-118675100D01*
X87547386Y-118682241D01*
X87557753Y-118674784D01*
X87751877Y-118435061D01*
X87755747Y-118429735D01*
X87923059Y-118172096D01*
X89317000Y-118172096D01*
X89317337Y-118178611D01*
X89327256Y-118274203D01*
X89330150Y-118287602D01*
X89381588Y-118441783D01*
X89387762Y-118454962D01*
X89473063Y-118592807D01*
X89482099Y-118604208D01*
X89596830Y-118718739D01*
X89608241Y-118727751D01*
X89746245Y-118812818D01*
X89759423Y-118818962D01*
X89913716Y-118870139D01*
X89927081Y-118873005D01*
X90021439Y-118882672D01*
X90027855Y-118883000D01*
X90727885Y-118883000D01*
X90743124Y-118878525D01*
X90744329Y-118877135D01*
X90746000Y-118869452D01*
X90746000Y-118864885D01*
X91254000Y-118864885D01*
X91258475Y-118880124D01*
X91259865Y-118881329D01*
X91267548Y-118883000D01*
X91972096Y-118883000D01*
X91978611Y-118882663D01*
X92074203Y-118872744D01*
X92087602Y-118869850D01*
X92241783Y-118818412D01*
X92254962Y-118812238D01*
X92392807Y-118726937D01*
X92404208Y-118717901D01*
X92518739Y-118603170D01*
X92527751Y-118591759D01*
X92612818Y-118453755D01*
X92618962Y-118440577D01*
X92670139Y-118286284D01*
X92673005Y-118272919D01*
X92682672Y-118178561D01*
X92683000Y-118172145D01*
X92683000Y-117897115D01*
X92678525Y-117881876D01*
X92677135Y-117880671D01*
X92669452Y-117879000D01*
X91272115Y-117879000D01*
X91256876Y-117883475D01*
X91255671Y-117884865D01*
X91254000Y-117892548D01*
X91254000Y-118864885D01*
X90746000Y-118864885D01*
X90746000Y-117897115D01*
X90741525Y-117881876D01*
X90740135Y-117880671D01*
X90732452Y-117879000D01*
X89335115Y-117879000D01*
X89319876Y-117883475D01*
X89318671Y-117884865D01*
X89317000Y-117892548D01*
X89317000Y-118172096D01*
X87923059Y-118172096D01*
X87963831Y-118109313D01*
X87967128Y-118103603D01*
X88140578Y-117763189D01*
X88143260Y-117757164D01*
X88280171Y-117400498D01*
X88282212Y-117394216D01*
X88293287Y-117352885D01*
X89317000Y-117352885D01*
X89321475Y-117368124D01*
X89322865Y-117369329D01*
X89330548Y-117371000D01*
X90727885Y-117371000D01*
X90743124Y-117366525D01*
X90744329Y-117365135D01*
X90746000Y-117357452D01*
X90746000Y-117352885D01*
X91254000Y-117352885D01*
X91258475Y-117368124D01*
X91259865Y-117369329D01*
X91267548Y-117371000D01*
X92664885Y-117371000D01*
X92680124Y-117366525D01*
X92681329Y-117365135D01*
X92683000Y-117357452D01*
X92683000Y-117077904D01*
X92682663Y-117071389D01*
X92672744Y-116975797D01*
X92669850Y-116962398D01*
X92618412Y-116808217D01*
X92612238Y-116795038D01*
X92526937Y-116657193D01*
X92517901Y-116645792D01*
X92403170Y-116531261D01*
X92391759Y-116522249D01*
X92253755Y-116437182D01*
X92240577Y-116431038D01*
X92086284Y-116379861D01*
X92072919Y-116376995D01*
X91978561Y-116367328D01*
X91972144Y-116367000D01*
X91272115Y-116367000D01*
X91256876Y-116371475D01*
X91255671Y-116372865D01*
X91254000Y-116380548D01*
X91254000Y-117352885D01*
X90746000Y-117352885D01*
X90746000Y-116385115D01*
X90741525Y-116369876D01*
X90740135Y-116368671D01*
X90732452Y-116367000D01*
X90027904Y-116367000D01*
X90021389Y-116367337D01*
X89925797Y-116377256D01*
X89912398Y-116380150D01*
X89758217Y-116431588D01*
X89745038Y-116437762D01*
X89607193Y-116523063D01*
X89595792Y-116532099D01*
X89481261Y-116646830D01*
X89472249Y-116658241D01*
X89387182Y-116796245D01*
X89381038Y-116809423D01*
X89329861Y-116963716D01*
X89326995Y-116977081D01*
X89317328Y-117071439D01*
X89317000Y-117077856D01*
X89317000Y-117352885D01*
X88293287Y-117352885D01*
X88381094Y-117025184D01*
X88382465Y-117018734D01*
X88442234Y-116641371D01*
X88442920Y-116634833D01*
X88462916Y-116253301D01*
X88462916Y-116246699D01*
X88442920Y-115865167D01*
X88442234Y-115858629D01*
X88382465Y-115481266D01*
X88381094Y-115474816D01*
X88282212Y-115105784D01*
X88280171Y-115099502D01*
X88143260Y-114742836D01*
X88140578Y-114736811D01*
X87967128Y-114396397D01*
X87963831Y-114390687D01*
X87755747Y-114070265D01*
X87751877Y-114064939D01*
X87558522Y-113826165D01*
X87546267Y-113817700D01*
X87535176Y-113824034D01*
X85122022Y-116237188D01*
X85114408Y-116251132D01*
X84384356Y-116251132D01*
X84385592Y-116248868D01*
X84385461Y-116247035D01*
X84381210Y-116240420D01*
X81965690Y-113824900D01*
X81952614Y-113817759D01*
X81942247Y-113825216D01*
X81748123Y-114064939D01*
X81744257Y-114070260D01*
X81739674Y-114077317D01*
X81685798Y-114123555D01*
X81615477Y-114133325D01*
X81551037Y-114103526D01*
X81512937Y-114043618D01*
X81508000Y-114008694D01*
X81508000Y-113453733D01*
X82317700Y-113453733D01*
X82324034Y-113464824D01*
X84737188Y-115877978D01*
X84751132Y-115885592D01*
X84752965Y-115885461D01*
X84759580Y-115881210D01*
X87175100Y-113465690D01*
X87182241Y-113452614D01*
X87174784Y-113442247D01*
X86935065Y-113248126D01*
X86929728Y-113244249D01*
X86609315Y-113036170D01*
X86603606Y-113032873D01*
X86263189Y-112859422D01*
X86257164Y-112856740D01*
X85900498Y-112719829D01*
X85894216Y-112717788D01*
X85525184Y-112618906D01*
X85518731Y-112617534D01*
X85427104Y-112603022D01*
X85362951Y-112572610D01*
X85325423Y-112512342D01*
X85326437Y-112441352D01*
X85365669Y-112382180D01*
X85380510Y-112371429D01*
X85492810Y-112301934D01*
X85504208Y-112292901D01*
X85618738Y-112178172D01*
X85625794Y-112169238D01*
X85683712Y-112128177D01*
X85754635Y-112124947D01*
X85816046Y-112160574D01*
X85822846Y-112168407D01*
X85826522Y-112174348D01*
X85951697Y-112299305D01*
X85957927Y-112303145D01*
X85957928Y-112303146D01*
X86095090Y-112387694D01*
X86102262Y-112392115D01*
X86182005Y-112418564D01*
X86263611Y-112445632D01*
X86263613Y-112445632D01*
X86270139Y-112447797D01*
X86276975Y-112448497D01*
X86276978Y-112448498D01*
X86320031Y-112452909D01*
X86374600Y-112458500D01*
X87125400Y-112458500D01*
X87128646Y-112458163D01*
X87128650Y-112458163D01*
X87224308Y-112448238D01*
X87224312Y-112448237D01*
X87231166Y-112447526D01*
X87237702Y-112445345D01*
X87237704Y-112445345D01*
X87386231Y-112395792D01*
X87398946Y-112391550D01*
X87549348Y-112298478D01*
X87674305Y-112173303D01*
X87689820Y-112148134D01*
X87755172Y-112042113D01*
X87807944Y-111994620D01*
X87878016Y-111983196D01*
X87943140Y-112011470D01*
X87969576Y-112041926D01*
X88037402Y-112151531D01*
X88051522Y-112174348D01*
X88176697Y-112299305D01*
X88182927Y-112303145D01*
X88182928Y-112303146D01*
X88320090Y-112387694D01*
X88327262Y-112392115D01*
X88407005Y-112418564D01*
X88488611Y-112445632D01*
X88488613Y-112445632D01*
X88495139Y-112447797D01*
X88501975Y-112448497D01*
X88501978Y-112448498D01*
X88545031Y-112452909D01*
X88599600Y-112458500D01*
X89400400Y-112458500D01*
X89403646Y-112458163D01*
X89403650Y-112458163D01*
X89499308Y-112448238D01*
X89499312Y-112448237D01*
X89506166Y-112447526D01*
X89512702Y-112445345D01*
X89512704Y-112445345D01*
X89661231Y-112395792D01*
X89673946Y-112391550D01*
X89824348Y-112298478D01*
X89910784Y-112211891D01*
X89973066Y-112177812D01*
X90043886Y-112182815D01*
X90088974Y-112211736D01*
X90137017Y-112259695D01*
X90171097Y-112321977D01*
X90174000Y-112348868D01*
X90174000Y-112990500D01*
X90153998Y-113058621D01*
X90100342Y-113105114D01*
X90048000Y-113116500D01*
X90024600Y-113116500D01*
X90021354Y-113116837D01*
X90021350Y-113116837D01*
X89925693Y-113126762D01*
X89925689Y-113126763D01*
X89918835Y-113127474D01*
X89912299Y-113129655D01*
X89912297Y-113129655D01*
X89801710Y-113166550D01*
X89751055Y-113183450D01*
X89600652Y-113276522D01*
X89475695Y-113401697D01*
X89471855Y-113407927D01*
X89471854Y-113407928D01*
X89392457Y-113536734D01*
X89382885Y-113552262D01*
X89356436Y-113632005D01*
X89329704Y-113712600D01*
X89327203Y-113720139D01*
X89316500Y-113824600D01*
X89316500Y-114925400D01*
X89316837Y-114928646D01*
X89316837Y-114928650D01*
X89326425Y-115021052D01*
X89327474Y-115031165D01*
X89329655Y-115037701D01*
X89329655Y-115037703D01*
X89362825Y-115137125D01*
X89383450Y-115198945D01*
X89476522Y-115349348D01*
X89481704Y-115354521D01*
X89523287Y-115396032D01*
X89601697Y-115474305D01*
X89607927Y-115478145D01*
X89607928Y-115478146D01*
X89745090Y-115562694D01*
X89752262Y-115567115D01*
X89784133Y-115577686D01*
X89913611Y-115620632D01*
X89913613Y-115620632D01*
X89920139Y-115622797D01*
X89926975Y-115623497D01*
X89926978Y-115623498D01*
X89970031Y-115627909D01*
X90024600Y-115633500D01*
X91975400Y-115633500D01*
X91978646Y-115633163D01*
X91978650Y-115633163D01*
X92074307Y-115623238D01*
X92074311Y-115623237D01*
X92081165Y-115622526D01*
X92087701Y-115620345D01*
X92087703Y-115620345D01*
X92238187Y-115570139D01*
X92248945Y-115566550D01*
X92399348Y-115473478D01*
X92524305Y-115348303D01*
X92602766Y-115221016D01*
X92613275Y-115203968D01*
X92613276Y-115203966D01*
X92617115Y-115197738D01*
X92648281Y-115103776D01*
X92670632Y-115036389D01*
X92670632Y-115036387D01*
X92672797Y-115029861D01*
X92673901Y-115019093D01*
X92679565Y-114963802D01*
X92683500Y-114925400D01*
X92683500Y-113824600D01*
X92682784Y-113817700D01*
X92673238Y-113725693D01*
X92673237Y-113725689D01*
X92672526Y-113718835D01*
X92616550Y-113551055D01*
X92523478Y-113400652D01*
X92398303Y-113275695D01*
X92392072Y-113271854D01*
X92253968Y-113186725D01*
X92253966Y-113186724D01*
X92247738Y-113182885D01*
X92087254Y-113129655D01*
X92086389Y-113129368D01*
X92086387Y-113129368D01*
X92079861Y-113127203D01*
X92073025Y-113126503D01*
X92073022Y-113126502D01*
X92029969Y-113122091D01*
X91975400Y-113116500D01*
X91952000Y-113116500D01*
X91883879Y-113096498D01*
X91837386Y-113042842D01*
X91826000Y-112990500D01*
X91826000Y-112348950D01*
X91846002Y-112280829D01*
X91862827Y-112259932D01*
X91944134Y-112178483D01*
X91949305Y-112173303D01*
X91962753Y-112151486D01*
X92038275Y-112028968D01*
X92038276Y-112028966D01*
X92042115Y-112022738D01*
X92045566Y-112012334D01*
X92046989Y-112010279D01*
X92047513Y-112009156D01*
X92047705Y-112009246D01*
X92085995Y-111953974D01*
X92151559Y-111926736D01*
X92165159Y-111926000D01*
X94815500Y-111926000D01*
X94883621Y-111946002D01*
X94930114Y-111999658D01*
X94941500Y-112052000D01*
X94941500Y-112148134D01*
X94948255Y-112210316D01*
X94999385Y-112346705D01*
X95086739Y-112463261D01*
X95203295Y-112550615D01*
X95339684Y-112601745D01*
X95401866Y-112608500D01*
X96998134Y-112608500D01*
X97060316Y-112601745D01*
X97196705Y-112550615D01*
X97203892Y-112545229D01*
X97274435Y-112492360D01*
X97340942Y-112467512D01*
X97410324Y-112482565D01*
X97425565Y-112492360D01*
X97496108Y-112545229D01*
X97503295Y-112550615D01*
X97511704Y-112553767D01*
X97511705Y-112553768D01*
X97592229Y-112583955D01*
X97648994Y-112626596D01*
X97673694Y-112693158D01*
X97674000Y-112701937D01*
X97674000Y-115765500D01*
X97653998Y-115833621D01*
X97600342Y-115880114D01*
X97548000Y-115891500D01*
X96551866Y-115891500D01*
X96489684Y-115898255D01*
X96353295Y-115949385D01*
X96236739Y-116036739D01*
X96149385Y-116153295D01*
X96098255Y-116289684D01*
X96091500Y-116351866D01*
X96091500Y-118448134D01*
X96098255Y-118510316D01*
X96149385Y-118646705D01*
X96236739Y-118763261D01*
X96353295Y-118850615D01*
X96489684Y-118901745D01*
X96551866Y-118908500D01*
X100448134Y-118908500D01*
X100510316Y-118901745D01*
X100646705Y-118850615D01*
X100763261Y-118763261D01*
X100850615Y-118646705D01*
X100901745Y-118510316D01*
X100908500Y-118448134D01*
X100908500Y-118352000D01*
X100928502Y-118283879D01*
X100982158Y-118237386D01*
X101034500Y-118226000D01*
X102097467Y-118226000D01*
X102108012Y-118226442D01*
X102157800Y-118230623D01*
X102164559Y-118229721D01*
X102164563Y-118229721D01*
X102184152Y-118227107D01*
X102200816Y-118226000D01*
X109859967Y-118226000D01*
X109870512Y-118226442D01*
X109920300Y-118230623D01*
X109927059Y-118229721D01*
X109927063Y-118229721D01*
X109946652Y-118227107D01*
X109963316Y-118226000D01*
X115509967Y-118226000D01*
X115520512Y-118226442D01*
X115570300Y-118230623D01*
X115647743Y-118220289D01*
X115650743Y-118219927D01*
X115692498Y-118215391D01*
X115721634Y-118212226D01*
X115721636Y-118212226D01*
X115728417Y-118211489D01*
X115734883Y-118209313D01*
X115737233Y-118208796D01*
X115737783Y-118208699D01*
X115738550Y-118208520D01*
X115739085Y-118208365D01*
X115741432Y-118207789D01*
X115748190Y-118206887D01*
X115821542Y-118180189D01*
X115824443Y-118179174D01*
X115892039Y-118156425D01*
X115892046Y-118156422D01*
X115898511Y-118154246D01*
X115904360Y-118150731D01*
X115906553Y-118149718D01*
X115907068Y-118149506D01*
X115907766Y-118149173D01*
X115908267Y-118148900D01*
X115910421Y-118147840D01*
X115916834Y-118145506D01*
X115982802Y-118103641D01*
X115985394Y-118102041D01*
X116046502Y-118065324D01*
X116052344Y-118061814D01*
X116057295Y-118057133D01*
X116059231Y-118055663D01*
X116060162Y-118055015D01*
X116063996Y-118052115D01*
X116068364Y-118049343D01*
X116072464Y-118045677D01*
X116124386Y-117993755D01*
X116126871Y-117991337D01*
X116151602Y-117967950D01*
X116214838Y-117935680D01*
X116238173Y-117933500D01*
X117150400Y-117933500D01*
X117153646Y-117933163D01*
X117153650Y-117933163D01*
X117249308Y-117923238D01*
X117249312Y-117923237D01*
X117256166Y-117922526D01*
X117262702Y-117920345D01*
X117262704Y-117920345D01*
X117416998Y-117868868D01*
X117423946Y-117866550D01*
X117574348Y-117773478D01*
X117699305Y-117648303D01*
X117789353Y-117502220D01*
X117842124Y-117454727D01*
X117912196Y-117443303D01*
X117977320Y-117471577D01*
X117987782Y-117481364D01*
X118093234Y-117591906D01*
X118101186Y-117598941D01*
X118277525Y-117730141D01*
X118286562Y-117735745D01*
X118482484Y-117835357D01*
X118492335Y-117839357D01*
X118702240Y-117904534D01*
X118712624Y-117906817D01*
X118728043Y-117908861D01*
X118742207Y-117906665D01*
X118746000Y-117893478D01*
X118746000Y-115008808D01*
X118742027Y-114995277D01*
X118731420Y-114993752D01*
X118613579Y-115018477D01*
X118603383Y-115021537D01*
X118398971Y-115102263D01*
X118389439Y-115106994D01*
X118201538Y-115221016D01*
X118192948Y-115227280D01*
X118026948Y-115371327D01*
X118019530Y-115378956D01*
X117993609Y-115410569D01*
X117934949Y-115450564D01*
X117863979Y-115452496D01*
X117803230Y-115415752D01*
X117789030Y-115396982D01*
X117784564Y-115389764D01*
X117698478Y-115250652D01*
X117573303Y-115125695D01*
X117542965Y-115106994D01*
X117428968Y-115036725D01*
X117428966Y-115036724D01*
X117422738Y-115032885D01*
X117309353Y-114995277D01*
X117261389Y-114979368D01*
X117261387Y-114979368D01*
X117254861Y-114977203D01*
X117248025Y-114976503D01*
X117248022Y-114976502D01*
X117204969Y-114972091D01*
X117150400Y-114966500D01*
X115849600Y-114966500D01*
X115846354Y-114966837D01*
X115846350Y-114966837D01*
X115750692Y-114976762D01*
X115750688Y-114976763D01*
X115743834Y-114977474D01*
X115737298Y-114979655D01*
X115737296Y-114979655D01*
X115607310Y-115023022D01*
X115576054Y-115033450D01*
X115425652Y-115126522D01*
X115300695Y-115251697D01*
X115296855Y-115257927D01*
X115296854Y-115257928D01*
X115218693Y-115384729D01*
X115207885Y-115402262D01*
X115186369Y-115467130D01*
X115154480Y-115563275D01*
X115152203Y-115570139D01*
X115151503Y-115576975D01*
X115151502Y-115576978D01*
X115147091Y-115620031D01*
X115141500Y-115674600D01*
X115141500Y-116448000D01*
X115121498Y-116516121D01*
X115067842Y-116562614D01*
X115015500Y-116574000D01*
X111702000Y-116574000D01*
X111633879Y-116553998D01*
X111587386Y-116500342D01*
X111576000Y-116448000D01*
X111576000Y-113052285D01*
X111596002Y-112984164D01*
X111649658Y-112937671D01*
X111719932Y-112927567D01*
X111784512Y-112957061D01*
X111791018Y-112963112D01*
X111896829Y-113068739D01*
X111908240Y-113077751D01*
X112046243Y-113162816D01*
X112059424Y-113168963D01*
X112213710Y-113220138D01*
X112227086Y-113223005D01*
X112321438Y-113232672D01*
X112327854Y-113233000D01*
X112440385Y-113233000D01*
X112455624Y-113228525D01*
X112456829Y-113227135D01*
X112458500Y-113219452D01*
X112458500Y-110785116D01*
X112454025Y-110769877D01*
X112452635Y-110768672D01*
X112444952Y-110767001D01*
X112327905Y-110767001D01*
X112321386Y-110767338D01*
X112225794Y-110777257D01*
X112212400Y-110780149D01*
X112058216Y-110831588D01*
X112045038Y-110837761D01*
X111907193Y-110923063D01*
X111895792Y-110932099D01*
X111791173Y-111036900D01*
X111728890Y-111070979D01*
X111658070Y-111065976D01*
X111601197Y-111023479D01*
X111576329Y-110956980D01*
X111576000Y-110947882D01*
X111576000Y-109113984D01*
X112247001Y-109113984D01*
X112247195Y-109118920D01*
X112249430Y-109147336D01*
X112251730Y-109159931D01*
X112294107Y-109305790D01*
X112300352Y-109320221D01*
X112376911Y-109449678D01*
X112386551Y-109462104D01*
X112492896Y-109568449D01*
X112505322Y-109578089D01*
X112634779Y-109654648D01*
X112649210Y-109660893D01*
X112783605Y-109699939D01*
X112797706Y-109699899D01*
X112801000Y-109692630D01*
X112801000Y-108497115D01*
X112796525Y-108481876D01*
X112795135Y-108480671D01*
X112787452Y-108479000D01*
X112265116Y-108479000D01*
X112249877Y-108483475D01*
X112248672Y-108484865D01*
X112247001Y-108492548D01*
X112247001Y-109113984D01*
X111576000Y-109113984D01*
X111576000Y-107054528D01*
X111596002Y-106986407D01*
X111612905Y-106965433D01*
X112028933Y-106549405D01*
X112091245Y-106515379D01*
X112118028Y-106512500D01*
X112712919Y-106512500D01*
X112781040Y-106532502D01*
X112787005Y-106536582D01*
X112787503Y-106536944D01*
X112787887Y-106537223D01*
X112831221Y-106593460D01*
X112837273Y-106664199D01*
X112804120Y-106726979D01*
X112748944Y-106760131D01*
X112649212Y-106789106D01*
X112634779Y-106795352D01*
X112505322Y-106871911D01*
X112492896Y-106881551D01*
X112386551Y-106987896D01*
X112376911Y-107000322D01*
X112300352Y-107129779D01*
X112294107Y-107144210D01*
X112251731Y-107290065D01*
X112249430Y-107302667D01*
X112247193Y-107331084D01*
X112247000Y-107336014D01*
X112247000Y-107952885D01*
X112251475Y-107968124D01*
X112252865Y-107969329D01*
X112260548Y-107971000D01*
X113183000Y-107971000D01*
X113251121Y-107991002D01*
X113297614Y-108044658D01*
X113309000Y-108097000D01*
X113309000Y-109686878D01*
X113312973Y-109700409D01*
X113320871Y-109701544D01*
X113460790Y-109660893D01*
X113475221Y-109654648D01*
X113604676Y-109578090D01*
X113612364Y-109572126D01*
X113678449Y-109546179D01*
X113748072Y-109560080D01*
X113764158Y-109570418D01*
X113768193Y-109574453D01*
X113775021Y-109578491D01*
X113775024Y-109578493D01*
X113807780Y-109597865D01*
X113911399Y-109659145D01*
X113919010Y-109661356D01*
X113919012Y-109661357D01*
X113958152Y-109672728D01*
X114071169Y-109705562D01*
X114077574Y-109706066D01*
X114077579Y-109706067D01*
X114106042Y-109708307D01*
X114106050Y-109708307D01*
X114108498Y-109708500D01*
X114541502Y-109708500D01*
X114543950Y-109708307D01*
X114543958Y-109708307D01*
X114572421Y-109706067D01*
X114572426Y-109706066D01*
X114578831Y-109705562D01*
X114691848Y-109672728D01*
X114730988Y-109661357D01*
X114730990Y-109661356D01*
X114738601Y-109659145D01*
X114881807Y-109574453D01*
X114884489Y-109571771D01*
X114948861Y-109546498D01*
X115018484Y-109560400D01*
X115034312Y-109570572D01*
X115038193Y-109574453D01*
X115181399Y-109659145D01*
X115189010Y-109661356D01*
X115189012Y-109661357D01*
X115228152Y-109672728D01*
X115341169Y-109705562D01*
X115347574Y-109706066D01*
X115347579Y-109706067D01*
X115376042Y-109708307D01*
X115376050Y-109708307D01*
X115378498Y-109708500D01*
X115786275Y-109708500D01*
X115854396Y-109728502D01*
X115900889Y-109782158D01*
X115910993Y-109852432D01*
X115881499Y-109917012D01*
X115875370Y-109923595D01*
X115069370Y-110729595D01*
X115007058Y-110763621D01*
X114980275Y-110766500D01*
X114399600Y-110766500D01*
X114396354Y-110766837D01*
X114396350Y-110766837D01*
X114300692Y-110776762D01*
X114300688Y-110776763D01*
X114293834Y-110777474D01*
X114287298Y-110779655D01*
X114287296Y-110779655D01*
X114222041Y-110801426D01*
X114126054Y-110833450D01*
X113975652Y-110926522D01*
X113850695Y-111051697D01*
X113847898Y-111056235D01*
X113790647Y-111096824D01*
X113719724Y-111100054D01*
X113658313Y-111064428D01*
X113650938Y-111055932D01*
X113642902Y-111045793D01*
X113528171Y-110931261D01*
X113516760Y-110922249D01*
X113378757Y-110837184D01*
X113365576Y-110831037D01*
X113211290Y-110779862D01*
X113197914Y-110776995D01*
X113103562Y-110767328D01*
X113097145Y-110767000D01*
X112984615Y-110767000D01*
X112969376Y-110771475D01*
X112968171Y-110772865D01*
X112966500Y-110780548D01*
X112966500Y-113214884D01*
X112970975Y-113230123D01*
X112972365Y-113231328D01*
X112980048Y-113232999D01*
X113097095Y-113232999D01*
X113103614Y-113232662D01*
X113199206Y-113222743D01*
X113212600Y-113219851D01*
X113366784Y-113168412D01*
X113379962Y-113162239D01*
X113517807Y-113076937D01*
X113529208Y-113067901D01*
X113643738Y-112953172D01*
X113650794Y-112944238D01*
X113708712Y-112903177D01*
X113779635Y-112899947D01*
X113841046Y-112935574D01*
X113847846Y-112943407D01*
X113851522Y-112949348D01*
X113976697Y-113074305D01*
X113982927Y-113078145D01*
X113982928Y-113078146D01*
X114120288Y-113162816D01*
X114127262Y-113167115D01*
X114176511Y-113183450D01*
X114288611Y-113220632D01*
X114288613Y-113220632D01*
X114295139Y-113222797D01*
X114301975Y-113223497D01*
X114301978Y-113223498D01*
X114345031Y-113227909D01*
X114399600Y-113233500D01*
X115175400Y-113233500D01*
X115178646Y-113233163D01*
X115178650Y-113233163D01*
X115274308Y-113223238D01*
X115274312Y-113223237D01*
X115281166Y-113222526D01*
X115287702Y-113220345D01*
X115287704Y-113220345D01*
X115419806Y-113176272D01*
X115448946Y-113166550D01*
X115599348Y-113073478D01*
X115724305Y-112948303D01*
X115732153Y-112935572D01*
X115813275Y-112803968D01*
X115813276Y-112803966D01*
X115817115Y-112797738D01*
X115872797Y-112629861D01*
X115872879Y-112629064D01*
X115905601Y-112568712D01*
X115967812Y-112534502D01*
X116038642Y-112539357D01*
X116046201Y-112542433D01*
X116147027Y-112587323D01*
X116201013Y-112611359D01*
X116217712Y-112618794D01*
X116288385Y-112633816D01*
X116398056Y-112657128D01*
X116398061Y-112657128D01*
X116404513Y-112658500D01*
X116595487Y-112658500D01*
X116601939Y-112657128D01*
X116601944Y-112657128D01*
X116711615Y-112633816D01*
X116782288Y-112618794D01*
X116789462Y-112615600D01*
X116950722Y-112543803D01*
X116950724Y-112543802D01*
X116956752Y-112541118D01*
X116962305Y-112537084D01*
X117056506Y-112468642D01*
X117111253Y-112428866D01*
X117129825Y-112408240D01*
X117234621Y-112291852D01*
X117234622Y-112291851D01*
X117239040Y-112286944D01*
X117326698Y-112135116D01*
X117331223Y-112127279D01*
X117331224Y-112127278D01*
X117334527Y-112121556D01*
X117393542Y-111939928D01*
X117400028Y-111878217D01*
X117427041Y-111812560D01*
X117436243Y-111802292D01*
X118388945Y-110849590D01*
X118451257Y-110815564D01*
X118522072Y-110820629D01*
X118571672Y-110854372D01*
X118638747Y-110928866D01*
X118793248Y-111041118D01*
X118799276Y-111043802D01*
X118799278Y-111043803D01*
X118925621Y-111100054D01*
X118967712Y-111118794D01*
X119031234Y-111132296D01*
X119148056Y-111157128D01*
X119148061Y-111157128D01*
X119154513Y-111158500D01*
X119345487Y-111158500D01*
X119351939Y-111157128D01*
X119351944Y-111157128D01*
X119468766Y-111132296D01*
X119539557Y-111137698D01*
X119596189Y-111180515D01*
X119620683Y-111247152D01*
X119614556Y-111295209D01*
X119589703Y-111370139D01*
X119589003Y-111376975D01*
X119589002Y-111376978D01*
X119588710Y-111379831D01*
X119579000Y-111474600D01*
X119579000Y-112525400D01*
X119579337Y-112528646D01*
X119579337Y-112528650D01*
X119589118Y-112622914D01*
X119589974Y-112631166D01*
X119592155Y-112637702D01*
X119592155Y-112637704D01*
X119623728Y-112732339D01*
X119645950Y-112798946D01*
X119739022Y-112949348D01*
X119864197Y-113074305D01*
X119870427Y-113078145D01*
X119870428Y-113078146D01*
X120007788Y-113162816D01*
X120014762Y-113167115D01*
X120064011Y-113183450D01*
X120176111Y-113220632D01*
X120176113Y-113220632D01*
X120182639Y-113222797D01*
X120189475Y-113223497D01*
X120189478Y-113223498D01*
X120232531Y-113227909D01*
X120287100Y-113233500D01*
X121062900Y-113233500D01*
X121066146Y-113233163D01*
X121066150Y-113233163D01*
X121161808Y-113223238D01*
X121161812Y-113223237D01*
X121168666Y-113222526D01*
X121175202Y-113220345D01*
X121175204Y-113220345D01*
X121307306Y-113176272D01*
X121336446Y-113166550D01*
X121486848Y-113073478D01*
X121611805Y-112948303D01*
X121614602Y-112943765D01*
X121671853Y-112903176D01*
X121742776Y-112899946D01*
X121804187Y-112935572D01*
X121811562Y-112944068D01*
X121819598Y-112954207D01*
X121934329Y-113068739D01*
X121945740Y-113077751D01*
X122083743Y-113162816D01*
X122096924Y-113168963D01*
X122251210Y-113220138D01*
X122264586Y-113223005D01*
X122358938Y-113232672D01*
X122365354Y-113233000D01*
X122477885Y-113233000D01*
X122493124Y-113228525D01*
X122494329Y-113227135D01*
X122496000Y-113219452D01*
X122496000Y-113214884D01*
X123004000Y-113214884D01*
X123008475Y-113230123D01*
X123009865Y-113231328D01*
X123017548Y-113232999D01*
X123134595Y-113232999D01*
X123141114Y-113232662D01*
X123236706Y-113222743D01*
X123250100Y-113219851D01*
X123404284Y-113168412D01*
X123417462Y-113162239D01*
X123555307Y-113076937D01*
X123566708Y-113067901D01*
X123681239Y-112953171D01*
X123690251Y-112941760D01*
X123775316Y-112803757D01*
X123781463Y-112790576D01*
X123832638Y-112636290D01*
X123835505Y-112622914D01*
X123845172Y-112528562D01*
X123845500Y-112522146D01*
X123845500Y-112272115D01*
X123841025Y-112256876D01*
X123839635Y-112255671D01*
X123831952Y-112254000D01*
X123022115Y-112254000D01*
X123006876Y-112258475D01*
X123005671Y-112259865D01*
X123004000Y-112267548D01*
X123004000Y-113214884D01*
X122496000Y-113214884D01*
X122496000Y-110785116D01*
X122491525Y-110769877D01*
X122490135Y-110768672D01*
X122482452Y-110767001D01*
X122365405Y-110767001D01*
X122358886Y-110767338D01*
X122263294Y-110777257D01*
X122249900Y-110780149D01*
X122095716Y-110831588D01*
X122082538Y-110837761D01*
X121944693Y-110923063D01*
X121933292Y-110932099D01*
X121818762Y-111046828D01*
X121811706Y-111055762D01*
X121753788Y-111096823D01*
X121682865Y-111100053D01*
X121621454Y-111064426D01*
X121614654Y-111056593D01*
X121610978Y-111050652D01*
X121485803Y-110925695D01*
X121479569Y-110921852D01*
X121433883Y-110893690D01*
X121386390Y-110840918D01*
X121374000Y-110786431D01*
X121374000Y-109781233D01*
X121394002Y-109713112D01*
X121447658Y-109666619D01*
X121517932Y-109656515D01*
X121535152Y-109660236D01*
X121684989Y-109703767D01*
X121684993Y-109703768D01*
X121691169Y-109705562D01*
X121697574Y-109706066D01*
X121697579Y-109706067D01*
X121726042Y-109708307D01*
X121726050Y-109708307D01*
X121728498Y-109708500D01*
X122161502Y-109708500D01*
X122163950Y-109708307D01*
X122163958Y-109708307D01*
X122192421Y-109706067D01*
X122192426Y-109706066D01*
X122198831Y-109705562D01*
X122311848Y-109672728D01*
X122382844Y-109672931D01*
X122436095Y-109704630D01*
X123289074Y-110557609D01*
X123323100Y-110619921D01*
X123318035Y-110690736D01*
X123275488Y-110747572D01*
X123208968Y-110772383D01*
X123187138Y-110772048D01*
X123141065Y-110767328D01*
X123134645Y-110767000D01*
X123022115Y-110767000D01*
X123006876Y-110771475D01*
X123005671Y-110772865D01*
X123004000Y-110780548D01*
X123004000Y-111727885D01*
X123008475Y-111743124D01*
X123009865Y-111744329D01*
X123017548Y-111746000D01*
X123827384Y-111746000D01*
X123842623Y-111741525D01*
X123843828Y-111740135D01*
X123845499Y-111732452D01*
X123845499Y-111477905D01*
X123845162Y-111471389D01*
X123839450Y-111416343D01*
X123852314Y-111346522D01*
X123900885Y-111294740D01*
X123969741Y-111277437D01*
X124037225Y-111300250D01*
X124050373Y-111309490D01*
X124055671Y-111313425D01*
X124099259Y-111347602D01*
X124099263Y-111347604D01*
X124105240Y-111352291D01*
X124112161Y-111355416D01*
X124115226Y-111357272D01*
X124127913Y-111364508D01*
X124131046Y-111366188D01*
X124137261Y-111370556D01*
X124195987Y-111393452D01*
X124202028Y-111395992D01*
X124259435Y-111421912D01*
X124266908Y-111423297D01*
X124270323Y-111424367D01*
X124284358Y-111428366D01*
X124287813Y-111429253D01*
X124294889Y-111432012D01*
X124357353Y-111440235D01*
X124363845Y-111441263D01*
X124425787Y-111452744D01*
X124433367Y-111452307D01*
X124433368Y-111452307D01*
X124487094Y-111449209D01*
X124494347Y-111449000D01*
X124703500Y-111449000D01*
X124771621Y-111469002D01*
X124818114Y-111522658D01*
X124829500Y-111575000D01*
X124829500Y-111727885D01*
X124833975Y-111743124D01*
X124835365Y-111744329D01*
X124843048Y-111746000D01*
X126053000Y-111746000D01*
X126121121Y-111766002D01*
X126167614Y-111819658D01*
X126179000Y-111872000D01*
X126179000Y-112128000D01*
X126158998Y-112196121D01*
X126105342Y-112242614D01*
X126053000Y-112254000D01*
X124847616Y-112254000D01*
X124832377Y-112258475D01*
X124831172Y-112259865D01*
X124829501Y-112267548D01*
X124829501Y-112522095D01*
X124829838Y-112528614D01*
X124839756Y-112624201D01*
X124843116Y-112639759D01*
X124837944Y-112710567D01*
X124795312Y-112767339D01*
X124756377Y-112786978D01*
X124749271Y-112789124D01*
X124741792Y-112790429D01*
X124684120Y-112815745D01*
X124678025Y-112818233D01*
X124626190Y-112837820D01*
X124626188Y-112837821D01*
X124619088Y-112840504D01*
X124612836Y-112844801D01*
X124609693Y-112846444D01*
X124596945Y-112853539D01*
X124593833Y-112855380D01*
X124586877Y-112858433D01*
X124580849Y-112863059D01*
X124580848Y-112863059D01*
X124536912Y-112896772D01*
X124531585Y-112900643D01*
X124507230Y-112917382D01*
X124492410Y-112927567D01*
X124479658Y-112936331D01*
X124474606Y-112942001D01*
X124474605Y-112942002D01*
X124438800Y-112982189D01*
X124433819Y-112987465D01*
X123343968Y-114077317D01*
X122307382Y-115113903D01*
X122245070Y-115147928D01*
X122174255Y-115142864D01*
X122161183Y-115137125D01*
X122017709Y-115064180D01*
X122017708Y-115064180D01*
X122012949Y-115061760D01*
X122007855Y-115060178D01*
X122007852Y-115060177D01*
X121797871Y-114994976D01*
X121792773Y-114993393D01*
X121787484Y-114992692D01*
X121569511Y-114963802D01*
X121569506Y-114963802D01*
X121564226Y-114963102D01*
X121558897Y-114963302D01*
X121558895Y-114963302D01*
X121449034Y-114967426D01*
X121333842Y-114971751D01*
X121328623Y-114972846D01*
X121306566Y-114977474D01*
X121108209Y-115019093D01*
X121103250Y-115021051D01*
X121103248Y-115021052D01*
X120898744Y-115101815D01*
X120898742Y-115101816D01*
X120893779Y-115103776D01*
X120889220Y-115106543D01*
X120889217Y-115106544D01*
X120833220Y-115140524D01*
X120696683Y-115223377D01*
X120692653Y-115226874D01*
X120529109Y-115368790D01*
X120522555Y-115374477D01*
X120504881Y-115396032D01*
X120379760Y-115548627D01*
X120379756Y-115548633D01*
X120376376Y-115552755D01*
X120373733Y-115557398D01*
X120358171Y-115584735D01*
X120307088Y-115634041D01*
X120237458Y-115647902D01*
X120171387Y-115621918D01*
X120144149Y-115592768D01*
X120065148Y-115475422D01*
X120058481Y-115467130D01*
X119906772Y-115308100D01*
X119898814Y-115301059D01*
X119722475Y-115169859D01*
X119713438Y-115164255D01*
X119517516Y-115064643D01*
X119507665Y-115060643D01*
X119297760Y-114995466D01*
X119287376Y-114993183D01*
X119271957Y-114991139D01*
X119257793Y-114993335D01*
X119254000Y-115006522D01*
X119254000Y-117891192D01*
X119257973Y-117904723D01*
X119268580Y-117906248D01*
X119386421Y-117881523D01*
X119396617Y-117878463D01*
X119601029Y-117797737D01*
X119610561Y-117793006D01*
X119798462Y-117678984D01*
X119807052Y-117672720D01*
X119973052Y-117528673D01*
X119980472Y-117521042D01*
X120119826Y-117351089D01*
X120125848Y-117342326D01*
X120141238Y-117315289D01*
X120192320Y-117265982D01*
X120261951Y-117252120D01*
X120328022Y-117278103D01*
X120355261Y-117307253D01*
X120384773Y-117351089D01*
X120437441Y-117429319D01*
X120596576Y-117596135D01*
X120781542Y-117733754D01*
X120786293Y-117736170D01*
X120786297Y-117736172D01*
X120827586Y-117757164D01*
X120987051Y-117838240D01*
X120992145Y-117839822D01*
X120992148Y-117839823D01*
X121132730Y-117883475D01*
X121207227Y-117906607D01*
X121212516Y-117907308D01*
X121430489Y-117936198D01*
X121430494Y-117936198D01*
X121435774Y-117936898D01*
X121441103Y-117936698D01*
X121441105Y-117936698D01*
X121550966Y-117932573D01*
X121666158Y-117928249D01*
X121891791Y-117880907D01*
X121896750Y-117878949D01*
X121896752Y-117878948D01*
X122101256Y-117798185D01*
X122101258Y-117798184D01*
X122106221Y-117796224D01*
X122111525Y-117793006D01*
X122298757Y-117679390D01*
X122298756Y-117679390D01*
X122303317Y-117676623D01*
X122343134Y-117642072D01*
X122473412Y-117529023D01*
X122473414Y-117529021D01*
X122477445Y-117525523D01*
X122544861Y-117443303D01*
X122620240Y-117351373D01*
X122620244Y-117351367D01*
X122623624Y-117347245D01*
X122641552Y-117315750D01*
X122692632Y-117266445D01*
X122762262Y-117252583D01*
X122828333Y-117278566D01*
X122855573Y-117307716D01*
X122860983Y-117315752D01*
X122937441Y-117429319D01*
X123096576Y-117596135D01*
X123281542Y-117733754D01*
X123286293Y-117736170D01*
X123286297Y-117736172D01*
X123327586Y-117757164D01*
X123487051Y-117838240D01*
X123492145Y-117839822D01*
X123492148Y-117839823D01*
X123632730Y-117883475D01*
X123707227Y-117906607D01*
X123712516Y-117907308D01*
X123930489Y-117936198D01*
X123930494Y-117936198D01*
X123935774Y-117936898D01*
X123941103Y-117936698D01*
X123941105Y-117936698D01*
X124050966Y-117932573D01*
X124166158Y-117928249D01*
X124391791Y-117880907D01*
X124396750Y-117878949D01*
X124396752Y-117878948D01*
X124601256Y-117798185D01*
X124601258Y-117798184D01*
X124606221Y-117796224D01*
X124611525Y-117793006D01*
X124798757Y-117679390D01*
X124798756Y-117679390D01*
X124803317Y-117676623D01*
X124843134Y-117642072D01*
X124973412Y-117529023D01*
X124973414Y-117529021D01*
X124977445Y-117525523D01*
X125044861Y-117443303D01*
X125120240Y-117351373D01*
X125120244Y-117351367D01*
X125123624Y-117347245D01*
X125141552Y-117315750D01*
X125192632Y-117266445D01*
X125262262Y-117252583D01*
X125328333Y-117278566D01*
X125355573Y-117307716D01*
X125360983Y-117315752D01*
X125437441Y-117429319D01*
X125596576Y-117596135D01*
X125781542Y-117733754D01*
X125786293Y-117736170D01*
X125786297Y-117736172D01*
X125827586Y-117757164D01*
X125987051Y-117838240D01*
X125992145Y-117839822D01*
X125992148Y-117839823D01*
X126132730Y-117883475D01*
X126207227Y-117906607D01*
X126212516Y-117907308D01*
X126430489Y-117936198D01*
X126430494Y-117936198D01*
X126435774Y-117936898D01*
X126441103Y-117936698D01*
X126441105Y-117936698D01*
X126550966Y-117932573D01*
X126666158Y-117928249D01*
X126891791Y-117880907D01*
X126896750Y-117878949D01*
X126896752Y-117878948D01*
X127101256Y-117798185D01*
X127101258Y-117798184D01*
X127106221Y-117796224D01*
X127111525Y-117793006D01*
X127298757Y-117679390D01*
X127298756Y-117679390D01*
X127303317Y-117676623D01*
X127343134Y-117642072D01*
X127473412Y-117529023D01*
X127473414Y-117529021D01*
X127477445Y-117525523D01*
X127544861Y-117443303D01*
X127620240Y-117351373D01*
X127620244Y-117351367D01*
X127623624Y-117347245D01*
X127641552Y-117315750D01*
X127692632Y-117266445D01*
X127762262Y-117252583D01*
X127828333Y-117278566D01*
X127855573Y-117307716D01*
X127860983Y-117315752D01*
X127937441Y-117429319D01*
X128096576Y-117596135D01*
X128281542Y-117733754D01*
X128286293Y-117736170D01*
X128286297Y-117736172D01*
X128327586Y-117757164D01*
X128487051Y-117838240D01*
X128492145Y-117839822D01*
X128492148Y-117839823D01*
X128632730Y-117883475D01*
X128707227Y-117906607D01*
X128712516Y-117907308D01*
X128930489Y-117936198D01*
X128930494Y-117936198D01*
X128935774Y-117936898D01*
X128941103Y-117936698D01*
X128941105Y-117936698D01*
X129050966Y-117932573D01*
X129166158Y-117928249D01*
X129391791Y-117880907D01*
X129396750Y-117878949D01*
X129396752Y-117878948D01*
X129601256Y-117798185D01*
X129601258Y-117798184D01*
X129606221Y-117796224D01*
X129611525Y-117793006D01*
X129798757Y-117679390D01*
X129798756Y-117679390D01*
X129803317Y-117676623D01*
X129843134Y-117642072D01*
X129973412Y-117529023D01*
X129973414Y-117529021D01*
X129977445Y-117525523D01*
X130044861Y-117443303D01*
X130120240Y-117351373D01*
X130120244Y-117351367D01*
X130123624Y-117347245D01*
X130141815Y-117315289D01*
X130200230Y-117212668D01*
X130251313Y-117163361D01*
X130309732Y-117149000D01*
X131271401Y-117149000D01*
X131279971Y-117149292D01*
X131329277Y-117152654D01*
X131329281Y-117152654D01*
X131336852Y-117153170D01*
X131344328Y-117151865D01*
X131344332Y-117151865D01*
X131398924Y-117142337D01*
X131405449Y-117141374D01*
X131460418Y-117134722D01*
X131460420Y-117134721D01*
X131467960Y-117133809D01*
X131475062Y-117131125D01*
X131478500Y-117130281D01*
X131492623Y-117126417D01*
X131496034Y-117125387D01*
X131503517Y-117124081D01*
X131561197Y-117098761D01*
X131567304Y-117096270D01*
X131619117Y-117076691D01*
X131619118Y-117076690D01*
X131626222Y-117074006D01*
X131632477Y-117069707D01*
X131635618Y-117068065D01*
X131648372Y-117060967D01*
X131651478Y-117059130D01*
X131658433Y-117056077D01*
X131664460Y-117051452D01*
X131664464Y-117051450D01*
X131708402Y-117017735D01*
X131713720Y-117013871D01*
X131765652Y-116978179D01*
X131779713Y-116962398D01*
X131806518Y-116932312D01*
X131811499Y-116927036D01*
X133416404Y-115322131D01*
X133478716Y-115288105D01*
X133549531Y-115293170D01*
X133606367Y-115335717D01*
X133631178Y-115402237D01*
X133627206Y-115443836D01*
X133618907Y-115474810D01*
X133617535Y-115481266D01*
X133557766Y-115858629D01*
X133557080Y-115865167D01*
X133537084Y-116246699D01*
X133537084Y-116253301D01*
X133557080Y-116634833D01*
X133557766Y-116641371D01*
X133617535Y-117018734D01*
X133618906Y-117025184D01*
X133717788Y-117394216D01*
X133719829Y-117400498D01*
X133856740Y-117757164D01*
X133859422Y-117763189D01*
X134032872Y-118103603D01*
X134036169Y-118109313D01*
X134244253Y-118429735D01*
X134248123Y-118435061D01*
X134441478Y-118673835D01*
X134453733Y-118682300D01*
X134464824Y-118675966D01*
X139675100Y-113465690D01*
X139682241Y-113452614D01*
X139674784Y-113442247D01*
X139435065Y-113248126D01*
X139429728Y-113244249D01*
X139109315Y-113036170D01*
X139103606Y-113032873D01*
X138763189Y-112859422D01*
X138757164Y-112856740D01*
X138400498Y-112719829D01*
X138394216Y-112717788D01*
X138025184Y-112618906D01*
X138018734Y-112617535D01*
X137641371Y-112557766D01*
X137634833Y-112557080D01*
X137253301Y-112537084D01*
X137246699Y-112537084D01*
X136865167Y-112557080D01*
X136858629Y-112557766D01*
X136481266Y-112617535D01*
X136474810Y-112618907D01*
X136443836Y-112627206D01*
X136372860Y-112625516D01*
X136314064Y-112585721D01*
X136286117Y-112520457D01*
X136297891Y-112450443D01*
X136322131Y-112416404D01*
X137002630Y-111735905D01*
X137064942Y-111701879D01*
X137091725Y-111699000D01*
X138221401Y-111699000D01*
X138229971Y-111699292D01*
X138279277Y-111702654D01*
X138279281Y-111702654D01*
X138286852Y-111703170D01*
X138294328Y-111701865D01*
X138294332Y-111701865D01*
X138348924Y-111692337D01*
X138355449Y-111691374D01*
X138410418Y-111684722D01*
X138410420Y-111684721D01*
X138417960Y-111683809D01*
X138425062Y-111681125D01*
X138428500Y-111680281D01*
X138442623Y-111676417D01*
X138446034Y-111675387D01*
X138453517Y-111674081D01*
X138511197Y-111648761D01*
X138517304Y-111646270D01*
X138569117Y-111626691D01*
X138569118Y-111626690D01*
X138576222Y-111624006D01*
X138582477Y-111619707D01*
X138585618Y-111618065D01*
X138598372Y-111610967D01*
X138601478Y-111609130D01*
X138608433Y-111606077D01*
X138614460Y-111601452D01*
X138614464Y-111601450D01*
X138658402Y-111567735D01*
X138663720Y-111563871D01*
X138715652Y-111528179D01*
X138756526Y-111482303D01*
X138761490Y-111477045D01*
X139724053Y-110514483D01*
X139730319Y-110508630D01*
X139767547Y-110476154D01*
X139773274Y-110471158D01*
X139809498Y-110419617D01*
X139813423Y-110414332D01*
X139847607Y-110370735D01*
X139852292Y-110364760D01*
X139855416Y-110357842D01*
X139857245Y-110354821D01*
X139864500Y-110342102D01*
X139866188Y-110338954D01*
X139870556Y-110332739D01*
X139875214Y-110320793D01*
X139887956Y-110288109D01*
X139893438Y-110274050D01*
X139895978Y-110268005D01*
X139921913Y-110210565D01*
X139923298Y-110203092D01*
X139924369Y-110199674D01*
X139928354Y-110185685D01*
X139929251Y-110182193D01*
X139932012Y-110175111D01*
X139935581Y-110148000D01*
X139940233Y-110112670D01*
X139941265Y-110106157D01*
X139951361Y-110051682D01*
X139951361Y-110051680D01*
X139952745Y-110044213D01*
X139949209Y-109982887D01*
X139949000Y-109975635D01*
X139949000Y-103278589D01*
X139949292Y-103270019D01*
X139952653Y-103220724D01*
X139952653Y-103220720D01*
X139953169Y-103213148D01*
X139942336Y-103151081D01*
X139941380Y-103144607D01*
X139933809Y-103082040D01*
X139931124Y-103074934D01*
X139930281Y-103071501D01*
X139926419Y-103057385D01*
X139925388Y-103053970D01*
X139924081Y-103046483D01*
X139898761Y-102988802D01*
X139896270Y-102982696D01*
X139876691Y-102930883D01*
X139876690Y-102930882D01*
X139874006Y-102923778D01*
X139869707Y-102917523D01*
X139868065Y-102914382D01*
X139860971Y-102901635D01*
X139859130Y-102898523D01*
X139856077Y-102891567D01*
X139817732Y-102841593D01*
X139813861Y-102836266D01*
X139782481Y-102790607D01*
X139782480Y-102790605D01*
X139778179Y-102784348D01*
X139732330Y-102743498D01*
X139727054Y-102738518D01*
X139014490Y-102025955D01*
X139008636Y-102019688D01*
X138976152Y-101982451D01*
X138971158Y-101976726D01*
X138919622Y-101940506D01*
X138914326Y-101936573D01*
X138870737Y-101902394D01*
X138870734Y-101902392D01*
X138864760Y-101897708D01*
X138857836Y-101894582D01*
X138854801Y-101892744D01*
X138842103Y-101885501D01*
X138838957Y-101883814D01*
X138832739Y-101879444D01*
X138825780Y-101876731D01*
X138775237Y-101826954D01*
X138759615Y-101757698D01*
X138765765Y-101726063D01*
X138772797Y-101704861D01*
X138775461Y-101678866D01*
X138783172Y-101603598D01*
X138783500Y-101600400D01*
X138783500Y-100799600D01*
X138783163Y-100796350D01*
X138773238Y-100700692D01*
X138773237Y-100700688D01*
X138772526Y-100693834D01*
X138745795Y-100613710D01*
X138718868Y-100533002D01*
X138716550Y-100526054D01*
X138623478Y-100375652D01*
X138498303Y-100250695D01*
X138458328Y-100226054D01*
X138353968Y-100161725D01*
X138353966Y-100161724D01*
X138347738Y-100157885D01*
X138187254Y-100104655D01*
X138186389Y-100104368D01*
X138186387Y-100104368D01*
X138179861Y-100102203D01*
X138173025Y-100101503D01*
X138173022Y-100101502D01*
X138119339Y-100096002D01*
X138075400Y-100091500D01*
X136674600Y-100091500D01*
X136671354Y-100091837D01*
X136671350Y-100091837D01*
X136575692Y-100101762D01*
X136575688Y-100101763D01*
X136568834Y-100102474D01*
X136562298Y-100104655D01*
X136562296Y-100104655D01*
X136513293Y-100121004D01*
X136401054Y-100158450D01*
X136250652Y-100251522D01*
X136125695Y-100376697D01*
X136121855Y-100382927D01*
X136121854Y-100382928D01*
X136041477Y-100513324D01*
X136032885Y-100527262D01*
X136009322Y-100598303D01*
X135979422Y-100688450D01*
X135977203Y-100695139D01*
X135966500Y-100799600D01*
X135966500Y-101600400D01*
X135966837Y-101603646D01*
X135966837Y-101603650D01*
X135972891Y-101661996D01*
X135960026Y-101731818D01*
X135911455Y-101783600D01*
X135847564Y-101801000D01*
X134524770Y-101801000D01*
X134460631Y-101783453D01*
X134395429Y-101744893D01*
X134395427Y-101744892D01*
X134388601Y-101740855D01*
X134380990Y-101738644D01*
X134380988Y-101738643D01*
X134328769Y-101723472D01*
X134228831Y-101694438D01*
X134222426Y-101693934D01*
X134222421Y-101693933D01*
X134193958Y-101691693D01*
X134193950Y-101691693D01*
X134191502Y-101691500D01*
X132808498Y-101691500D01*
X132806050Y-101691693D01*
X132806042Y-101691693D01*
X132777579Y-101693933D01*
X132777574Y-101693934D01*
X132771169Y-101694438D01*
X132671231Y-101723472D01*
X132619012Y-101738643D01*
X132619010Y-101738644D01*
X132611399Y-101740855D01*
X132604572Y-101744892D01*
X132604573Y-101744892D01*
X132475020Y-101821509D01*
X132475017Y-101821511D01*
X132468193Y-101825547D01*
X132350547Y-101943193D01*
X132346511Y-101950017D01*
X132346509Y-101950020D01*
X132287245Y-102050230D01*
X132265855Y-102086399D01*
X132263644Y-102094010D01*
X132263643Y-102094012D01*
X132257729Y-102114369D01*
X132219438Y-102246169D01*
X132218934Y-102252574D01*
X132218933Y-102252579D01*
X132216693Y-102281042D01*
X132216500Y-102283498D01*
X132216500Y-102465500D01*
X132196498Y-102533621D01*
X132142842Y-102580114D01*
X132090500Y-102591500D01*
X132034989Y-102591500D01*
X131966868Y-102571498D01*
X131920375Y-102517842D01*
X131908989Y-102465500D01*
X131908989Y-98988589D01*
X131909281Y-98980018D01*
X131912643Y-98930714D01*
X131912643Y-98930710D01*
X131913159Y-98923138D01*
X131911854Y-98915662D01*
X131911854Y-98915658D01*
X131902326Y-98861067D01*
X131901363Y-98854542D01*
X131894711Y-98799571D01*
X131894710Y-98799568D01*
X131893798Y-98792029D01*
X131891114Y-98784927D01*
X131890270Y-98781489D01*
X131886406Y-98767366D01*
X131885376Y-98763954D01*
X131884070Y-98756472D01*
X131881018Y-98749519D01*
X131881016Y-98749513D01*
X131878518Y-98743823D01*
X136744391Y-98743823D01*
X136745555Y-98752725D01*
X136745555Y-98752728D01*
X136750860Y-98793296D01*
X136762980Y-98885979D01*
X136766597Y-98894199D01*
X136808130Y-98988589D01*
X136820720Y-99017203D01*
X136826497Y-99024076D01*
X136826498Y-99024077D01*
X136833291Y-99032158D01*
X136912970Y-99126948D01*
X137032313Y-99206390D01*
X137040888Y-99209069D01*
X137056864Y-99214060D01*
X137169157Y-99249142D01*
X137178129Y-99249306D01*
X137178132Y-99249307D01*
X137243463Y-99250504D01*
X137312499Y-99251770D01*
X137321533Y-99249307D01*
X137442158Y-99216421D01*
X137442160Y-99216420D01*
X137450817Y-99214060D01*
X137572991Y-99139045D01*
X137582587Y-99128444D01*
X137663178Y-99039407D01*
X137669200Y-99032754D01*
X137718638Y-98930714D01*
X137727795Y-98911814D01*
X137727795Y-98911813D01*
X137731710Y-98903733D01*
X137755496Y-98762354D01*
X137755647Y-98750000D01*
X137747269Y-98691500D01*
X137736596Y-98616968D01*
X137736595Y-98616965D01*
X137735323Y-98608082D01*
X137727591Y-98591075D01*
X137708929Y-98550031D01*
X137675984Y-98477572D01*
X137632004Y-98426531D01*
X137588260Y-98375763D01*
X137588257Y-98375760D01*
X137582400Y-98368963D01*
X137462095Y-98290985D01*
X137324739Y-98249907D01*
X137315763Y-98249852D01*
X137315762Y-98249852D01*
X137255555Y-98249484D01*
X137181376Y-98249031D01*
X137043529Y-98288428D01*
X136922280Y-98364930D01*
X136827377Y-98472388D01*
X136766447Y-98602163D01*
X136760978Y-98637287D01*
X136749363Y-98711891D01*
X136744391Y-98743823D01*
X131878518Y-98743823D01*
X131858752Y-98698795D01*
X131856259Y-98692687D01*
X131855811Y-98691500D01*
X131840429Y-98650794D01*
X131836681Y-98640874D01*
X131836679Y-98640871D01*
X131833995Y-98633767D01*
X131829690Y-98627503D01*
X131828034Y-98624336D01*
X131820929Y-98611571D01*
X131819121Y-98608514D01*
X131816067Y-98601556D01*
X131783904Y-98559641D01*
X131777729Y-98551593D01*
X131773851Y-98546256D01*
X131742470Y-98500596D01*
X131742468Y-98500594D01*
X131738168Y-98494337D01*
X131722654Y-98480514D01*
X131692301Y-98453471D01*
X131687025Y-98448490D01*
X131120405Y-97881870D01*
X131086379Y-97819558D01*
X131083500Y-97792775D01*
X131083500Y-97249600D01*
X131079680Y-97212782D01*
X131073238Y-97150692D01*
X131073237Y-97150688D01*
X131072526Y-97143834D01*
X131043962Y-97058216D01*
X131018868Y-96983002D01*
X131016550Y-96976054D01*
X130923478Y-96825652D01*
X130798303Y-96700695D01*
X130792076Y-96696857D01*
X130792074Y-96696855D01*
X130758884Y-96676396D01*
X130711390Y-96623623D01*
X130699000Y-96569136D01*
X130699000Y-96547386D01*
X134817759Y-96547386D01*
X134825216Y-96557753D01*
X135064935Y-96751874D01*
X135070272Y-96755751D01*
X135390685Y-96963830D01*
X135396394Y-96967127D01*
X135736811Y-97140578D01*
X135742836Y-97143260D01*
X136099502Y-97280171D01*
X136105784Y-97282212D01*
X136474816Y-97381094D01*
X136481266Y-97382465D01*
X136858629Y-97442234D01*
X136865167Y-97442920D01*
X137246699Y-97462916D01*
X137253301Y-97462916D01*
X137634833Y-97442920D01*
X137641371Y-97442234D01*
X138018734Y-97382465D01*
X138025184Y-97381094D01*
X138394216Y-97282212D01*
X138400498Y-97280171D01*
X138757164Y-97143260D01*
X138763189Y-97140578D01*
X139103606Y-96967127D01*
X139109315Y-96963830D01*
X139429728Y-96755751D01*
X139435065Y-96751874D01*
X139673835Y-96558522D01*
X139682300Y-96546267D01*
X139675966Y-96535176D01*
X137262812Y-94122022D01*
X137248868Y-94114408D01*
X137247035Y-94114539D01*
X137240420Y-94118790D01*
X134824900Y-96534310D01*
X134817759Y-96547386D01*
X130699000Y-96547386D01*
X130699000Y-96028600D01*
X130699292Y-96020029D01*
X130702653Y-95970725D01*
X130703170Y-95963149D01*
X130692334Y-95901065D01*
X130691378Y-95894586D01*
X130683809Y-95832040D01*
X130681125Y-95824938D01*
X130680270Y-95821456D01*
X130676430Y-95807421D01*
X130675389Y-95803973D01*
X130674082Y-95796483D01*
X130664146Y-95773848D01*
X130648763Y-95738805D01*
X130646270Y-95732697D01*
X130626692Y-95680886D01*
X130626692Y-95680885D01*
X130624006Y-95673778D01*
X130619700Y-95667512D01*
X130618050Y-95664357D01*
X130610931Y-95651565D01*
X130609131Y-95648521D01*
X130606078Y-95641567D01*
X130601452Y-95635538D01*
X130567740Y-95591604D01*
X130563862Y-95586267D01*
X130532481Y-95540607D01*
X130532479Y-95540605D01*
X130528179Y-95534348D01*
X130515059Y-95522658D01*
X130482312Y-95493482D01*
X130477036Y-95488501D01*
X129514497Y-94525962D01*
X129508651Y-94519705D01*
X129505619Y-94516230D01*
X129475905Y-94451751D01*
X129485768Y-94381442D01*
X129532077Y-94327628D01*
X129554278Y-94316200D01*
X129601033Y-94297735D01*
X129610561Y-94293006D01*
X129798462Y-94178984D01*
X129807052Y-94172720D01*
X129973052Y-94028673D01*
X129980472Y-94021042D01*
X130119826Y-93851089D01*
X130125850Y-93842322D01*
X130176527Y-93753295D01*
X133537084Y-93753295D01*
X133557080Y-94134833D01*
X133557766Y-94141371D01*
X133617535Y-94518734D01*
X133618906Y-94525184D01*
X133717788Y-94894216D01*
X133719829Y-94900498D01*
X133856740Y-95257164D01*
X133859422Y-95263189D01*
X134032872Y-95603603D01*
X134036169Y-95609313D01*
X134244253Y-95929735D01*
X134248123Y-95935061D01*
X134441478Y-96173835D01*
X134453733Y-96182300D01*
X134464824Y-96175966D01*
X136877978Y-93762812D01*
X136885592Y-93748868D01*
X136885461Y-93747035D01*
X136881210Y-93740420D01*
X134465690Y-91324900D01*
X134452614Y-91317759D01*
X134442247Y-91325216D01*
X134248123Y-91564939D01*
X134244253Y-91570265D01*
X134036169Y-91890687D01*
X134032872Y-91896397D01*
X133859422Y-92236811D01*
X133856740Y-92242836D01*
X133719829Y-92599502D01*
X133717788Y-92605784D01*
X133618906Y-92974816D01*
X133617535Y-92981266D01*
X133557766Y-93358629D01*
X133557080Y-93365167D01*
X133537084Y-93746699D01*
X133537084Y-93753295D01*
X130176527Y-93753295D01*
X130234576Y-93651318D01*
X130239041Y-93641654D01*
X130314031Y-93435059D01*
X130316802Y-93424792D01*
X130353504Y-93221826D01*
X130352085Y-93208586D01*
X130337450Y-93204000D01*
X128872000Y-93204000D01*
X128803879Y-93183998D01*
X128757386Y-93130342D01*
X128746000Y-93078000D01*
X128746000Y-92677885D01*
X129254000Y-92677885D01*
X129258475Y-92693124D01*
X129259865Y-92694329D01*
X129267548Y-92696000D01*
X130333849Y-92696000D01*
X130348527Y-92691690D01*
X130350590Y-92679807D01*
X130343876Y-92600675D01*
X130342086Y-92590203D01*
X130286870Y-92377465D01*
X130283335Y-92367425D01*
X130193063Y-92167030D01*
X130187894Y-92157744D01*
X130065150Y-91975425D01*
X130058481Y-91967130D01*
X129906772Y-91808100D01*
X129898814Y-91801059D01*
X129722475Y-91669859D01*
X129713438Y-91664255D01*
X129517516Y-91564643D01*
X129507665Y-91560643D01*
X129297760Y-91495466D01*
X129287376Y-91493183D01*
X129271957Y-91491139D01*
X129257793Y-91493335D01*
X129254000Y-91506522D01*
X129254000Y-92677885D01*
X128746000Y-92677885D01*
X128746000Y-91508808D01*
X128742027Y-91495277D01*
X128731420Y-91493752D01*
X128613579Y-91518477D01*
X128603383Y-91521537D01*
X128398971Y-91602263D01*
X128389439Y-91606994D01*
X128201538Y-91721016D01*
X128192948Y-91727280D01*
X128026948Y-91871327D01*
X128019528Y-91878958D01*
X127880174Y-92048911D01*
X127874152Y-92057674D01*
X127858762Y-92084711D01*
X127807680Y-92134018D01*
X127738049Y-92147880D01*
X127671978Y-92121897D01*
X127644739Y-92092747D01*
X127594619Y-92018301D01*
X127562559Y-91970681D01*
X127503918Y-91909209D01*
X127474725Y-91878608D01*
X127403424Y-91803865D01*
X127218458Y-91666246D01*
X127213707Y-91663830D01*
X127213703Y-91663828D01*
X127095097Y-91603526D01*
X127012949Y-91561760D01*
X127007855Y-91560178D01*
X127007852Y-91560177D01*
X126797871Y-91494976D01*
X126792773Y-91493393D01*
X126787484Y-91492692D01*
X126569511Y-91463802D01*
X126569506Y-91463802D01*
X126564226Y-91463102D01*
X126558897Y-91463302D01*
X126558895Y-91463302D01*
X126449034Y-91467426D01*
X126333842Y-91471751D01*
X126328623Y-91472846D01*
X126306566Y-91477474D01*
X126108209Y-91519093D01*
X126103250Y-91521051D01*
X126103248Y-91521052D01*
X125898744Y-91601815D01*
X125898742Y-91601816D01*
X125893779Y-91603776D01*
X125889220Y-91606543D01*
X125889217Y-91606544D01*
X125794113Y-91664255D01*
X125696683Y-91723377D01*
X125692653Y-91726874D01*
X125599484Y-91807722D01*
X125522555Y-91874477D01*
X125519168Y-91878608D01*
X125379760Y-92048627D01*
X125379756Y-92048633D01*
X125376376Y-92052755D01*
X125358448Y-92084250D01*
X125307368Y-92133555D01*
X125237738Y-92147417D01*
X125171667Y-92121434D01*
X125144427Y-92092284D01*
X125117814Y-92052755D01*
X125062559Y-91970681D01*
X125003918Y-91909209D01*
X124974725Y-91878608D01*
X124903424Y-91803865D01*
X124718458Y-91666246D01*
X124713707Y-91663830D01*
X124713703Y-91663828D01*
X124595097Y-91603526D01*
X124512949Y-91561760D01*
X124507855Y-91560178D01*
X124507852Y-91560177D01*
X124297871Y-91494976D01*
X124292773Y-91493393D01*
X124287484Y-91492692D01*
X124069511Y-91463802D01*
X124069506Y-91463802D01*
X124064226Y-91463102D01*
X124058897Y-91463302D01*
X124058895Y-91463302D01*
X123949034Y-91467426D01*
X123833842Y-91471751D01*
X123828623Y-91472846D01*
X123806566Y-91477474D01*
X123608209Y-91519093D01*
X123603250Y-91521051D01*
X123603248Y-91521052D01*
X123398744Y-91601815D01*
X123398742Y-91601816D01*
X123393779Y-91603776D01*
X123389220Y-91606543D01*
X123389217Y-91606544D01*
X123294113Y-91664255D01*
X123196683Y-91723377D01*
X123192653Y-91726874D01*
X123099484Y-91807722D01*
X123022555Y-91874477D01*
X123019168Y-91878608D01*
X122879760Y-92048627D01*
X122879756Y-92048633D01*
X122876376Y-92052755D01*
X122858448Y-92084250D01*
X122807368Y-92133555D01*
X122737738Y-92147417D01*
X122671667Y-92121434D01*
X122644427Y-92092284D01*
X122617814Y-92052755D01*
X122562559Y-91970681D01*
X122503918Y-91909209D01*
X122474725Y-91878608D01*
X122403424Y-91803865D01*
X122218458Y-91666246D01*
X122213707Y-91663830D01*
X122213703Y-91663828D01*
X122095097Y-91603526D01*
X122012949Y-91561760D01*
X122007855Y-91560178D01*
X122007852Y-91560177D01*
X121797871Y-91494976D01*
X121792773Y-91493393D01*
X121787484Y-91492692D01*
X121569511Y-91463802D01*
X121569506Y-91463802D01*
X121564226Y-91463102D01*
X121558897Y-91463302D01*
X121558895Y-91463302D01*
X121449034Y-91467426D01*
X121333842Y-91471751D01*
X121328623Y-91472846D01*
X121306566Y-91477474D01*
X121108209Y-91519093D01*
X121103250Y-91521051D01*
X121103248Y-91521052D01*
X120898744Y-91601815D01*
X120898742Y-91601816D01*
X120893779Y-91603776D01*
X120889220Y-91606543D01*
X120889217Y-91606544D01*
X120794113Y-91664255D01*
X120696683Y-91723377D01*
X120692653Y-91726874D01*
X120599484Y-91807722D01*
X120522555Y-91874477D01*
X120519168Y-91878608D01*
X120379760Y-92048627D01*
X120379756Y-92048633D01*
X120376376Y-92052755D01*
X120358448Y-92084250D01*
X120307368Y-92133555D01*
X120237738Y-92147417D01*
X120171667Y-92121434D01*
X120144427Y-92092284D01*
X120117814Y-92052755D01*
X120062559Y-91970681D01*
X120003918Y-91909209D01*
X119974725Y-91878608D01*
X119903424Y-91803865D01*
X119718458Y-91666246D01*
X119713707Y-91663830D01*
X119713703Y-91663828D01*
X119595097Y-91603526D01*
X119512949Y-91561760D01*
X119507855Y-91560178D01*
X119507852Y-91560177D01*
X119297871Y-91494976D01*
X119292773Y-91493393D01*
X119287484Y-91492692D01*
X119069511Y-91463802D01*
X119069506Y-91463802D01*
X119064226Y-91463102D01*
X119058897Y-91463302D01*
X119058895Y-91463302D01*
X118949034Y-91467426D01*
X118833842Y-91471751D01*
X118828623Y-91472846D01*
X118806566Y-91477474D01*
X118608209Y-91519093D01*
X118603250Y-91521051D01*
X118603248Y-91521052D01*
X118398744Y-91601815D01*
X118398742Y-91601816D01*
X118393779Y-91603776D01*
X118389220Y-91606543D01*
X118389217Y-91606544D01*
X118294113Y-91664255D01*
X118196683Y-91723377D01*
X118192653Y-91726874D01*
X118099484Y-91807722D01*
X118022555Y-91874477D01*
X117993330Y-91910120D01*
X117934671Y-91950114D01*
X117863701Y-91952046D01*
X117802952Y-91915302D01*
X117788752Y-91896532D01*
X117702332Y-91756880D01*
X117698478Y-91750652D01*
X117573303Y-91625695D01*
X117542965Y-91606994D01*
X117428968Y-91536725D01*
X117428966Y-91536724D01*
X117422738Y-91532885D01*
X117309353Y-91495277D01*
X117261389Y-91479368D01*
X117261387Y-91479368D01*
X117254861Y-91477203D01*
X117248025Y-91476503D01*
X117248022Y-91476502D01*
X117204969Y-91472091D01*
X117150400Y-91466500D01*
X115849600Y-91466500D01*
X115846354Y-91466837D01*
X115846350Y-91466837D01*
X115750692Y-91476762D01*
X115750688Y-91476763D01*
X115743834Y-91477474D01*
X115737298Y-91479655D01*
X115737296Y-91479655D01*
X115605194Y-91523728D01*
X115576054Y-91533450D01*
X115425652Y-91626522D01*
X115300695Y-91751697D01*
X115296855Y-91757927D01*
X115296854Y-91757928D01*
X115218161Y-91885592D01*
X115207885Y-91902262D01*
X115186472Y-91966822D01*
X115156432Y-92057390D01*
X115152203Y-92070139D01*
X115151503Y-92076975D01*
X115151502Y-92076978D01*
X115145266Y-92137843D01*
X115118425Y-92203570D01*
X115060309Y-92244352D01*
X115019922Y-92251000D01*
X113328589Y-92251000D01*
X113320019Y-92250708D01*
X113270724Y-92247347D01*
X113270720Y-92247347D01*
X113263148Y-92246831D01*
X113255671Y-92248136D01*
X113255670Y-92248136D01*
X113238504Y-92251132D01*
X113201085Y-92257663D01*
X113194568Y-92258624D01*
X113180461Y-92260331D01*
X113139582Y-92265278D01*
X113139579Y-92265279D01*
X113132040Y-92266191D01*
X113124931Y-92268877D01*
X113121488Y-92269723D01*
X113107363Y-92273586D01*
X113103958Y-92274614D01*
X113096482Y-92275919D01*
X113038810Y-92301235D01*
X113032715Y-92303723D01*
X112980880Y-92323310D01*
X112980878Y-92323311D01*
X112973778Y-92325994D01*
X112967526Y-92330291D01*
X112964383Y-92331934D01*
X112951635Y-92339029D01*
X112948523Y-92340870D01*
X112941567Y-92343923D01*
X112935539Y-92348549D01*
X112935538Y-92348549D01*
X112930828Y-92352163D01*
X112897854Y-92377465D01*
X112891602Y-92382262D01*
X112886275Y-92386133D01*
X112834348Y-92421821D01*
X112829296Y-92427491D01*
X112829295Y-92427492D01*
X112793490Y-92467679D01*
X112788509Y-92472955D01*
X112385236Y-92876228D01*
X112322924Y-92910254D01*
X112252109Y-92905189D01*
X112195273Y-92862642D01*
X112170462Y-92796122D01*
X112179733Y-92738913D01*
X112186733Y-92722013D01*
X112189783Y-92712627D01*
X112242885Y-92491446D01*
X112244428Y-92481699D01*
X112262275Y-92254930D01*
X112262275Y-92245070D01*
X112244428Y-92018301D01*
X112242885Y-92008554D01*
X112189783Y-91787373D01*
X112186734Y-91777988D01*
X112099687Y-91567837D01*
X112095205Y-91559042D01*
X111992568Y-91391555D01*
X111982110Y-91382093D01*
X111973334Y-91385876D01*
X109888920Y-93470290D01*
X109882160Y-93482670D01*
X109887887Y-93490320D01*
X110059042Y-93595205D01*
X110067837Y-93599687D01*
X110277988Y-93686734D01*
X110287373Y-93689783D01*
X110508554Y-93742885D01*
X110518301Y-93744428D01*
X110745070Y-93762275D01*
X110754930Y-93762275D01*
X110981699Y-93744428D01*
X110991446Y-93742885D01*
X111212627Y-93689783D01*
X111222012Y-93686734D01*
X111238916Y-93679732D01*
X111309506Y-93672143D01*
X111372993Y-93703923D01*
X111409220Y-93764981D01*
X111406686Y-93835932D01*
X111376229Y-93885236D01*
X111247370Y-94014095D01*
X111185058Y-94048121D01*
X111158275Y-94051000D01*
X103778589Y-94051000D01*
X103770019Y-94050708D01*
X103720724Y-94047347D01*
X103720720Y-94047347D01*
X103713148Y-94046831D01*
X103705671Y-94048136D01*
X103705670Y-94048136D01*
X103678380Y-94052899D01*
X103651085Y-94057663D01*
X103644568Y-94058624D01*
X103630461Y-94060331D01*
X103589582Y-94065278D01*
X103589579Y-94065279D01*
X103582040Y-94066191D01*
X103574931Y-94068877D01*
X103571488Y-94069723D01*
X103557363Y-94073586D01*
X103553958Y-94074614D01*
X103546482Y-94075919D01*
X103488810Y-94101235D01*
X103482715Y-94103723D01*
X103430880Y-94123310D01*
X103430878Y-94123311D01*
X103423778Y-94125994D01*
X103417526Y-94130291D01*
X103414383Y-94131934D01*
X103401635Y-94139029D01*
X103398523Y-94140870D01*
X103391567Y-94143923D01*
X103385539Y-94148549D01*
X103385538Y-94148549D01*
X103341602Y-94182262D01*
X103336275Y-94186133D01*
X103284348Y-94221821D01*
X103279296Y-94227491D01*
X103279295Y-94227492D01*
X103243490Y-94267679D01*
X103238509Y-94272955D01*
X101775961Y-95735504D01*
X101769696Y-95741357D01*
X101726726Y-95778842D01*
X101690506Y-95830378D01*
X101686573Y-95835673D01*
X101669671Y-95857229D01*
X101611898Y-95898494D01*
X101540986Y-95901974D01*
X101479451Y-95866563D01*
X101474342Y-95860442D01*
X101474176Y-95860584D01*
X101323177Y-95683787D01*
X101319969Y-95680031D01*
X101139416Y-95525824D01*
X101135208Y-95523245D01*
X101135202Y-95523241D01*
X100941183Y-95404346D01*
X100936963Y-95401760D01*
X100932393Y-95399867D01*
X100932389Y-95399865D01*
X100722167Y-95312789D01*
X100722165Y-95312788D01*
X100717594Y-95310895D01*
X100593064Y-95280998D01*
X100491524Y-95256620D01*
X100491518Y-95256619D01*
X100486711Y-95255465D01*
X100250000Y-95236835D01*
X100013289Y-95255465D01*
X100008482Y-95256619D01*
X100008476Y-95256620D01*
X99906936Y-95280998D01*
X99782406Y-95310895D01*
X99777835Y-95312788D01*
X99777833Y-95312789D01*
X99567611Y-95399865D01*
X99567607Y-95399867D01*
X99563037Y-95401760D01*
X99558817Y-95404346D01*
X99364798Y-95523241D01*
X99364792Y-95523245D01*
X99360584Y-95525824D01*
X99180031Y-95680031D01*
X99176823Y-95683787D01*
X99051622Y-95830378D01*
X99025824Y-95860584D01*
X99016104Y-95876445D01*
X98946005Y-95990835D01*
X98893357Y-96038467D01*
X98838573Y-96051000D01*
X95161427Y-96051000D01*
X95093306Y-96030998D01*
X95053995Y-95990835D01*
X94983896Y-95876445D01*
X94974176Y-95860584D01*
X94948378Y-95830378D01*
X94823177Y-95683787D01*
X94819969Y-95680031D01*
X94639416Y-95525824D01*
X94635208Y-95523245D01*
X94635202Y-95523241D01*
X94441183Y-95404346D01*
X94436963Y-95401760D01*
X94432393Y-95399867D01*
X94432389Y-95399865D01*
X94222167Y-95312789D01*
X94222165Y-95312788D01*
X94217594Y-95310895D01*
X94093064Y-95280998D01*
X93991524Y-95256620D01*
X93991518Y-95256619D01*
X93986711Y-95255465D01*
X93750000Y-95236835D01*
X93513289Y-95255465D01*
X93508482Y-95256619D01*
X93508476Y-95256620D01*
X93406936Y-95280998D01*
X93282406Y-95310895D01*
X93277835Y-95312788D01*
X93277833Y-95312789D01*
X93067611Y-95399865D01*
X93067607Y-95399867D01*
X93063037Y-95401760D01*
X93058817Y-95404346D01*
X92864798Y-95523241D01*
X92864792Y-95523245D01*
X92860584Y-95525824D01*
X92680031Y-95680031D01*
X92525824Y-95860584D01*
X92523245Y-95864792D01*
X92523241Y-95864798D01*
X92409315Y-96050708D01*
X92401760Y-96063037D01*
X92399867Y-96067607D01*
X92399865Y-96067611D01*
X92313564Y-96275962D01*
X92310895Y-96282406D01*
X92255465Y-96513289D01*
X92236835Y-96750000D01*
X92255465Y-96986711D01*
X92310895Y-97217594D01*
X92312788Y-97222165D01*
X92312789Y-97222167D01*
X92396610Y-97424529D01*
X92401760Y-97436963D01*
X92404346Y-97441183D01*
X92523241Y-97635202D01*
X92523245Y-97635208D01*
X92525824Y-97639416D01*
X92680031Y-97819969D01*
X92860584Y-97974176D01*
X92864792Y-97976755D01*
X92864798Y-97976759D01*
X93054985Y-98093306D01*
X93063037Y-98098240D01*
X93067607Y-98100133D01*
X93067611Y-98100135D01*
X93277833Y-98187211D01*
X93282406Y-98189105D01*
X93324480Y-98199206D01*
X93508476Y-98243380D01*
X93508482Y-98243381D01*
X93513289Y-98244535D01*
X93750000Y-98263165D01*
X93986711Y-98244535D01*
X93991518Y-98243381D01*
X93991524Y-98243380D01*
X94175520Y-98199206D01*
X94217594Y-98189105D01*
X94222167Y-98187211D01*
X94432389Y-98100135D01*
X94432393Y-98100133D01*
X94436963Y-98098240D01*
X94445015Y-98093306D01*
X94635202Y-97976759D01*
X94635208Y-97976755D01*
X94639416Y-97974176D01*
X94819969Y-97819969D01*
X94851960Y-97782513D01*
X94970963Y-97643178D01*
X94974176Y-97639416D01*
X95026118Y-97554655D01*
X95053995Y-97509165D01*
X95106643Y-97461533D01*
X95161427Y-97449000D01*
X98838573Y-97449000D01*
X98906694Y-97469002D01*
X98946005Y-97509165D01*
X98973882Y-97554655D01*
X99025824Y-97639416D01*
X99029037Y-97643178D01*
X99148041Y-97782513D01*
X99180031Y-97819969D01*
X99183787Y-97823177D01*
X99261657Y-97889684D01*
X99360584Y-97974176D01*
X99411409Y-98005322D01*
X99490835Y-98053995D01*
X99538467Y-98106643D01*
X99551000Y-98161427D01*
X99551000Y-100086695D01*
X99530998Y-100154816D01*
X99512199Y-100175571D01*
X99513152Y-100176522D01*
X99388195Y-100301697D01*
X99385398Y-100306235D01*
X99328147Y-100346824D01*
X99257224Y-100350054D01*
X99195813Y-100314428D01*
X99188438Y-100305932D01*
X99180402Y-100295793D01*
X99065671Y-100181261D01*
X99054260Y-100172249D01*
X98916257Y-100087184D01*
X98903076Y-100081037D01*
X98748790Y-100029862D01*
X98735414Y-100026995D01*
X98641062Y-100017328D01*
X98634645Y-100017000D01*
X98522115Y-100017000D01*
X98506876Y-100021475D01*
X98505671Y-100022865D01*
X98504000Y-100030548D01*
X98504000Y-102464884D01*
X98508475Y-102480123D01*
X98509865Y-102481328D01*
X98517548Y-102482999D01*
X98634595Y-102482999D01*
X98641114Y-102482662D01*
X98736706Y-102472743D01*
X98750100Y-102469851D01*
X98904284Y-102418412D01*
X98917462Y-102412239D01*
X99055307Y-102326937D01*
X99066708Y-102317901D01*
X99181238Y-102203172D01*
X99188294Y-102194238D01*
X99246212Y-102153177D01*
X99317135Y-102149947D01*
X99378546Y-102185574D01*
X99385346Y-102193407D01*
X99389022Y-102199348D01*
X99514197Y-102324305D01*
X99520427Y-102328145D01*
X99520428Y-102328146D01*
X99657788Y-102412816D01*
X99664762Y-102417115D01*
X99715018Y-102433784D01*
X99826111Y-102470632D01*
X99826113Y-102470632D01*
X99832639Y-102472797D01*
X99839475Y-102473497D01*
X99839478Y-102473498D01*
X99882531Y-102477909D01*
X99937100Y-102483500D01*
X100712900Y-102483500D01*
X100716146Y-102483163D01*
X100716150Y-102483163D01*
X100811808Y-102473238D01*
X100811812Y-102473237D01*
X100818666Y-102472526D01*
X100825202Y-102470345D01*
X100825204Y-102470345D01*
X100957306Y-102426272D01*
X100986446Y-102416550D01*
X101136848Y-102323478D01*
X101261805Y-102198303D01*
X101330249Y-102087267D01*
X101383020Y-102039775D01*
X101453092Y-102028351D01*
X101518216Y-102056625D01*
X101557715Y-102115619D01*
X101562595Y-102138245D01*
X101566191Y-102167960D01*
X101568875Y-102175063D01*
X101569719Y-102178500D01*
X101573583Y-102192623D01*
X101574613Y-102196034D01*
X101575919Y-102203517D01*
X101578972Y-102210472D01*
X101601239Y-102261198D01*
X101603730Y-102267304D01*
X101625994Y-102326222D01*
X101630293Y-102332477D01*
X101631935Y-102335618D01*
X101639033Y-102348372D01*
X101640870Y-102351478D01*
X101643923Y-102358433D01*
X101648548Y-102364460D01*
X101648550Y-102364464D01*
X101682265Y-102408402D01*
X101686129Y-102413720D01*
X101721821Y-102465652D01*
X101767707Y-102506535D01*
X101772963Y-102511498D01*
X101782359Y-102520894D01*
X101816385Y-102583206D01*
X101811320Y-102654021D01*
X101782359Y-102699084D01*
X100226848Y-104254595D01*
X100164536Y-104288621D01*
X100137753Y-104291500D01*
X99849600Y-104291500D01*
X99846354Y-104291837D01*
X99846350Y-104291837D01*
X99750692Y-104301762D01*
X99750688Y-104301763D01*
X99743834Y-104302474D01*
X99737298Y-104304655D01*
X99737296Y-104304655D01*
X99605194Y-104348728D01*
X99576054Y-104358450D01*
X99425652Y-104451522D01*
X99420479Y-104456704D01*
X99339216Y-104538109D01*
X99276934Y-104572188D01*
X99206114Y-104567185D01*
X99161025Y-104538264D01*
X99078483Y-104455866D01*
X99073303Y-104450695D01*
X99047030Y-104434500D01*
X98928968Y-104361725D01*
X98928966Y-104361724D01*
X98922738Y-104357885D01*
X98842995Y-104331436D01*
X98761389Y-104304368D01*
X98761387Y-104304368D01*
X98754861Y-104302203D01*
X98748025Y-104301503D01*
X98748022Y-104301502D01*
X98704969Y-104297091D01*
X98650400Y-104291500D01*
X97849600Y-104291500D01*
X97846354Y-104291837D01*
X97846350Y-104291837D01*
X97750692Y-104301762D01*
X97750688Y-104301763D01*
X97743834Y-104302474D01*
X97737298Y-104304655D01*
X97737296Y-104304655D01*
X97605194Y-104348728D01*
X97576054Y-104358450D01*
X97425652Y-104451522D01*
X97300695Y-104576697D01*
X97296855Y-104582927D01*
X97296854Y-104582928D01*
X97213419Y-104718285D01*
X97207885Y-104727262D01*
X97185801Y-104793843D01*
X97160400Y-104870427D01*
X97152203Y-104895139D01*
X97141500Y-104999600D01*
X97141500Y-106000400D01*
X97141837Y-106003646D01*
X97141837Y-106003650D01*
X97151492Y-106096698D01*
X97152474Y-106106166D01*
X97208450Y-106273946D01*
X97301522Y-106424348D01*
X97426697Y-106549305D01*
X97432927Y-106553145D01*
X97432928Y-106553146D01*
X97570090Y-106637694D01*
X97577262Y-106642115D01*
X97626662Y-106658500D01*
X97738611Y-106695632D01*
X97738613Y-106695632D01*
X97745139Y-106697797D01*
X97751975Y-106698497D01*
X97751978Y-106698498D01*
X97789166Y-106702308D01*
X97849600Y-106708500D01*
X98417775Y-106708500D01*
X98485896Y-106728502D01*
X98506870Y-106745405D01*
X101139442Y-109377977D01*
X101173468Y-109440289D01*
X101168403Y-109511104D01*
X101125856Y-109567940D01*
X101085846Y-109587968D01*
X101056876Y-109596475D01*
X101055671Y-109597865D01*
X101054000Y-109605548D01*
X101054000Y-110827885D01*
X101058475Y-110843124D01*
X101059865Y-110844329D01*
X101067548Y-110846000D01*
X102039884Y-110846000D01*
X102055123Y-110841525D01*
X102056328Y-110840135D01*
X102057999Y-110832452D01*
X102057999Y-110055331D01*
X102057630Y-110048521D01*
X102056553Y-110038602D01*
X102069085Y-109968720D01*
X102117408Y-109916707D01*
X102181817Y-109899000D01*
X104700230Y-109899000D01*
X104764369Y-109916547D01*
X104829571Y-109955107D01*
X104836399Y-109959145D01*
X104844010Y-109961356D01*
X104844012Y-109961357D01*
X104896231Y-109976528D01*
X104996169Y-110005562D01*
X105002574Y-110006066D01*
X105002579Y-110006067D01*
X105031042Y-110008307D01*
X105031050Y-110008307D01*
X105033498Y-110008500D01*
X106341502Y-110008500D01*
X106343950Y-110008307D01*
X106343958Y-110008307D01*
X106372421Y-110006067D01*
X106372426Y-110006066D01*
X106378831Y-110005562D01*
X106478769Y-109976528D01*
X106530988Y-109961357D01*
X106530990Y-109961356D01*
X106538601Y-109959145D01*
X106567411Y-109942107D01*
X106674980Y-109878491D01*
X106674983Y-109878489D01*
X106681807Y-109874453D01*
X106799453Y-109756807D01*
X106803489Y-109749983D01*
X106803491Y-109749980D01*
X106880108Y-109620427D01*
X106884145Y-109613601D01*
X106887798Y-109601029D01*
X106920090Y-109489877D01*
X106930562Y-109453831D01*
X106930982Y-109448493D01*
X106962723Y-109385423D01*
X107023860Y-109349328D01*
X107094805Y-109352015D01*
X107143851Y-109382386D01*
X107264095Y-109502630D01*
X107298121Y-109564942D01*
X107301000Y-109591725D01*
X107301000Y-115120221D01*
X107280998Y-115188342D01*
X107268641Y-115204525D01*
X107260960Y-115213056D01*
X107255001Y-115223377D01*
X107180245Y-115352859D01*
X107165473Y-115378444D01*
X107106458Y-115560072D01*
X107105768Y-115566633D01*
X107105768Y-115566635D01*
X107090270Y-115714095D01*
X107086496Y-115750000D01*
X107087186Y-115756565D01*
X107102370Y-115901029D01*
X107106458Y-115939928D01*
X107165473Y-116121556D01*
X107168776Y-116127278D01*
X107168777Y-116127279D01*
X107185169Y-116155670D01*
X107260960Y-116286944D01*
X107265378Y-116291851D01*
X107265379Y-116291852D01*
X107330062Y-116363690D01*
X107360780Y-116427697D01*
X107352015Y-116498151D01*
X107306552Y-116552682D01*
X107236426Y-116574000D01*
X105053076Y-116574000D01*
X104984955Y-116553998D01*
X104938462Y-116500342D01*
X104928358Y-116430068D01*
X104957852Y-116365488D01*
X105013199Y-116328477D01*
X105041993Y-116318870D01*
X105041995Y-116318869D01*
X105048946Y-116316550D01*
X105199348Y-116223478D01*
X105324305Y-116098303D01*
X105365571Y-116031358D01*
X105413275Y-115953968D01*
X105413276Y-115953966D01*
X105417115Y-115947738D01*
X105472797Y-115779861D01*
X105474269Y-115765500D01*
X105483172Y-115678598D01*
X105483500Y-115675400D01*
X105483500Y-114899600D01*
X105472526Y-114793834D01*
X105416550Y-114626054D01*
X105323478Y-114475652D01*
X105198303Y-114350695D01*
X105193765Y-114347898D01*
X105153176Y-114290647D01*
X105149946Y-114219724D01*
X105185572Y-114158313D01*
X105194068Y-114150938D01*
X105204207Y-114142902D01*
X105318739Y-114028171D01*
X105327751Y-114016760D01*
X105412816Y-113878757D01*
X105418963Y-113865576D01*
X105470138Y-113711290D01*
X105473005Y-113697914D01*
X105482672Y-113603562D01*
X105483000Y-113597146D01*
X105483000Y-113484615D01*
X105478525Y-113469376D01*
X105477135Y-113468171D01*
X105469452Y-113466500D01*
X103035116Y-113466500D01*
X103019877Y-113470975D01*
X103018672Y-113472365D01*
X103017001Y-113480048D01*
X103017001Y-113597095D01*
X103017338Y-113603614D01*
X103027257Y-113699206D01*
X103030149Y-113712600D01*
X103081588Y-113866784D01*
X103087761Y-113879962D01*
X103173063Y-114017807D01*
X103182099Y-114029208D01*
X103296828Y-114143738D01*
X103305762Y-114150794D01*
X103346823Y-114208712D01*
X103350053Y-114279635D01*
X103314426Y-114341046D01*
X103306593Y-114347846D01*
X103300652Y-114351522D01*
X103175695Y-114476697D01*
X103082885Y-114627262D01*
X103027203Y-114795139D01*
X103016500Y-114899600D01*
X103016500Y-115300669D01*
X102996498Y-115368790D01*
X102979595Y-115389764D01*
X101832265Y-116537095D01*
X101769953Y-116571120D01*
X101743170Y-116574000D01*
X101034500Y-116574000D01*
X100966379Y-116553998D01*
X100919886Y-116500342D01*
X100908500Y-116448000D01*
X100908500Y-116351866D01*
X100901745Y-116289684D01*
X100850615Y-116153295D01*
X100763261Y-116036739D01*
X100646705Y-115949385D01*
X100510316Y-115898255D01*
X100448134Y-115891500D01*
X99452000Y-115891500D01*
X99383879Y-115871498D01*
X99337386Y-115817842D01*
X99326000Y-115765500D01*
X99326000Y-112940385D01*
X103017000Y-112940385D01*
X103021475Y-112955624D01*
X103022865Y-112956829D01*
X103030548Y-112958500D01*
X103977885Y-112958500D01*
X103993124Y-112954025D01*
X103994329Y-112952635D01*
X103996000Y-112944952D01*
X103996000Y-112940385D01*
X104504000Y-112940385D01*
X104508475Y-112955624D01*
X104509865Y-112956829D01*
X104517548Y-112958500D01*
X105464884Y-112958500D01*
X105480123Y-112954025D01*
X105481328Y-112952635D01*
X105482999Y-112944952D01*
X105482999Y-112827905D01*
X105482662Y-112821386D01*
X105472743Y-112725794D01*
X105469851Y-112712400D01*
X105418412Y-112558216D01*
X105412239Y-112545038D01*
X105326937Y-112407193D01*
X105317901Y-112395792D01*
X105203171Y-112281261D01*
X105191760Y-112272249D01*
X105053757Y-112187184D01*
X105040576Y-112181037D01*
X104886290Y-112129862D01*
X104872914Y-112126995D01*
X104778562Y-112117328D01*
X104772145Y-112117000D01*
X104522115Y-112117000D01*
X104506876Y-112121475D01*
X104505671Y-112122865D01*
X104504000Y-112130548D01*
X104504000Y-112940385D01*
X103996000Y-112940385D01*
X103996000Y-112135116D01*
X103991525Y-112119877D01*
X103990135Y-112118672D01*
X103982452Y-112117001D01*
X103727905Y-112117001D01*
X103721386Y-112117338D01*
X103625794Y-112127257D01*
X103612400Y-112130149D01*
X103458216Y-112181588D01*
X103445038Y-112187761D01*
X103307193Y-112273063D01*
X103295792Y-112282099D01*
X103181261Y-112396829D01*
X103172249Y-112408240D01*
X103087184Y-112546243D01*
X103081037Y-112559424D01*
X103029862Y-112713710D01*
X103026995Y-112727086D01*
X103017328Y-112821438D01*
X103017000Y-112827855D01*
X103017000Y-112940385D01*
X99326000Y-112940385D01*
X99326000Y-112701937D01*
X99346002Y-112633816D01*
X99399658Y-112587323D01*
X99407771Y-112583955D01*
X99488295Y-112553768D01*
X99488296Y-112553767D01*
X99496705Y-112550615D01*
X99574852Y-112492047D01*
X99641358Y-112467199D01*
X99710741Y-112482252D01*
X99725982Y-112492047D01*
X99796352Y-112544786D01*
X99811946Y-112553324D01*
X99932394Y-112598478D01*
X99947649Y-112602105D01*
X99998514Y-112607631D01*
X100005328Y-112608000D01*
X100527885Y-112608000D01*
X100543124Y-112603525D01*
X100544329Y-112602135D01*
X100546000Y-112594452D01*
X100546000Y-112589884D01*
X101054000Y-112589884D01*
X101058475Y-112605123D01*
X101059865Y-112606328D01*
X101067548Y-112607999D01*
X101594669Y-112607999D01*
X101601490Y-112607629D01*
X101652352Y-112602105D01*
X101667604Y-112598479D01*
X101788054Y-112553324D01*
X101803649Y-112544786D01*
X101905724Y-112468285D01*
X101918285Y-112455724D01*
X101994786Y-112353649D01*
X102003324Y-112338054D01*
X102048478Y-112217606D01*
X102052105Y-112202351D01*
X102057631Y-112151486D01*
X102058000Y-112144672D01*
X102058000Y-111372115D01*
X102053525Y-111356876D01*
X102052135Y-111355671D01*
X102044452Y-111354000D01*
X101072115Y-111354000D01*
X101056876Y-111358475D01*
X101055671Y-111359865D01*
X101054000Y-111367548D01*
X101054000Y-112589884D01*
X100546000Y-112589884D01*
X100546000Y-109610116D01*
X100541525Y-109594877D01*
X100540135Y-109593672D01*
X100532452Y-109592001D01*
X100005331Y-109592001D01*
X99998510Y-109592371D01*
X99947648Y-109597895D01*
X99932396Y-109601521D01*
X99811946Y-109646676D01*
X99796352Y-109655214D01*
X99725982Y-109707953D01*
X99659476Y-109732801D01*
X99590093Y-109717748D01*
X99574852Y-109707953D01*
X99559885Y-109696736D01*
X99496705Y-109649385D01*
X99360316Y-109598255D01*
X99298134Y-109591500D01*
X97701866Y-109591500D01*
X97639684Y-109598255D01*
X97503295Y-109649385D01*
X97496110Y-109654770D01*
X97496108Y-109654771D01*
X97425565Y-109707640D01*
X97359058Y-109732488D01*
X97289676Y-109717435D01*
X97274435Y-109707640D01*
X97203892Y-109654771D01*
X97203890Y-109654770D01*
X97196705Y-109649385D01*
X97188296Y-109646233D01*
X97188295Y-109646232D01*
X97107771Y-109616045D01*
X97051006Y-109573404D01*
X97026306Y-109506842D01*
X97026000Y-109498063D01*
X97026000Y-108740035D01*
X97026442Y-108729492D01*
X97030052Y-108686499D01*
X97030623Y-108679701D01*
X97024857Y-108636483D01*
X97020295Y-108602288D01*
X97019925Y-108599234D01*
X97012226Y-108528364D01*
X97012225Y-108528361D01*
X97011489Y-108521583D01*
X97009315Y-108515122D01*
X97008794Y-108512753D01*
X97008697Y-108512204D01*
X97008525Y-108511463D01*
X97008368Y-108510923D01*
X97007790Y-108508571D01*
X97006888Y-108501810D01*
X96980178Y-108428425D01*
X96979161Y-108425522D01*
X96975035Y-108413261D01*
X96954246Y-108351489D01*
X96950731Y-108345639D01*
X96949718Y-108343447D01*
X96949506Y-108342932D01*
X96949173Y-108342234D01*
X96948900Y-108341733D01*
X96947840Y-108339579D01*
X96945506Y-108333166D01*
X96903623Y-108267169D01*
X96902098Y-108264700D01*
X96861814Y-108197656D01*
X96857122Y-108192694D01*
X96855663Y-108190772D01*
X96855024Y-108189851D01*
X96852115Y-108186005D01*
X96849343Y-108181637D01*
X96845677Y-108177537D01*
X96793772Y-108125632D01*
X96791319Y-108123110D01*
X96743198Y-108072223D01*
X96743194Y-108072220D01*
X96738504Y-108067260D01*
X96732857Y-108063422D01*
X96728005Y-108059293D01*
X96720575Y-108052435D01*
X94374180Y-105706040D01*
X94343442Y-105655882D01*
X94334527Y-105628444D01*
X94239040Y-105463056D01*
X94164779Y-105380580D01*
X94115675Y-105326045D01*
X94115674Y-105326044D01*
X94111253Y-105321134D01*
X93956752Y-105208882D01*
X93950724Y-105206198D01*
X93950722Y-105206197D01*
X93788319Y-105133891D01*
X93788318Y-105133891D01*
X93782288Y-105131206D01*
X93675348Y-105108475D01*
X93601944Y-105092872D01*
X93601939Y-105092872D01*
X93595487Y-105091500D01*
X93404513Y-105091500D01*
X93398061Y-105092872D01*
X93398056Y-105092872D01*
X93324652Y-105108475D01*
X93217712Y-105131206D01*
X93211682Y-105133891D01*
X93211681Y-105133891D01*
X93049278Y-105206197D01*
X93049276Y-105206198D01*
X93043248Y-105208882D01*
X92888747Y-105321134D01*
X92884326Y-105326044D01*
X92884325Y-105326045D01*
X92835222Y-105380580D01*
X92760960Y-105463056D01*
X92665473Y-105628444D01*
X92606458Y-105810072D01*
X92605768Y-105816633D01*
X92605768Y-105816635D01*
X92603728Y-105836043D01*
X92586496Y-106000000D01*
X92587186Y-106006565D01*
X92598342Y-106112704D01*
X92606458Y-106189928D01*
X92650275Y-106324782D01*
X92652303Y-106395748D01*
X92615640Y-106456546D01*
X92551928Y-106487871D01*
X92481394Y-106479779D01*
X92441347Y-106452812D01*
X91795405Y-105806870D01*
X91761379Y-105744558D01*
X91758500Y-105717775D01*
X91758500Y-105601866D01*
X91751745Y-105539684D01*
X91700615Y-105403295D01*
X91613261Y-105286739D01*
X91496705Y-105199385D01*
X91360316Y-105148255D01*
X91298134Y-105141500D01*
X91132225Y-105141500D01*
X91064104Y-105121498D01*
X91043130Y-105104595D01*
X91011629Y-105073094D01*
X90977603Y-105010782D01*
X90982668Y-104939967D01*
X91025215Y-104883131D01*
X91091735Y-104858320D01*
X91100724Y-104857999D01*
X91294669Y-104857999D01*
X91301490Y-104857629D01*
X91352352Y-104852105D01*
X91367604Y-104848479D01*
X91488054Y-104803324D01*
X91503649Y-104794786D01*
X91605724Y-104718285D01*
X91618285Y-104705724D01*
X91694786Y-104603649D01*
X91703324Y-104588054D01*
X91748478Y-104467606D01*
X91752105Y-104452351D01*
X91757631Y-104401486D01*
X91758000Y-104394672D01*
X91758000Y-104272115D01*
X91753525Y-104256876D01*
X91752135Y-104255671D01*
X91744452Y-104254000D01*
X90622000Y-104254000D01*
X90553879Y-104233998D01*
X90507386Y-104180342D01*
X90496000Y-104128000D01*
X90496000Y-103872000D01*
X90516002Y-103803879D01*
X90569658Y-103757386D01*
X90622000Y-103746000D01*
X91739884Y-103746000D01*
X91755123Y-103741525D01*
X91756328Y-103740135D01*
X91757999Y-103732452D01*
X91757999Y-103605331D01*
X91757629Y-103598510D01*
X91752105Y-103547648D01*
X91748479Y-103532396D01*
X91703324Y-103411946D01*
X91694786Y-103396351D01*
X91618285Y-103294276D01*
X91605724Y-103281715D01*
X91503649Y-103205214D01*
X91488054Y-103196676D01*
X91367606Y-103151522D01*
X91352351Y-103147895D01*
X91301486Y-103142369D01*
X91294672Y-103142000D01*
X91254607Y-103142000D01*
X91186486Y-103121998D01*
X91139993Y-103068342D01*
X91129889Y-102998068D01*
X91159383Y-102933488D01*
X91165512Y-102926905D01*
X92017430Y-102074987D01*
X92079742Y-102040961D01*
X92150557Y-102046026D01*
X92207393Y-102088573D01*
X92213668Y-102097778D01*
X92276522Y-102199348D01*
X92401697Y-102324305D01*
X92407927Y-102328145D01*
X92407928Y-102328146D01*
X92545288Y-102412816D01*
X92552262Y-102417115D01*
X92602518Y-102433784D01*
X92713611Y-102470632D01*
X92713613Y-102470632D01*
X92720139Y-102472797D01*
X92726975Y-102473497D01*
X92726978Y-102473498D01*
X92770031Y-102477909D01*
X92824600Y-102483500D01*
X93600400Y-102483500D01*
X93603646Y-102483163D01*
X93603650Y-102483163D01*
X93699308Y-102473238D01*
X93699312Y-102473237D01*
X93706166Y-102472526D01*
X93712702Y-102470345D01*
X93712704Y-102470345D01*
X93844806Y-102426272D01*
X93873946Y-102416550D01*
X94024348Y-102323478D01*
X94149305Y-102198303D01*
X94152102Y-102193765D01*
X94209353Y-102153176D01*
X94280276Y-102149946D01*
X94341687Y-102185572D01*
X94349062Y-102194068D01*
X94357098Y-102204207D01*
X94471829Y-102318739D01*
X94483240Y-102327751D01*
X94621243Y-102412816D01*
X94634424Y-102418963D01*
X94788710Y-102470138D01*
X94802086Y-102473005D01*
X94896438Y-102482672D01*
X94902854Y-102483000D01*
X95015385Y-102483000D01*
X95030624Y-102478525D01*
X95031829Y-102477135D01*
X95033500Y-102469452D01*
X95033500Y-102464884D01*
X95541500Y-102464884D01*
X95545975Y-102480123D01*
X95547365Y-102481328D01*
X95555048Y-102482999D01*
X95672095Y-102482999D01*
X95678614Y-102482662D01*
X95774206Y-102472743D01*
X95787600Y-102469851D01*
X95941784Y-102418412D01*
X95954962Y-102412239D01*
X96092807Y-102326937D01*
X96104208Y-102317901D01*
X96218739Y-102203171D01*
X96227751Y-102191760D01*
X96312816Y-102053757D01*
X96318963Y-102040576D01*
X96370138Y-101886290D01*
X96373005Y-101872914D01*
X96382672Y-101778562D01*
X96383000Y-101772146D01*
X96383000Y-101772095D01*
X97154501Y-101772095D01*
X97154838Y-101778614D01*
X97164757Y-101874206D01*
X97167649Y-101887600D01*
X97219088Y-102041784D01*
X97225261Y-102054962D01*
X97310563Y-102192807D01*
X97319599Y-102204208D01*
X97434329Y-102318739D01*
X97445740Y-102327751D01*
X97583743Y-102412816D01*
X97596924Y-102418963D01*
X97751210Y-102470138D01*
X97764586Y-102473005D01*
X97858938Y-102482672D01*
X97865354Y-102483000D01*
X97977885Y-102483000D01*
X97993124Y-102478525D01*
X97994329Y-102477135D01*
X97996000Y-102469452D01*
X97996000Y-101522115D01*
X97991525Y-101506876D01*
X97990135Y-101505671D01*
X97982452Y-101504000D01*
X97172616Y-101504000D01*
X97157377Y-101508475D01*
X97156172Y-101509865D01*
X97154501Y-101517548D01*
X97154501Y-101772095D01*
X96383000Y-101772095D01*
X96383000Y-101522115D01*
X96378525Y-101506876D01*
X96377135Y-101505671D01*
X96369452Y-101504000D01*
X95559615Y-101504000D01*
X95544376Y-101508475D01*
X95543171Y-101509865D01*
X95541500Y-101517548D01*
X95541500Y-102464884D01*
X95033500Y-102464884D01*
X95033500Y-100977885D01*
X95541500Y-100977885D01*
X95545975Y-100993124D01*
X95547365Y-100994329D01*
X95555048Y-100996000D01*
X96364884Y-100996000D01*
X96380123Y-100991525D01*
X96381328Y-100990135D01*
X96382999Y-100982452D01*
X96382999Y-100977885D01*
X97154500Y-100977885D01*
X97158975Y-100993124D01*
X97160365Y-100994329D01*
X97168048Y-100996000D01*
X97977885Y-100996000D01*
X97993124Y-100991525D01*
X97994329Y-100990135D01*
X97996000Y-100982452D01*
X97996000Y-100035116D01*
X97991525Y-100019877D01*
X97990135Y-100018672D01*
X97982452Y-100017001D01*
X97865405Y-100017001D01*
X97858886Y-100017338D01*
X97763294Y-100027257D01*
X97749900Y-100030149D01*
X97595716Y-100081588D01*
X97582538Y-100087761D01*
X97444693Y-100173063D01*
X97433292Y-100182099D01*
X97318761Y-100296829D01*
X97309749Y-100308240D01*
X97224684Y-100446243D01*
X97218537Y-100459424D01*
X97167362Y-100613710D01*
X97164495Y-100627086D01*
X97154828Y-100721438D01*
X97154500Y-100727855D01*
X97154500Y-100977885D01*
X96382999Y-100977885D01*
X96382999Y-100727905D01*
X96382662Y-100721386D01*
X96372743Y-100625794D01*
X96369851Y-100612400D01*
X96318412Y-100458216D01*
X96312239Y-100445038D01*
X96226937Y-100307193D01*
X96217901Y-100295792D01*
X96103171Y-100181261D01*
X96091760Y-100172249D01*
X95953757Y-100087184D01*
X95940576Y-100081037D01*
X95786290Y-100029862D01*
X95772914Y-100026995D01*
X95678562Y-100017328D01*
X95672145Y-100017000D01*
X95559615Y-100017000D01*
X95544376Y-100021475D01*
X95543171Y-100022865D01*
X95541500Y-100030548D01*
X95541500Y-100977885D01*
X95033500Y-100977885D01*
X95033500Y-100035116D01*
X95029025Y-100019877D01*
X95027635Y-100018672D01*
X95019952Y-100017001D01*
X94902905Y-100017001D01*
X94896386Y-100017338D01*
X94800794Y-100027257D01*
X94787400Y-100030149D01*
X94633216Y-100081588D01*
X94620038Y-100087761D01*
X94482193Y-100173063D01*
X94470792Y-100182099D01*
X94356262Y-100296828D01*
X94349206Y-100305762D01*
X94291288Y-100346823D01*
X94220365Y-100350053D01*
X94158954Y-100314426D01*
X94152154Y-100306593D01*
X94148478Y-100300652D01*
X94023303Y-100175695D01*
X94000640Y-100161725D01*
X93878968Y-100086725D01*
X93878966Y-100086724D01*
X93872738Y-100082885D01*
X93757580Y-100044689D01*
X93711389Y-100029368D01*
X93711387Y-100029368D01*
X93704861Y-100027203D01*
X93698025Y-100026503D01*
X93698022Y-100026502D01*
X93654969Y-100022091D01*
X93600400Y-100016500D01*
X93460856Y-100016500D01*
X93392735Y-99996498D01*
X93346242Y-99942842D01*
X93336138Y-99872568D01*
X93341023Y-99851564D01*
X93383435Y-99721035D01*
X93393542Y-99689928D01*
X93395290Y-99673303D01*
X93412814Y-99506565D01*
X93413504Y-99500000D01*
X93412814Y-99493435D01*
X93394232Y-99316635D01*
X93394232Y-99316633D01*
X93393542Y-99310072D01*
X93334527Y-99128444D01*
X93329694Y-99120072D01*
X93274617Y-99024677D01*
X93239040Y-98963056D01*
X93223352Y-98945632D01*
X93115675Y-98826045D01*
X93115674Y-98826044D01*
X93111253Y-98821134D01*
X92956752Y-98708882D01*
X92839696Y-98656766D01*
X92814418Y-98641757D01*
X92774235Y-98611035D01*
X92760934Y-98600866D01*
X92758514Y-98598968D01*
X92702968Y-98554307D01*
X92697650Y-98550031D01*
X92691540Y-98546998D01*
X92689504Y-98545696D01*
X92689048Y-98545377D01*
X92688390Y-98544967D01*
X92687900Y-98544698D01*
X92685834Y-98543447D01*
X92680414Y-98539303D01*
X92609646Y-98506304D01*
X92606875Y-98504970D01*
X92585455Y-98494337D01*
X92536898Y-98470233D01*
X92530273Y-98468581D01*
X92528006Y-98467747D01*
X92527481Y-98467528D01*
X92526777Y-98467279D01*
X92526227Y-98467117D01*
X92523943Y-98466339D01*
X92517761Y-98463457D01*
X92511103Y-98461969D01*
X92511095Y-98461966D01*
X92441542Y-98446419D01*
X92438546Y-98445711D01*
X92369385Y-98428467D01*
X92369382Y-98428467D01*
X92362762Y-98426816D01*
X92355941Y-98426625D01*
X92353544Y-98426297D01*
X92352430Y-98426096D01*
X92347656Y-98425434D01*
X92342616Y-98424307D01*
X92337125Y-98424000D01*
X92263711Y-98424000D01*
X92260193Y-98423951D01*
X92259283Y-98423926D01*
X92183365Y-98421805D01*
X92176658Y-98423084D01*
X92170323Y-98423594D01*
X92160216Y-98424000D01*
X91734500Y-98424000D01*
X91666379Y-98403998D01*
X91619886Y-98350342D01*
X91608500Y-98298000D01*
X91608500Y-97951866D01*
X91601745Y-97889684D01*
X91550615Y-97753295D01*
X91463261Y-97636739D01*
X91346705Y-97549385D01*
X91210316Y-97498255D01*
X91148134Y-97491500D01*
X89480830Y-97491500D01*
X89412709Y-97471498D01*
X89366216Y-97417842D01*
X89356112Y-97347568D01*
X89385606Y-97282988D01*
X89391735Y-97276405D01*
X89622735Y-97045405D01*
X89685047Y-97011379D01*
X89711830Y-97008500D01*
X91148134Y-97008500D01*
X91210316Y-97001745D01*
X91346705Y-96950615D01*
X91463261Y-96863261D01*
X91550615Y-96746705D01*
X91601745Y-96610316D01*
X91608500Y-96548134D01*
X91608500Y-93951866D01*
X91601745Y-93889684D01*
X91550615Y-93753295D01*
X91463261Y-93636739D01*
X91346705Y-93549385D01*
X91210316Y-93498255D01*
X91148134Y-93491500D01*
X89351866Y-93491500D01*
X89289684Y-93498255D01*
X89153295Y-93549385D01*
X89036739Y-93636739D01*
X88949385Y-93753295D01*
X88898255Y-93889684D01*
X88891500Y-93951866D01*
X88891500Y-95388170D01*
X88871498Y-95456291D01*
X88854595Y-95477265D01*
X86827265Y-97504595D01*
X86764953Y-97538621D01*
X86738170Y-97541500D01*
X86649600Y-97541500D01*
X86646354Y-97541837D01*
X86646350Y-97541837D01*
X86550692Y-97551762D01*
X86550688Y-97551763D01*
X86543834Y-97552474D01*
X86537298Y-97554655D01*
X86537296Y-97554655D01*
X86459539Y-97580597D01*
X86376054Y-97608450D01*
X86225652Y-97701522D01*
X86100695Y-97826697D01*
X86098094Y-97830916D01*
X86040970Y-97871417D01*
X85970047Y-97874649D01*
X85908635Y-97839024D01*
X85902078Y-97831470D01*
X85898478Y-97825652D01*
X85773303Y-97700695D01*
X85767072Y-97696854D01*
X85628968Y-97611725D01*
X85628966Y-97611724D01*
X85622738Y-97607885D01*
X85600189Y-97600406D01*
X85541829Y-97559975D01*
X85514593Y-97494410D01*
X85527127Y-97424529D01*
X85575452Y-97372517D01*
X85607246Y-97359106D01*
X85894215Y-97282212D01*
X85900498Y-97280171D01*
X86257164Y-97143260D01*
X86263189Y-97140578D01*
X86603606Y-96967127D01*
X86609315Y-96963830D01*
X86929728Y-96755751D01*
X86935065Y-96751874D01*
X87173835Y-96558522D01*
X87182300Y-96546267D01*
X87175966Y-96535176D01*
X84762812Y-94122022D01*
X84748868Y-94114408D01*
X84747035Y-94114539D01*
X84740420Y-94118790D01*
X82324900Y-96534310D01*
X82317759Y-96547386D01*
X82325216Y-96557753D01*
X82564935Y-96751874D01*
X82570272Y-96755751D01*
X82890685Y-96963830D01*
X82896394Y-96967127D01*
X83236811Y-97140578D01*
X83242836Y-97143260D01*
X83599502Y-97280171D01*
X83605784Y-97282212D01*
X83974816Y-97381094D01*
X83981269Y-97382466D01*
X84211477Y-97418927D01*
X84275631Y-97449339D01*
X84313158Y-97509607D01*
X84312144Y-97580597D01*
X84272911Y-97639769D01*
X84258070Y-97650520D01*
X84175652Y-97701522D01*
X84050695Y-97826697D01*
X84046855Y-97832927D01*
X84046854Y-97832928D01*
X83961767Y-97970965D01*
X83957885Y-97977262D01*
X83902203Y-98145139D01*
X83891500Y-98249600D01*
X83891500Y-99250400D01*
X83891837Y-99253646D01*
X83891837Y-99253650D01*
X83897100Y-99304368D01*
X83902474Y-99356166D01*
X83904655Y-99362702D01*
X83904655Y-99362704D01*
X83934011Y-99450695D01*
X83958450Y-99523946D01*
X84051522Y-99674348D01*
X84176697Y-99799305D01*
X84182927Y-99803145D01*
X84182928Y-99803146D01*
X84320090Y-99887694D01*
X84327262Y-99892115D01*
X84407005Y-99918564D01*
X84488611Y-99945632D01*
X84488613Y-99945632D01*
X84495139Y-99947797D01*
X84501975Y-99948497D01*
X84501978Y-99948498D01*
X84545031Y-99952909D01*
X84599600Y-99958500D01*
X85088893Y-99958500D01*
X85157014Y-99978502D01*
X85177988Y-99995405D01*
X85459481Y-100276898D01*
X85493507Y-100339210D01*
X85488442Y-100410025D01*
X85445895Y-100466861D01*
X85379375Y-100491672D01*
X85370386Y-100491993D01*
X85222102Y-100491993D01*
X85206863Y-100496468D01*
X85205658Y-100497858D01*
X85203987Y-100505541D01*
X85203987Y-101927993D01*
X85183985Y-101996114D01*
X85130329Y-102042607D01*
X85077987Y-102053993D01*
X83866102Y-102053993D01*
X83821707Y-102067028D01*
X83811030Y-102073890D01*
X83775535Y-102078993D01*
X82772102Y-102078993D01*
X82756863Y-102083468D01*
X82755658Y-102084858D01*
X82753987Y-102092541D01*
X82753987Y-105927878D01*
X82758462Y-105943117D01*
X82759852Y-105944322D01*
X82767535Y-105945993D01*
X83871987Y-105945993D01*
X83940108Y-105965995D01*
X83986601Y-106019651D01*
X83997987Y-106071993D01*
X83997987Y-106081878D01*
X84002462Y-106097117D01*
X84003852Y-106098322D01*
X84013810Y-106100488D01*
X84076122Y-106134513D01*
X84087853Y-106148043D01*
X84136726Y-106213254D01*
X84216096Y-106272738D01*
X84216668Y-106273167D01*
X84259183Y-106330026D01*
X84264209Y-106400844D01*
X84230149Y-106463138D01*
X84167818Y-106497128D01*
X84141103Y-106499993D01*
X84044276Y-106499993D01*
X83976155Y-106479991D01*
X83961764Y-106469218D01*
X83946122Y-106455664D01*
X83938439Y-106453993D01*
X82772102Y-106453993D01*
X82756863Y-106458468D01*
X82755658Y-106459858D01*
X82753987Y-106467541D01*
X82753987Y-107902878D01*
X82758462Y-107918117D01*
X82759852Y-107919322D01*
X82767535Y-107920993D01*
X83779934Y-107920993D01*
X83848055Y-107940995D01*
X83851944Y-107943907D01*
X83861535Y-107945993D01*
X86139871Y-107945993D01*
X86155110Y-107941518D01*
X86156315Y-107940128D01*
X86157986Y-107932445D01*
X86157986Y-107355324D01*
X86157616Y-107348503D01*
X86152092Y-107297641D01*
X86148466Y-107282389D01*
X86103311Y-107161939D01*
X86094773Y-107146344D01*
X86076794Y-107122355D01*
X86051946Y-107055848D01*
X86066999Y-106986466D01*
X86102055Y-106945964D01*
X86205711Y-106868278D01*
X86218272Y-106855717D01*
X86294773Y-106753642D01*
X86303311Y-106738047D01*
X86348465Y-106617599D01*
X86352092Y-106602344D01*
X86357618Y-106551479D01*
X86357987Y-106544665D01*
X86357987Y-106518108D01*
X86353512Y-106502869D01*
X86352122Y-106501664D01*
X86344439Y-106499993D01*
X86208871Y-106499993D01*
X86140750Y-106479991D01*
X86094257Y-106426335D01*
X86084153Y-106356061D01*
X86113647Y-106291481D01*
X86133306Y-106273167D01*
X86133879Y-106272738D01*
X86213248Y-106213254D01*
X86261229Y-106149233D01*
X86318088Y-106106718D01*
X86326557Y-106103902D01*
X86355110Y-106095518D01*
X86356315Y-106094128D01*
X86357986Y-106086445D01*
X86357986Y-106055324D01*
X86357616Y-106048503D01*
X86351239Y-105989786D01*
X86353985Y-105989488D01*
X86353927Y-105960547D01*
X86351732Y-105960309D01*
X86358118Y-105901521D01*
X86358487Y-105898127D01*
X86358487Y-105894708D01*
X86358512Y-105894246D01*
X86382166Y-105827306D01*
X86438256Y-105783780D01*
X86508973Y-105777489D01*
X86573423Y-105811960D01*
X87235516Y-106474053D01*
X87241370Y-106480319D01*
X87271955Y-106515379D01*
X87278842Y-106523274D01*
X87330383Y-106559498D01*
X87335668Y-106563423D01*
X87385240Y-106602292D01*
X87392158Y-106605416D01*
X87395179Y-106607245D01*
X87407898Y-106614500D01*
X87411046Y-106616188D01*
X87417261Y-106620556D01*
X87475950Y-106643438D01*
X87481995Y-106645978D01*
X87539435Y-106671913D01*
X87546908Y-106673298D01*
X87550326Y-106674369D01*
X87564315Y-106678354D01*
X87567807Y-106679251D01*
X87574889Y-106682012D01*
X87582422Y-106683004D01*
X87582423Y-106683004D01*
X87637330Y-106690233D01*
X87643843Y-106691265D01*
X87698318Y-106701361D01*
X87698320Y-106701361D01*
X87705787Y-106702745D01*
X87713367Y-106702308D01*
X87713368Y-106702308D01*
X87767112Y-106699209D01*
X87774365Y-106699000D01*
X88325735Y-106699000D01*
X88393856Y-106719002D01*
X88401300Y-106724174D01*
X88503295Y-106800615D01*
X88639684Y-106851745D01*
X88701866Y-106858500D01*
X89317775Y-106858500D01*
X89385896Y-106878502D01*
X89406870Y-106895405D01*
X90563757Y-108052292D01*
X90597783Y-108114604D01*
X90599972Y-108128215D01*
X90606458Y-108189928D01*
X90665473Y-108371556D01*
X90668776Y-108377278D01*
X90668777Y-108377279D01*
X90702686Y-108436010D01*
X90760960Y-108536944D01*
X90765378Y-108541851D01*
X90765379Y-108541852D01*
X90883574Y-108673121D01*
X90888747Y-108678866D01*
X90970837Y-108738508D01*
X91037074Y-108786632D01*
X91043248Y-108791118D01*
X91049276Y-108793802D01*
X91049278Y-108793803D01*
X91196617Y-108859402D01*
X91217712Y-108868794D01*
X91296486Y-108885538D01*
X91398056Y-108907128D01*
X91398061Y-108907128D01*
X91404513Y-108908500D01*
X91595487Y-108908500D01*
X91601939Y-108907128D01*
X91601944Y-108907128D01*
X91703514Y-108885538D01*
X91782288Y-108868794D01*
X91803383Y-108859402D01*
X91950722Y-108793803D01*
X91950724Y-108793802D01*
X91956752Y-108791118D01*
X91962927Y-108786632D01*
X92029163Y-108738508D01*
X92111253Y-108678866D01*
X92116592Y-108672937D01*
X92156364Y-108628765D01*
X92216810Y-108591525D01*
X92287793Y-108592877D01*
X92343636Y-108628765D01*
X92383409Y-108672937D01*
X92388747Y-108678866D01*
X92470837Y-108738508D01*
X92537074Y-108786632D01*
X92543248Y-108791118D01*
X92549276Y-108793802D01*
X92549278Y-108793803D01*
X92696617Y-108859402D01*
X92717712Y-108868794D01*
X92796486Y-108885538D01*
X92898056Y-108907128D01*
X92898061Y-108907128D01*
X92904513Y-108908500D01*
X93095487Y-108908500D01*
X93101939Y-108907128D01*
X93101944Y-108907128D01*
X93203514Y-108885538D01*
X93282288Y-108868794D01*
X93303383Y-108859402D01*
X93450722Y-108793803D01*
X93450724Y-108793802D01*
X93456752Y-108791118D01*
X93462927Y-108786632D01*
X93529163Y-108738508D01*
X93611253Y-108678866D01*
X93616426Y-108673121D01*
X93734621Y-108541852D01*
X93734622Y-108541851D01*
X93739040Y-108536944D01*
X93797314Y-108436010D01*
X93831223Y-108377279D01*
X93831224Y-108377278D01*
X93834527Y-108371556D01*
X93893542Y-108189928D01*
X93894414Y-108181637D01*
X93912814Y-108006565D01*
X93913504Y-108000000D01*
X93901561Y-107886371D01*
X93914333Y-107816534D01*
X93962835Y-107764688D01*
X94031668Y-107747293D01*
X94098978Y-107769874D01*
X94115966Y-107784107D01*
X95337095Y-109005235D01*
X95371120Y-109067547D01*
X95374000Y-109094330D01*
X95374000Y-109498063D01*
X95353998Y-109566184D01*
X95300342Y-109612677D01*
X95292229Y-109616045D01*
X95211705Y-109646232D01*
X95211704Y-109646233D01*
X95203295Y-109649385D01*
X95086739Y-109736739D01*
X94999385Y-109853295D01*
X94948255Y-109989684D01*
X94941500Y-110051866D01*
X94941500Y-110148000D01*
X94921498Y-110216121D01*
X94867842Y-110262614D01*
X94815500Y-110274000D01*
X91948863Y-110274000D01*
X91880742Y-110253998D01*
X91859846Y-110237174D01*
X91828484Y-110205867D01*
X91828483Y-110205866D01*
X91823303Y-110200695D01*
X91809780Y-110192359D01*
X91678968Y-110111725D01*
X91678966Y-110111724D01*
X91672738Y-110107885D01*
X91592995Y-110081436D01*
X91511389Y-110054368D01*
X91511387Y-110054368D01*
X91504861Y-110052203D01*
X91498025Y-110051503D01*
X91498022Y-110051502D01*
X91454969Y-110047091D01*
X91400400Y-110041500D01*
X90599600Y-110041500D01*
X90596354Y-110041837D01*
X90596350Y-110041837D01*
X90500692Y-110051762D01*
X90500688Y-110051763D01*
X90493834Y-110052474D01*
X90487298Y-110054655D01*
X90487296Y-110054655D01*
X90470928Y-110060116D01*
X90326054Y-110108450D01*
X90175652Y-110201522D01*
X90096315Y-110280998D01*
X90089216Y-110288109D01*
X90026934Y-110322188D01*
X89956114Y-110317185D01*
X89911025Y-110288264D01*
X89828483Y-110205866D01*
X89823303Y-110200695D01*
X89809780Y-110192359D01*
X89678968Y-110111725D01*
X89678966Y-110111724D01*
X89672738Y-110107885D01*
X89592995Y-110081436D01*
X89511389Y-110054368D01*
X89511387Y-110054368D01*
X89504861Y-110052203D01*
X89498025Y-110051503D01*
X89498022Y-110051502D01*
X89454969Y-110047091D01*
X89400400Y-110041500D01*
X88599600Y-110041500D01*
X88596354Y-110041837D01*
X88596350Y-110041837D01*
X88500692Y-110051762D01*
X88500688Y-110051763D01*
X88493834Y-110052474D01*
X88487298Y-110054655D01*
X88487296Y-110054655D01*
X88470928Y-110060116D01*
X88326054Y-110108450D01*
X88175652Y-110201522D01*
X88050695Y-110326697D01*
X88046855Y-110332927D01*
X88046854Y-110332928D01*
X87969828Y-110457887D01*
X87917056Y-110505380D01*
X87846984Y-110516804D01*
X87781860Y-110488530D01*
X87755424Y-110458074D01*
X87677332Y-110331880D01*
X87673478Y-110325652D01*
X87548303Y-110200695D01*
X87534780Y-110192359D01*
X87403968Y-110111725D01*
X87403966Y-110111724D01*
X87397738Y-110107885D01*
X87317995Y-110081436D01*
X87236389Y-110054368D01*
X87236387Y-110054368D01*
X87229861Y-110052203D01*
X87223025Y-110051503D01*
X87223022Y-110051502D01*
X87179969Y-110047091D01*
X87125400Y-110041500D01*
X86374600Y-110041500D01*
X86371354Y-110041837D01*
X86371350Y-110041837D01*
X86275692Y-110051762D01*
X86275688Y-110051763D01*
X86268834Y-110052474D01*
X86262298Y-110054655D01*
X86262296Y-110054655D01*
X86245928Y-110060116D01*
X86101054Y-110108450D01*
X85950652Y-110201522D01*
X85825695Y-110326697D01*
X85822898Y-110331235D01*
X85765647Y-110371824D01*
X85694724Y-110375054D01*
X85633313Y-110339428D01*
X85625938Y-110330932D01*
X85617902Y-110320793D01*
X85503171Y-110206261D01*
X85491760Y-110197249D01*
X85353757Y-110112184D01*
X85340576Y-110106037D01*
X85186290Y-110054862D01*
X85172914Y-110051995D01*
X85078562Y-110042328D01*
X85072145Y-110042000D01*
X84972115Y-110042000D01*
X84956876Y-110046475D01*
X84955671Y-110047865D01*
X84954000Y-110055548D01*
X84954000Y-111378000D01*
X84933998Y-111446121D01*
X84880342Y-111492614D01*
X84828000Y-111504000D01*
X83635116Y-111504000D01*
X83619877Y-111508475D01*
X83618672Y-111509865D01*
X83617001Y-111517548D01*
X83617001Y-111747095D01*
X83617338Y-111753614D01*
X83627257Y-111849206D01*
X83630149Y-111862600D01*
X83681588Y-112016784D01*
X83687761Y-112029962D01*
X83773063Y-112167807D01*
X83782099Y-112179208D01*
X83896829Y-112293739D01*
X83908243Y-112302753D01*
X84039876Y-112383892D01*
X84087370Y-112436664D01*
X84098794Y-112506735D01*
X84070520Y-112571859D01*
X84011527Y-112611359D01*
X83993474Y-112615600D01*
X83981280Y-112617532D01*
X83974816Y-112618906D01*
X83605784Y-112717788D01*
X83599502Y-112719829D01*
X83242836Y-112856740D01*
X83236811Y-112859422D01*
X82896397Y-113032872D01*
X82890687Y-113036169D01*
X82570265Y-113244253D01*
X82564939Y-113248123D01*
X82326165Y-113441478D01*
X82317700Y-113453733D01*
X81508000Y-113453733D01*
X81508000Y-110977885D01*
X83617000Y-110977885D01*
X83621475Y-110993124D01*
X83622865Y-110994329D01*
X83630548Y-110996000D01*
X84427885Y-110996000D01*
X84443124Y-110991525D01*
X84444329Y-110990135D01*
X84446000Y-110982452D01*
X84446000Y-110060116D01*
X84441525Y-110044877D01*
X84440135Y-110043672D01*
X84432452Y-110042001D01*
X84327905Y-110042001D01*
X84321386Y-110042338D01*
X84225794Y-110052257D01*
X84212400Y-110055149D01*
X84058216Y-110106588D01*
X84045038Y-110112761D01*
X83907193Y-110198063D01*
X83895792Y-110207099D01*
X83781261Y-110321829D01*
X83772249Y-110333240D01*
X83687184Y-110471243D01*
X83681037Y-110484424D01*
X83629862Y-110638710D01*
X83626995Y-110652086D01*
X83617328Y-110746438D01*
X83617000Y-110752855D01*
X83617000Y-110977885D01*
X81508000Y-110977885D01*
X81508000Y-109245668D01*
X81528002Y-109177547D01*
X81581658Y-109131054D01*
X81651932Y-109120950D01*
X81706678Y-109144432D01*
X81707211Y-109143611D01*
X81711972Y-109146703D01*
X81712005Y-109146717D01*
X81712057Y-109146758D01*
X81721707Y-109153025D01*
X81899823Y-109246736D01*
X81910466Y-109251145D01*
X82102671Y-109310826D01*
X82113933Y-109313220D01*
X82227999Y-109326720D01*
X82242418Y-109324278D01*
X82245987Y-109311536D01*
X82245987Y-109310283D01*
X82753987Y-109310283D01*
X82758258Y-109324828D01*
X82770392Y-109326891D01*
X82856163Y-109319009D01*
X82867485Y-109316910D01*
X83061190Y-109262280D01*
X83071937Y-109258156D01*
X83252453Y-109169134D01*
X83262260Y-109163124D01*
X83423536Y-109042694D01*
X83432076Y-109035004D01*
X83523463Y-108936143D01*
X83584392Y-108899698D01*
X83655352Y-108901979D01*
X83713814Y-108942261D01*
X83741217Y-109007756D01*
X83741988Y-109021672D01*
X83741988Y-109044662D01*
X83742358Y-109051483D01*
X83747882Y-109102345D01*
X83751508Y-109117597D01*
X83796663Y-109238047D01*
X83805201Y-109253642D01*
X83881702Y-109355717D01*
X83894263Y-109368278D01*
X83996338Y-109444779D01*
X84011933Y-109453317D01*
X84132381Y-109498471D01*
X84147636Y-109502098D01*
X84198501Y-109507624D01*
X84205315Y-109507993D01*
X84677872Y-109507993D01*
X84693111Y-109503518D01*
X84694316Y-109502128D01*
X84695987Y-109494445D01*
X84695987Y-109489877D01*
X85203987Y-109489877D01*
X85208462Y-109505116D01*
X85209852Y-109506321D01*
X85217535Y-109507992D01*
X85694656Y-109507992D01*
X85701477Y-109507622D01*
X85752339Y-109502098D01*
X85767591Y-109498472D01*
X85888041Y-109453317D01*
X85903636Y-109444779D01*
X86005711Y-109368278D01*
X86018272Y-109355717D01*
X86094773Y-109253642D01*
X86103311Y-109238047D01*
X86148465Y-109117599D01*
X86152092Y-109102344D01*
X86157618Y-109051479D01*
X86157987Y-109044665D01*
X86157987Y-108472108D01*
X86153512Y-108456869D01*
X86152122Y-108455664D01*
X86144439Y-108453993D01*
X85222102Y-108453993D01*
X85206863Y-108458468D01*
X85205658Y-108459858D01*
X85203987Y-108467541D01*
X85203987Y-109489877D01*
X84695987Y-109489877D01*
X84695987Y-108472108D01*
X84691512Y-108456869D01*
X84690122Y-108455664D01*
X84682439Y-108453993D01*
X83770040Y-108453993D01*
X83701919Y-108433991D01*
X83698030Y-108431079D01*
X83688439Y-108428993D01*
X82772102Y-108428993D01*
X82756863Y-108433468D01*
X82755658Y-108434858D01*
X82753987Y-108442541D01*
X82753987Y-109310283D01*
X82245987Y-109310283D01*
X82245987Y-101552878D01*
X82753987Y-101552878D01*
X82758462Y-101568117D01*
X82759852Y-101569322D01*
X82767535Y-101570993D01*
X83683872Y-101570993D01*
X83728267Y-101557958D01*
X83738944Y-101551096D01*
X83774439Y-101545993D01*
X84677872Y-101545993D01*
X84693111Y-101541518D01*
X84694316Y-101540128D01*
X84695987Y-101532445D01*
X84695987Y-100510109D01*
X84691512Y-100494870D01*
X84690122Y-100493665D01*
X84682439Y-100491994D01*
X84205318Y-100491994D01*
X84198497Y-100492364D01*
X84147635Y-100497888D01*
X84132383Y-100501514D01*
X84011933Y-100546669D01*
X83996338Y-100555207D01*
X83894263Y-100631708D01*
X83881702Y-100644269D01*
X83805201Y-100746344D01*
X83796663Y-100761939D01*
X83751509Y-100882387D01*
X83747882Y-100897642D01*
X83742356Y-100948507D01*
X83741987Y-100955321D01*
X83741987Y-100978996D01*
X83721985Y-101047117D01*
X83668329Y-101093610D01*
X83598055Y-101103714D01*
X83533475Y-101074220D01*
X83521255Y-101062073D01*
X83454322Y-100985750D01*
X83445987Y-100977840D01*
X83287918Y-100853229D01*
X83278267Y-100846961D01*
X83100151Y-100753250D01*
X83089508Y-100748841D01*
X82897303Y-100689160D01*
X82886041Y-100686766D01*
X82771975Y-100673266D01*
X82757556Y-100675708D01*
X82753987Y-100688450D01*
X82753987Y-101552878D01*
X82245987Y-101552878D01*
X82245987Y-100689703D01*
X82241716Y-100675158D01*
X82229582Y-100673095D01*
X82143811Y-100680977D01*
X82132489Y-100683076D01*
X81938784Y-100737706D01*
X81928037Y-100741830D01*
X81747521Y-100830852D01*
X81737714Y-100836862D01*
X81709389Y-100858013D01*
X81642839Y-100882745D01*
X81573483Y-100867570D01*
X81523340Y-100817308D01*
X81508000Y-100757055D01*
X81508000Y-95991306D01*
X81528002Y-95923185D01*
X81581658Y-95876692D01*
X81651932Y-95866588D01*
X81716512Y-95896082D01*
X81739674Y-95922683D01*
X81744257Y-95929740D01*
X81748123Y-95935061D01*
X81941478Y-96173835D01*
X81953733Y-96182300D01*
X81964824Y-96175966D01*
X84377978Y-93762812D01*
X84384356Y-93751132D01*
X85114408Y-93751132D01*
X85114539Y-93752965D01*
X85118790Y-93759580D01*
X87534310Y-96175100D01*
X87547386Y-96182241D01*
X87557753Y-96174784D01*
X87751877Y-95935061D01*
X87755747Y-95929735D01*
X87963831Y-95609313D01*
X87967128Y-95603603D01*
X88140578Y-95263189D01*
X88143260Y-95257164D01*
X88280171Y-94900498D01*
X88282212Y-94894216D01*
X88381094Y-94525184D01*
X88382465Y-94518734D01*
X88442234Y-94141371D01*
X88442920Y-94134833D01*
X88462916Y-93753295D01*
X88462916Y-93746699D01*
X88449078Y-93482670D01*
X92882160Y-93482670D01*
X92887887Y-93490320D01*
X93059042Y-93595205D01*
X93067837Y-93599687D01*
X93277988Y-93686734D01*
X93287373Y-93689783D01*
X93508554Y-93742885D01*
X93518301Y-93744428D01*
X93745070Y-93762275D01*
X93754930Y-93762275D01*
X93981699Y-93744428D01*
X93991446Y-93742885D01*
X94212627Y-93689783D01*
X94222012Y-93686734D01*
X94432163Y-93599687D01*
X94440958Y-93595205D01*
X94608445Y-93492568D01*
X94617400Y-93482670D01*
X99382160Y-93482670D01*
X99387887Y-93490320D01*
X99559042Y-93595205D01*
X99567837Y-93599687D01*
X99777988Y-93686734D01*
X99787373Y-93689783D01*
X100008554Y-93742885D01*
X100018301Y-93744428D01*
X100245070Y-93762275D01*
X100254930Y-93762275D01*
X100481699Y-93744428D01*
X100491446Y-93742885D01*
X100712627Y-93689783D01*
X100722012Y-93686734D01*
X100932163Y-93599687D01*
X100940958Y-93595205D01*
X101108445Y-93492568D01*
X101117400Y-93482670D01*
X103382160Y-93482670D01*
X103387887Y-93490320D01*
X103559042Y-93595205D01*
X103567837Y-93599687D01*
X103777988Y-93686734D01*
X103787373Y-93689783D01*
X104008554Y-93742885D01*
X104018301Y-93744428D01*
X104245070Y-93762275D01*
X104254930Y-93762275D01*
X104481699Y-93744428D01*
X104491446Y-93742885D01*
X104712627Y-93689783D01*
X104722012Y-93686734D01*
X104932163Y-93599687D01*
X104940958Y-93595205D01*
X105108445Y-93492568D01*
X105117907Y-93482110D01*
X105114124Y-93473334D01*
X104262812Y-92622022D01*
X104248868Y-92614408D01*
X104247035Y-92614539D01*
X104240420Y-92618790D01*
X103388920Y-93470290D01*
X103382160Y-93482670D01*
X101117400Y-93482670D01*
X101117907Y-93482110D01*
X101114124Y-93473334D01*
X100262812Y-92622022D01*
X100248868Y-92614408D01*
X100247035Y-92614539D01*
X100240420Y-92618790D01*
X99388920Y-93470290D01*
X99382160Y-93482670D01*
X94617400Y-93482670D01*
X94617907Y-93482110D01*
X94614124Y-93473334D01*
X93762812Y-92622022D01*
X93748868Y-92614408D01*
X93747035Y-92614539D01*
X93740420Y-92618790D01*
X92888920Y-93470290D01*
X92882160Y-93482670D01*
X88449078Y-93482670D01*
X88442920Y-93365167D01*
X88442234Y-93358629D01*
X88382465Y-92981266D01*
X88381094Y-92974816D01*
X88282212Y-92605784D01*
X88280171Y-92599502D01*
X88239605Y-92493823D01*
X89744391Y-92493823D01*
X89745555Y-92502725D01*
X89745555Y-92502728D01*
X89746814Y-92512354D01*
X89762980Y-92635979D01*
X89820720Y-92767203D01*
X89826497Y-92774076D01*
X89826498Y-92774077D01*
X89907190Y-92870072D01*
X89912970Y-92876948D01*
X90032313Y-92956390D01*
X90169157Y-92999142D01*
X90178129Y-92999306D01*
X90178132Y-92999307D01*
X90243463Y-93000504D01*
X90312499Y-93001770D01*
X90321533Y-92999307D01*
X90442158Y-92966421D01*
X90442160Y-92966420D01*
X90450817Y-92964060D01*
X90572991Y-92889045D01*
X90669200Y-92782754D01*
X90711232Y-92696000D01*
X90727795Y-92661814D01*
X90727795Y-92661813D01*
X90731710Y-92653733D01*
X90755496Y-92512354D01*
X90755647Y-92500000D01*
X90735323Y-92358082D01*
X90688423Y-92254930D01*
X92237725Y-92254930D01*
X92255572Y-92481699D01*
X92257115Y-92491446D01*
X92310217Y-92712627D01*
X92313266Y-92722012D01*
X92400313Y-92932163D01*
X92404795Y-92940958D01*
X92507432Y-93108445D01*
X92517890Y-93117907D01*
X92526666Y-93114124D01*
X93377978Y-92262812D01*
X93384356Y-92251132D01*
X94114408Y-92251132D01*
X94114539Y-92252965D01*
X94118790Y-92259580D01*
X94970290Y-93111080D01*
X94982670Y-93117840D01*
X94990320Y-93112113D01*
X95095205Y-92940958D01*
X95099687Y-92932163D01*
X95186734Y-92722012D01*
X95189783Y-92712627D01*
X95242885Y-92491446D01*
X95244428Y-92481699D01*
X95262275Y-92254930D01*
X98737725Y-92254930D01*
X98755572Y-92481699D01*
X98757115Y-92491446D01*
X98810217Y-92712627D01*
X98813266Y-92722012D01*
X98900313Y-92932163D01*
X98904795Y-92940958D01*
X99007432Y-93108445D01*
X99017890Y-93117907D01*
X99026666Y-93114124D01*
X99877978Y-92262812D01*
X99884356Y-92251132D01*
X100614408Y-92251132D01*
X100614539Y-92252965D01*
X100618790Y-92259580D01*
X101470290Y-93111080D01*
X101482670Y-93117840D01*
X101490320Y-93112113D01*
X101595205Y-92940958D01*
X101599687Y-92932163D01*
X101686734Y-92722012D01*
X101689783Y-92712627D01*
X101742885Y-92491446D01*
X101744428Y-92481699D01*
X101762275Y-92254930D01*
X102737725Y-92254930D01*
X102755572Y-92481699D01*
X102757115Y-92491446D01*
X102810217Y-92712627D01*
X102813266Y-92722012D01*
X102900313Y-92932163D01*
X102904795Y-92940958D01*
X103007432Y-93108445D01*
X103017890Y-93117907D01*
X103026666Y-93114124D01*
X103877978Y-92262812D01*
X103884356Y-92251132D01*
X104614408Y-92251132D01*
X104614539Y-92252965D01*
X104618790Y-92259580D01*
X105470290Y-93111080D01*
X105482670Y-93117840D01*
X105490320Y-93112113D01*
X105595205Y-92940958D01*
X105599687Y-92932163D01*
X105686734Y-92722012D01*
X105689783Y-92712627D01*
X105742885Y-92491446D01*
X105744428Y-92481699D01*
X105762275Y-92254930D01*
X109237725Y-92254930D01*
X109255572Y-92481699D01*
X109257115Y-92491446D01*
X109310217Y-92712627D01*
X109313266Y-92722012D01*
X109400313Y-92932163D01*
X109404795Y-92940958D01*
X109507432Y-93108445D01*
X109517890Y-93117907D01*
X109526666Y-93114124D01*
X110377978Y-92262812D01*
X110385592Y-92248868D01*
X110385461Y-92247035D01*
X110381210Y-92240420D01*
X109529710Y-91388920D01*
X109517330Y-91382160D01*
X109509680Y-91387887D01*
X109404795Y-91559042D01*
X109400313Y-91567837D01*
X109313266Y-91777988D01*
X109310217Y-91787373D01*
X109257115Y-92008554D01*
X109255572Y-92018301D01*
X109237725Y-92245070D01*
X109237725Y-92254930D01*
X105762275Y-92254930D01*
X105762275Y-92245070D01*
X105744428Y-92018301D01*
X105742885Y-92008554D01*
X105689783Y-91787373D01*
X105686734Y-91777988D01*
X105599687Y-91567837D01*
X105595205Y-91559042D01*
X105492568Y-91391555D01*
X105482110Y-91382093D01*
X105473334Y-91385876D01*
X104622022Y-92237188D01*
X104614408Y-92251132D01*
X103884356Y-92251132D01*
X103885592Y-92248868D01*
X103885461Y-92247035D01*
X103881210Y-92240420D01*
X103029710Y-91388920D01*
X103017330Y-91382160D01*
X103009680Y-91387887D01*
X102904795Y-91559042D01*
X102900313Y-91567837D01*
X102813266Y-91777988D01*
X102810217Y-91787373D01*
X102757115Y-92008554D01*
X102755572Y-92018301D01*
X102737725Y-92245070D01*
X102737725Y-92254930D01*
X101762275Y-92254930D01*
X101762275Y-92245070D01*
X101744428Y-92018301D01*
X101742885Y-92008554D01*
X101689783Y-91787373D01*
X101686734Y-91777988D01*
X101599687Y-91567837D01*
X101595205Y-91559042D01*
X101492568Y-91391555D01*
X101482110Y-91382093D01*
X101473334Y-91385876D01*
X100622022Y-92237188D01*
X100614408Y-92251132D01*
X99884356Y-92251132D01*
X99885592Y-92248868D01*
X99885461Y-92247035D01*
X99881210Y-92240420D01*
X99029710Y-91388920D01*
X99017330Y-91382160D01*
X99009680Y-91387887D01*
X98904795Y-91559042D01*
X98900313Y-91567837D01*
X98813266Y-91777988D01*
X98810217Y-91787373D01*
X98757115Y-92008554D01*
X98755572Y-92018301D01*
X98737725Y-92245070D01*
X98737725Y-92254930D01*
X95262275Y-92254930D01*
X95262275Y-92245070D01*
X95244428Y-92018301D01*
X95242885Y-92008554D01*
X95189783Y-91787373D01*
X95186734Y-91777988D01*
X95099687Y-91567837D01*
X95095205Y-91559042D01*
X94992568Y-91391555D01*
X94982110Y-91382093D01*
X94973334Y-91385876D01*
X94122022Y-92237188D01*
X94114408Y-92251132D01*
X93384356Y-92251132D01*
X93385592Y-92248868D01*
X93385461Y-92247035D01*
X93381210Y-92240420D01*
X92529710Y-91388920D01*
X92517330Y-91382160D01*
X92509680Y-91387887D01*
X92404795Y-91559042D01*
X92400313Y-91567837D01*
X92313266Y-91777988D01*
X92310217Y-91787373D01*
X92257115Y-92008554D01*
X92255572Y-92018301D01*
X92237725Y-92245070D01*
X92237725Y-92254930D01*
X90688423Y-92254930D01*
X90675984Y-92227572D01*
X90630340Y-92174600D01*
X90588260Y-92125763D01*
X90588257Y-92125760D01*
X90582400Y-92118963D01*
X90462095Y-92040985D01*
X90324739Y-91999907D01*
X90315763Y-91999852D01*
X90315762Y-91999852D01*
X90255555Y-91999484D01*
X90181376Y-91999031D01*
X90043529Y-92038428D01*
X89922280Y-92114930D01*
X89827377Y-92222388D01*
X89766447Y-92352163D01*
X89765066Y-92361035D01*
X89746279Y-92481699D01*
X89744391Y-92493823D01*
X88239605Y-92493823D01*
X88143260Y-92242836D01*
X88140578Y-92236811D01*
X87967128Y-91896397D01*
X87963831Y-91890687D01*
X87755747Y-91570265D01*
X87751877Y-91564939D01*
X87558522Y-91326165D01*
X87546267Y-91317700D01*
X87535176Y-91324034D01*
X85122022Y-93737188D01*
X85114408Y-93751132D01*
X84384356Y-93751132D01*
X84385592Y-93748868D01*
X84385461Y-93747035D01*
X84381210Y-93740420D01*
X81965690Y-91324900D01*
X81952614Y-91317759D01*
X81942247Y-91325216D01*
X81748123Y-91564939D01*
X81744257Y-91570260D01*
X81739674Y-91577317D01*
X81685798Y-91623555D01*
X81615477Y-91633325D01*
X81551037Y-91603526D01*
X81512937Y-91543618D01*
X81508000Y-91508694D01*
X81508000Y-90803207D01*
X81509746Y-90782303D01*
X81512264Y-90767335D01*
X81513071Y-90762539D01*
X81513224Y-90750000D01*
X81512533Y-90745178D01*
X81512348Y-90742334D01*
X81513633Y-90714434D01*
X81516722Y-90694930D01*
X81528904Y-90657437D01*
X81545159Y-90625535D01*
X81568331Y-90593643D01*
X81593643Y-90568331D01*
X81625535Y-90545159D01*
X81657437Y-90528904D01*
X81694930Y-90516722D01*
X81716057Y-90513376D01*
X81735766Y-90511946D01*
X81743730Y-90513186D01*
X81775252Y-90509064D01*
X81791589Y-90508000D01*
X82508694Y-90508000D01*
X82576815Y-90528002D01*
G37*
%TD.AperFunction*%
%TA.AperFunction,Conductor*%
G36*
X132195243Y-106219002D02*
G01*
X132213942Y-106237648D01*
X132232370Y-106246000D01*
X132557430Y-106246000D01*
X132606275Y-106256115D01*
X132611399Y-106259145D01*
X132619007Y-106261355D01*
X132619011Y-106261357D01*
X132683789Y-106280176D01*
X132771169Y-106305562D01*
X132777574Y-106306066D01*
X132777579Y-106306067D01*
X132806042Y-106308307D01*
X132806050Y-106308307D01*
X132808498Y-106308500D01*
X133628000Y-106308500D01*
X133696121Y-106328502D01*
X133742614Y-106382158D01*
X133754000Y-106434500D01*
X133754000Y-106565500D01*
X133733998Y-106633621D01*
X133680342Y-106680114D01*
X133628000Y-106691500D01*
X132808498Y-106691500D01*
X132806050Y-106691693D01*
X132806042Y-106691693D01*
X132777579Y-106693933D01*
X132777574Y-106693934D01*
X132771169Y-106694438D01*
X132723896Y-106708172D01*
X132619011Y-106738643D01*
X132619007Y-106738645D01*
X132611399Y-106740855D01*
X132606275Y-106743885D01*
X132557430Y-106754000D01*
X132238122Y-106754000D01*
X132224591Y-106757973D01*
X132223456Y-106765871D01*
X132264107Y-106905790D01*
X132270352Y-106920221D01*
X132279311Y-106935370D01*
X132296770Y-107004186D01*
X132279310Y-107063648D01*
X132265855Y-107086399D01*
X132263644Y-107094010D01*
X132263643Y-107094012D01*
X132253640Y-107128444D01*
X132219438Y-107246169D01*
X132216500Y-107283498D01*
X132216500Y-107716502D01*
X132216693Y-107718950D01*
X132216693Y-107718958D01*
X132217305Y-107726726D01*
X132219438Y-107753831D01*
X132237655Y-107816534D01*
X132262740Y-107902878D01*
X132265855Y-107913601D01*
X132269892Y-107920427D01*
X132346509Y-108049980D01*
X132346511Y-108049983D01*
X132350547Y-108056807D01*
X132468193Y-108174453D01*
X132475017Y-108178489D01*
X132475020Y-108178491D01*
X132507427Y-108197656D01*
X132611399Y-108259145D01*
X132619013Y-108261357D01*
X132646653Y-108269387D01*
X132706489Y-108307600D01*
X132736166Y-108372096D01*
X132737500Y-108390384D01*
X132737500Y-109381972D01*
X132717498Y-109450093D01*
X132700595Y-109471067D01*
X130836485Y-111335177D01*
X130773588Y-111369328D01*
X130724176Y-111379831D01*
X130724167Y-111379834D01*
X130717712Y-111381206D01*
X130711682Y-111383891D01*
X130711681Y-111383891D01*
X130549278Y-111456197D01*
X130549276Y-111456198D01*
X130543248Y-111458882D01*
X130537907Y-111462762D01*
X130537906Y-111462763D01*
X130510986Y-111482322D01*
X130388747Y-111571134D01*
X130384326Y-111576044D01*
X130384325Y-111576045D01*
X130280483Y-111691374D01*
X130260960Y-111713056D01*
X130203511Y-111812560D01*
X130174621Y-111862600D01*
X130165473Y-111878444D01*
X130106458Y-112060072D01*
X130105768Y-112066633D01*
X130105768Y-112066635D01*
X130092159Y-112196121D01*
X130086496Y-112250000D01*
X130087186Y-112256565D01*
X130103986Y-112416404D01*
X130106458Y-112439928D01*
X130114039Y-112463261D01*
X130158655Y-112600574D01*
X130160682Y-112671542D01*
X130124020Y-112732339D01*
X130060308Y-112763665D01*
X130038822Y-112765510D01*
X129210968Y-112765510D01*
X129142847Y-112745508D01*
X129096354Y-112691852D01*
X129085624Y-112626667D01*
X129096000Y-112525400D01*
X129096000Y-111474600D01*
X129094091Y-111456197D01*
X129085738Y-111375692D01*
X129085737Y-111375688D01*
X129085026Y-111368834D01*
X129081037Y-111356876D01*
X129031368Y-111208002D01*
X129029050Y-111201054D01*
X128935978Y-111050652D01*
X128901073Y-111015807D01*
X128866994Y-110953526D01*
X128871997Y-110882706D01*
X128900996Y-110837540D01*
X130474053Y-109264483D01*
X130480319Y-109258630D01*
X130517547Y-109226154D01*
X130523274Y-109221158D01*
X130559498Y-109169617D01*
X130563423Y-109164332D01*
X130597607Y-109120735D01*
X130602292Y-109114760D01*
X130605416Y-109107842D01*
X130607245Y-109104821D01*
X130614500Y-109092102D01*
X130616188Y-109088954D01*
X130620556Y-109082739D01*
X130643438Y-109024050D01*
X130645978Y-109018005D01*
X130671913Y-108960565D01*
X130673298Y-108953092D01*
X130674369Y-108949674D01*
X130678354Y-108935685D01*
X130679251Y-108932193D01*
X130682012Y-108925111D01*
X130683004Y-108917577D01*
X130690233Y-108862670D01*
X130691265Y-108856157D01*
X130701361Y-108801682D01*
X130701361Y-108801680D01*
X130702745Y-108794213D01*
X130699209Y-108732887D01*
X130699000Y-108725635D01*
X130699000Y-107020414D01*
X130719002Y-106952293D01*
X130772658Y-106905800D01*
X130842932Y-106895696D01*
X130851198Y-106897168D01*
X130898049Y-106907127D01*
X130898058Y-106907128D01*
X130904513Y-106908500D01*
X131095487Y-106908500D01*
X131101939Y-106907128D01*
X131101944Y-106907128D01*
X131199463Y-106886399D01*
X131282288Y-106868794D01*
X131311660Y-106855717D01*
X131450722Y-106793803D01*
X131450724Y-106793802D01*
X131456752Y-106791118D01*
X131470972Y-106780787D01*
X131560696Y-106715598D01*
X131611253Y-106678866D01*
X131640856Y-106645989D01*
X131734621Y-106541852D01*
X131734622Y-106541851D01*
X131739040Y-106536944D01*
X131834527Y-106371556D01*
X131862305Y-106286064D01*
X131902378Y-106227458D01*
X131967775Y-106199821D01*
X131982138Y-106199000D01*
X132127122Y-106199000D01*
X132195243Y-106219002D01*
G37*
%TD.AperFunction*%
%TA.AperFunction,Conductor*%
G36*
X127896121Y-106916002D02*
G01*
X127942614Y-106969658D01*
X127954000Y-107022000D01*
X127954000Y-108539884D01*
X127958475Y-108555123D01*
X127959865Y-108556328D01*
X127967548Y-108557999D01*
X128794669Y-108557999D01*
X128801490Y-108557629D01*
X128852352Y-108552105D01*
X128867607Y-108548478D01*
X128875570Y-108545493D01*
X128946377Y-108540309D01*
X129008746Y-108574228D01*
X129042876Y-108636483D01*
X129037931Y-108707307D01*
X129008896Y-108752569D01*
X127747370Y-110014095D01*
X127685058Y-110048121D01*
X127658275Y-110051000D01*
X124811726Y-110051000D01*
X124743605Y-110030998D01*
X124722631Y-110014095D01*
X123443968Y-108735432D01*
X123409943Y-108673121D01*
X123415007Y-108602306D01*
X123457554Y-108545470D01*
X123524074Y-108520659D01*
X123577292Y-108528356D01*
X123632282Y-108548971D01*
X123632288Y-108548973D01*
X123639684Y-108551745D01*
X123701866Y-108558500D01*
X125898134Y-108558500D01*
X125960316Y-108551745D01*
X126096705Y-108500615D01*
X126174852Y-108442047D01*
X126241358Y-108417199D01*
X126310741Y-108432252D01*
X126325982Y-108442047D01*
X126396352Y-108494786D01*
X126411946Y-108503324D01*
X126532394Y-108548478D01*
X126547649Y-108552105D01*
X126598514Y-108557631D01*
X126605328Y-108558000D01*
X127427885Y-108558000D01*
X127443124Y-108553525D01*
X127444329Y-108552135D01*
X127446000Y-108544452D01*
X127446000Y-107022000D01*
X127466002Y-106953879D01*
X127519658Y-106907386D01*
X127572000Y-106896000D01*
X127828000Y-106896000D01*
X127896121Y-106916002D01*
G37*
%TD.AperFunction*%
%TA.AperFunction,Conductor*%
G36*
X85320480Y-106378495D02*
G01*
X85366973Y-106432151D01*
X85377077Y-106502425D01*
X85375479Y-106511278D01*
X85374987Y-106513540D01*
X85374987Y-106921993D01*
X85354985Y-106990114D01*
X85301329Y-107036607D01*
X85248987Y-107047993D01*
X85100987Y-107047993D01*
X85032866Y-107027991D01*
X84986373Y-106974335D01*
X84974987Y-106921993D01*
X84974987Y-106499993D01*
X84975539Y-106499993D01*
X84975540Y-106448993D01*
X85013925Y-106389268D01*
X85078506Y-106359775D01*
X85096436Y-106358493D01*
X85252359Y-106358493D01*
X85320480Y-106378495D01*
G37*
%TD.AperFunction*%
%TA.AperFunction,Conductor*%
G36*
X126887283Y-101219002D02*
G01*
X126932272Y-101270416D01*
X126933450Y-101273946D01*
X127026522Y-101424348D01*
X127151697Y-101549305D01*
X127157927Y-101553145D01*
X127157928Y-101553146D01*
X127295090Y-101637694D01*
X127302262Y-101642115D01*
X127350983Y-101658275D01*
X127463611Y-101695632D01*
X127463613Y-101695632D01*
X127470139Y-101697797D01*
X127476975Y-101698497D01*
X127476978Y-101698498D01*
X127520031Y-101702909D01*
X127574600Y-101708500D01*
X128325400Y-101708500D01*
X128328646Y-101708163D01*
X128328650Y-101708163D01*
X128424308Y-101698238D01*
X128424312Y-101698237D01*
X128431166Y-101697526D01*
X128437702Y-101695345D01*
X128437704Y-101695345D01*
X128584295Y-101646438D01*
X128598946Y-101641550D01*
X128749348Y-101548478D01*
X128874305Y-101423303D01*
X128876906Y-101419084D01*
X128934030Y-101378583D01*
X129004953Y-101375351D01*
X129066365Y-101410976D01*
X129072922Y-101418530D01*
X129076522Y-101424348D01*
X129201697Y-101549305D01*
X129207924Y-101553143D01*
X129207926Y-101553145D01*
X129241116Y-101573604D01*
X129288610Y-101626377D01*
X129301000Y-101680864D01*
X129301000Y-103475551D01*
X129280998Y-103543672D01*
X129227342Y-103590165D01*
X129157068Y-103600269D01*
X129099435Y-103576377D01*
X129084177Y-103564942D01*
X128996705Y-103499385D01*
X128860316Y-103448255D01*
X128798134Y-103441500D01*
X126601866Y-103441500D01*
X126539684Y-103448255D01*
X126403295Y-103499385D01*
X126359249Y-103532396D01*
X126325148Y-103557953D01*
X126258642Y-103582801D01*
X126189259Y-103567748D01*
X126174018Y-103557953D01*
X126103648Y-103505214D01*
X126088054Y-103496676D01*
X125967606Y-103451522D01*
X125952351Y-103447895D01*
X125901486Y-103442369D01*
X125894672Y-103442000D01*
X125072115Y-103442000D01*
X125056876Y-103446475D01*
X125055671Y-103447865D01*
X125054000Y-103455548D01*
X125054000Y-104978000D01*
X125033998Y-105046121D01*
X124980342Y-105092614D01*
X124928000Y-105104000D01*
X123260116Y-105104000D01*
X123244877Y-105108475D01*
X123243672Y-105109865D01*
X123242001Y-105117548D01*
X123242001Y-105675000D01*
X123221999Y-105743121D01*
X123168343Y-105789614D01*
X123116001Y-105801000D01*
X121028589Y-105801000D01*
X121020019Y-105800708D01*
X120970724Y-105797347D01*
X120970720Y-105797347D01*
X120963148Y-105796831D01*
X120955671Y-105798136D01*
X120955670Y-105798136D01*
X120928380Y-105802899D01*
X120901085Y-105807663D01*
X120894568Y-105808624D01*
X120880461Y-105810331D01*
X120839582Y-105815278D01*
X120839579Y-105815279D01*
X120832040Y-105816191D01*
X120824931Y-105818877D01*
X120821488Y-105819723D01*
X120807363Y-105823586D01*
X120803958Y-105824614D01*
X120796482Y-105825919D01*
X120738810Y-105851235D01*
X120732715Y-105853723D01*
X120680880Y-105873310D01*
X120680878Y-105873311D01*
X120673778Y-105875994D01*
X120667526Y-105880291D01*
X120664383Y-105881934D01*
X120651635Y-105889029D01*
X120648523Y-105890870D01*
X120641567Y-105893923D01*
X120635539Y-105898549D01*
X120635538Y-105898549D01*
X120591602Y-105932262D01*
X120586275Y-105936133D01*
X120574359Y-105944322D01*
X120542825Y-105965995D01*
X120534348Y-105971821D01*
X120529297Y-105977490D01*
X120529295Y-105977492D01*
X120493489Y-106017681D01*
X120488507Y-106022958D01*
X120200961Y-106310504D01*
X120194696Y-106316357D01*
X120151726Y-106353842D01*
X120135254Y-106377279D01*
X120115506Y-106405378D01*
X120111573Y-106410674D01*
X120077394Y-106454263D01*
X120077392Y-106454266D01*
X120072708Y-106460240D01*
X120069582Y-106467164D01*
X120067744Y-106470199D01*
X120060500Y-106482898D01*
X120058812Y-106486046D01*
X120054444Y-106492261D01*
X120033925Y-106544892D01*
X120031567Y-106550939D01*
X120029022Y-106556995D01*
X120003087Y-106614435D01*
X120001702Y-106621908D01*
X120000631Y-106625326D01*
X119996646Y-106639315D01*
X119995750Y-106642806D01*
X119992988Y-106649889D01*
X119989241Y-106678354D01*
X119987681Y-106690200D01*
X119958959Y-106755128D01*
X119899694Y-106794220D01*
X119828703Y-106795065D01*
X119821242Y-106792417D01*
X119818601Y-106790855D01*
X119810990Y-106788644D01*
X119810988Y-106788643D01*
X119758769Y-106773472D01*
X119658831Y-106744438D01*
X119652426Y-106743934D01*
X119652421Y-106743933D01*
X119623958Y-106741693D01*
X119623950Y-106741693D01*
X119621502Y-106741500D01*
X119188498Y-106741500D01*
X119186050Y-106741693D01*
X119186042Y-106741693D01*
X119157579Y-106743933D01*
X119157574Y-106743934D01*
X119151169Y-106744438D01*
X119051231Y-106773472D01*
X118999012Y-106788643D01*
X118999010Y-106788644D01*
X118991399Y-106790855D01*
X118848193Y-106875547D01*
X118845511Y-106878229D01*
X118781139Y-106903502D01*
X118711516Y-106889600D01*
X118695688Y-106879428D01*
X118691807Y-106875547D01*
X118548601Y-106790855D01*
X118540990Y-106788644D01*
X118540988Y-106788643D01*
X118488769Y-106773472D01*
X118388831Y-106744438D01*
X118382426Y-106743934D01*
X118382421Y-106743933D01*
X118353958Y-106741693D01*
X118353950Y-106741693D01*
X118351502Y-106741500D01*
X117918498Y-106741500D01*
X117916050Y-106741693D01*
X117916042Y-106741693D01*
X117887579Y-106743933D01*
X117887574Y-106743934D01*
X117881169Y-106744438D01*
X117781231Y-106773472D01*
X117729012Y-106788643D01*
X117729010Y-106788644D01*
X117721399Y-106790855D01*
X117578193Y-106875547D01*
X117575511Y-106878229D01*
X117511139Y-106903502D01*
X117441516Y-106889600D01*
X117425688Y-106879428D01*
X117421807Y-106875547D01*
X117278601Y-106790855D01*
X117270990Y-106788644D01*
X117270988Y-106788643D01*
X117218769Y-106773472D01*
X117118831Y-106744438D01*
X117112426Y-106743934D01*
X117112421Y-106743933D01*
X117083958Y-106741693D01*
X117083950Y-106741693D01*
X117081502Y-106741500D01*
X116968979Y-106741500D01*
X116900858Y-106721498D01*
X116854365Y-106667842D01*
X116844261Y-106597568D01*
X116849146Y-106576564D01*
X116873483Y-106501664D01*
X116893542Y-106439928D01*
X116894360Y-106432151D01*
X116912814Y-106256565D01*
X116913504Y-106250000D01*
X116909642Y-106213254D01*
X116894232Y-106066635D01*
X116894232Y-106066633D01*
X116893542Y-106060072D01*
X116834527Y-105878444D01*
X116819584Y-105852561D01*
X116788160Y-105798134D01*
X116739040Y-105713056D01*
X116690978Y-105659677D01*
X116615675Y-105576045D01*
X116615674Y-105576044D01*
X116611253Y-105571134D01*
X116503539Y-105492875D01*
X116462094Y-105462763D01*
X116462093Y-105462762D01*
X116456752Y-105458882D01*
X116450724Y-105456198D01*
X116450722Y-105456197D01*
X116288319Y-105383891D01*
X116288318Y-105383891D01*
X116282288Y-105381206D01*
X116188888Y-105361353D01*
X116101944Y-105342872D01*
X116101939Y-105342872D01*
X116095487Y-105341500D01*
X115904513Y-105341500D01*
X115898061Y-105342872D01*
X115898056Y-105342872D01*
X115811112Y-105361353D01*
X115717712Y-105381206D01*
X115711682Y-105383891D01*
X115711681Y-105383891D01*
X115684239Y-105396109D01*
X115585498Y-105440071D01*
X115515132Y-105449505D01*
X115450835Y-105419399D01*
X115440627Y-105409288D01*
X115361253Y-105321134D01*
X115206752Y-105208882D01*
X115200724Y-105206198D01*
X115200722Y-105206197D01*
X115038319Y-105133891D01*
X115038318Y-105133891D01*
X115032288Y-105131206D01*
X114925348Y-105108475D01*
X114851944Y-105092872D01*
X114851939Y-105092872D01*
X114845487Y-105091500D01*
X114654513Y-105091500D01*
X114648061Y-105092872D01*
X114648056Y-105092872D01*
X114574652Y-105108475D01*
X114467712Y-105131206D01*
X114461682Y-105133891D01*
X114461681Y-105133891D01*
X114299278Y-105206197D01*
X114299276Y-105206198D01*
X114293248Y-105208882D01*
X114287907Y-105212762D01*
X114287906Y-105212763D01*
X114190451Y-105283569D01*
X114123584Y-105307427D01*
X114054432Y-105291347D01*
X114007271Y-105244633D01*
X113994853Y-105223125D01*
X113989040Y-105213056D01*
X113981886Y-105205110D01*
X113865675Y-105076045D01*
X113865674Y-105076044D01*
X113861253Y-105071134D01*
X113733066Y-104978000D01*
X113712094Y-104962763D01*
X113712093Y-104962762D01*
X113706752Y-104958882D01*
X113700724Y-104956198D01*
X113700722Y-104956197D01*
X113552988Y-104890422D01*
X113498892Y-104844442D01*
X113478243Y-104776515D01*
X113497595Y-104708207D01*
X113540097Y-104666862D01*
X113540706Y-104666502D01*
X113611807Y-104624453D01*
X113614489Y-104621771D01*
X113678861Y-104596498D01*
X113748484Y-104610400D01*
X113764312Y-104620572D01*
X113768193Y-104624453D01*
X113911399Y-104709145D01*
X113919010Y-104711356D01*
X113919012Y-104711357D01*
X113971231Y-104726528D01*
X114071169Y-104755562D01*
X114077574Y-104756066D01*
X114077579Y-104756067D01*
X114106042Y-104758307D01*
X114106050Y-104758307D01*
X114108498Y-104758500D01*
X114541502Y-104758500D01*
X114543950Y-104758307D01*
X114543958Y-104758307D01*
X114572421Y-104756067D01*
X114572426Y-104756066D01*
X114578831Y-104755562D01*
X114678769Y-104726528D01*
X114730988Y-104711357D01*
X114730990Y-104711356D01*
X114738601Y-104709145D01*
X114881807Y-104624453D01*
X114884489Y-104621771D01*
X114948861Y-104596498D01*
X115018484Y-104610400D01*
X115034312Y-104620572D01*
X115038193Y-104624453D01*
X115181399Y-104709145D01*
X115189010Y-104711356D01*
X115189012Y-104711357D01*
X115241231Y-104726528D01*
X115341169Y-104755562D01*
X115347574Y-104756066D01*
X115347579Y-104756067D01*
X115376042Y-104758307D01*
X115376050Y-104758307D01*
X115378498Y-104758500D01*
X115811502Y-104758500D01*
X115813950Y-104758307D01*
X115813958Y-104758307D01*
X115842421Y-104756067D01*
X115842426Y-104756066D01*
X115848831Y-104755562D01*
X115948769Y-104726528D01*
X116000988Y-104711357D01*
X116000990Y-104711356D01*
X116008601Y-104709145D01*
X116151807Y-104624453D01*
X116154489Y-104621771D01*
X116218861Y-104596498D01*
X116288484Y-104610400D01*
X116304312Y-104620572D01*
X116308193Y-104624453D01*
X116451399Y-104709145D01*
X116459010Y-104711356D01*
X116459012Y-104711357D01*
X116511231Y-104726528D01*
X116611169Y-104755562D01*
X116617574Y-104756066D01*
X116617579Y-104756067D01*
X116646042Y-104758307D01*
X116646050Y-104758307D01*
X116648498Y-104758500D01*
X117081502Y-104758500D01*
X117083950Y-104758307D01*
X117083958Y-104758307D01*
X117112421Y-104756067D01*
X117112426Y-104756066D01*
X117118831Y-104755562D01*
X117218769Y-104726528D01*
X117270988Y-104711357D01*
X117270990Y-104711356D01*
X117278601Y-104709145D01*
X117421807Y-104624453D01*
X117424489Y-104621771D01*
X117488861Y-104596498D01*
X117558484Y-104610400D01*
X117574312Y-104620572D01*
X117578193Y-104624453D01*
X117721399Y-104709145D01*
X117729010Y-104711356D01*
X117729012Y-104711357D01*
X117781231Y-104726528D01*
X117881169Y-104755562D01*
X117887574Y-104756066D01*
X117887579Y-104756067D01*
X117916042Y-104758307D01*
X117916050Y-104758307D01*
X117918498Y-104758500D01*
X118351502Y-104758500D01*
X118353950Y-104758307D01*
X118353958Y-104758307D01*
X118382421Y-104756067D01*
X118382426Y-104756066D01*
X118388831Y-104755562D01*
X118488769Y-104726528D01*
X118540988Y-104711357D01*
X118540990Y-104711356D01*
X118548601Y-104709145D01*
X118691807Y-104624453D01*
X118694489Y-104621771D01*
X118758861Y-104596498D01*
X118828484Y-104610400D01*
X118844312Y-104620572D01*
X118848193Y-104624453D01*
X118991399Y-104709145D01*
X118999010Y-104711356D01*
X118999012Y-104711357D01*
X119051231Y-104726528D01*
X119151169Y-104755562D01*
X119157574Y-104756066D01*
X119157579Y-104756067D01*
X119186042Y-104758307D01*
X119186050Y-104758307D01*
X119188498Y-104758500D01*
X119621502Y-104758500D01*
X119623950Y-104758307D01*
X119623958Y-104758307D01*
X119652421Y-104756067D01*
X119652426Y-104756066D01*
X119658831Y-104755562D01*
X119758769Y-104726528D01*
X119810988Y-104711357D01*
X119810990Y-104711356D01*
X119818601Y-104709145D01*
X119961807Y-104624453D01*
X119964489Y-104621771D01*
X120028861Y-104596498D01*
X120098484Y-104610400D01*
X120114312Y-104620572D01*
X120118193Y-104624453D01*
X120261399Y-104709145D01*
X120269010Y-104711356D01*
X120269012Y-104711357D01*
X120321231Y-104726528D01*
X120421169Y-104755562D01*
X120427574Y-104756066D01*
X120427579Y-104756067D01*
X120456042Y-104758307D01*
X120456050Y-104758307D01*
X120458498Y-104758500D01*
X120891502Y-104758500D01*
X120893950Y-104758307D01*
X120893958Y-104758307D01*
X120922421Y-104756067D01*
X120922426Y-104756066D01*
X120928831Y-104755562D01*
X121028769Y-104726528D01*
X121080988Y-104711357D01*
X121080990Y-104711356D01*
X121088601Y-104709145D01*
X121231807Y-104624453D01*
X121234489Y-104621771D01*
X121298861Y-104596498D01*
X121368484Y-104610400D01*
X121384312Y-104620572D01*
X121388193Y-104624453D01*
X121531399Y-104709145D01*
X121539010Y-104711356D01*
X121539012Y-104711357D01*
X121591231Y-104726528D01*
X121691169Y-104755562D01*
X121697574Y-104756066D01*
X121697579Y-104756067D01*
X121726042Y-104758307D01*
X121726050Y-104758307D01*
X121728498Y-104758500D01*
X122161502Y-104758500D01*
X122163950Y-104758307D01*
X122163958Y-104758307D01*
X122192421Y-104756067D01*
X122192426Y-104756066D01*
X122198831Y-104755562D01*
X122298769Y-104726528D01*
X122350988Y-104711357D01*
X122350990Y-104711356D01*
X122358601Y-104709145D01*
X122416349Y-104674993D01*
X122494980Y-104628491D01*
X122494983Y-104628489D01*
X122501807Y-104624453D01*
X122548375Y-104577885D01*
X123242000Y-104577885D01*
X123246475Y-104593124D01*
X123247865Y-104594329D01*
X123255548Y-104596000D01*
X124527885Y-104596000D01*
X124543124Y-104591525D01*
X124544329Y-104590135D01*
X124546000Y-104582452D01*
X124546000Y-103460116D01*
X124541525Y-103444877D01*
X124540135Y-103443672D01*
X124532452Y-103442001D01*
X123705331Y-103442001D01*
X123698510Y-103442371D01*
X123647648Y-103447895D01*
X123632396Y-103451521D01*
X123511946Y-103496676D01*
X123496351Y-103505214D01*
X123394276Y-103581715D01*
X123381715Y-103594276D01*
X123305214Y-103696351D01*
X123296676Y-103711946D01*
X123251522Y-103832394D01*
X123247895Y-103847649D01*
X123242369Y-103898514D01*
X123242000Y-103905328D01*
X123242000Y-104577885D01*
X122548375Y-104577885D01*
X122619453Y-104506807D01*
X122623489Y-104499983D01*
X122623491Y-104499980D01*
X122700108Y-104370427D01*
X122704145Y-104363601D01*
X122750562Y-104203831D01*
X122752557Y-104178491D01*
X122753307Y-104168958D01*
X122753307Y-104168950D01*
X122753500Y-104166502D01*
X122753500Y-102383498D01*
X122753307Y-102381042D01*
X122751067Y-102352579D01*
X122751066Y-102352574D01*
X122750562Y-102346169D01*
X122711139Y-102210472D01*
X122706357Y-102194012D01*
X122706356Y-102194010D01*
X122704145Y-102186399D01*
X122689116Y-102160986D01*
X122661547Y-102114369D01*
X122644000Y-102050230D01*
X122644000Y-101827004D01*
X122664002Y-101758883D01*
X122717658Y-101712390D01*
X122782843Y-101701660D01*
X122849600Y-101708500D01*
X123650400Y-101708500D01*
X123653646Y-101708163D01*
X123653650Y-101708163D01*
X123749308Y-101698238D01*
X123749312Y-101698237D01*
X123756166Y-101697526D01*
X123762702Y-101695345D01*
X123762704Y-101695345D01*
X123909295Y-101646438D01*
X123923946Y-101641550D01*
X124074348Y-101548478D01*
X124160784Y-101461891D01*
X124223066Y-101427812D01*
X124293886Y-101432815D01*
X124338975Y-101461736D01*
X124409808Y-101532445D01*
X124426697Y-101549305D01*
X124432927Y-101553145D01*
X124432928Y-101553146D01*
X124570090Y-101637694D01*
X124577262Y-101642115D01*
X124625983Y-101658275D01*
X124738611Y-101695632D01*
X124738613Y-101695632D01*
X124745139Y-101697797D01*
X124751975Y-101698497D01*
X124751978Y-101698498D01*
X124795031Y-101702909D01*
X124849600Y-101708500D01*
X125650400Y-101708500D01*
X125653646Y-101708163D01*
X125653650Y-101708163D01*
X125749308Y-101698238D01*
X125749312Y-101698237D01*
X125756166Y-101697526D01*
X125762702Y-101695345D01*
X125762704Y-101695345D01*
X125909295Y-101646438D01*
X125923946Y-101641550D01*
X126074348Y-101548478D01*
X126199305Y-101423303D01*
X126228863Y-101375351D01*
X126288277Y-101278965D01*
X126288278Y-101278962D01*
X126292115Y-101272738D01*
X126292927Y-101270290D01*
X126338556Y-101218466D01*
X126405835Y-101199000D01*
X126819162Y-101199000D01*
X126887283Y-101219002D01*
G37*
%TD.AperFunction*%
%TA.AperFunction,Conductor*%
G36*
X117977048Y-93972018D02*
G01*
X117987510Y-93981805D01*
X118029215Y-94025523D01*
X118096576Y-94096135D01*
X118281542Y-94233754D01*
X118286293Y-94236170D01*
X118286297Y-94236172D01*
X118348604Y-94267850D01*
X118487051Y-94338240D01*
X118492145Y-94339822D01*
X118492148Y-94339823D01*
X118624460Y-94380907D01*
X118707227Y-94406607D01*
X118712516Y-94407308D01*
X118930489Y-94436198D01*
X118930494Y-94436198D01*
X118935774Y-94436898D01*
X118941103Y-94436698D01*
X118941105Y-94436698D01*
X119050966Y-94432573D01*
X119166158Y-94428249D01*
X119188802Y-94423498D01*
X119366855Y-94386139D01*
X119437632Y-94391727D01*
X119481824Y-94420359D01*
X121535503Y-96474038D01*
X121541356Y-96480303D01*
X121578842Y-96523274D01*
X121627900Y-96557753D01*
X121630389Y-96559502D01*
X121635684Y-96563435D01*
X121685239Y-96602291D01*
X121692163Y-96605417D01*
X121695212Y-96607264D01*
X121707878Y-96614489D01*
X121711043Y-96616186D01*
X121717261Y-96620556D01*
X121775996Y-96643456D01*
X121782009Y-96645983D01*
X121839435Y-96671912D01*
X121846903Y-96673296D01*
X121850311Y-96674364D01*
X121864350Y-96678364D01*
X121867814Y-96679253D01*
X121874889Y-96682012D01*
X121882418Y-96683003D01*
X121882421Y-96683004D01*
X121937345Y-96690235D01*
X121943859Y-96691267D01*
X121998317Y-96701360D01*
X121998320Y-96701360D01*
X122005786Y-96702744D01*
X122013366Y-96702307D01*
X122013367Y-96702307D01*
X122067094Y-96699209D01*
X122074347Y-96699000D01*
X122153726Y-96699000D01*
X122221847Y-96719002D01*
X122268340Y-96772658D01*
X122278444Y-96842932D01*
X122260986Y-96891116D01*
X122214132Y-96967127D01*
X122207885Y-96977262D01*
X122152203Y-97145139D01*
X122141500Y-97249600D01*
X122141500Y-97727973D01*
X122121498Y-97796094D01*
X122104595Y-97817068D01*
X121313337Y-98608326D01*
X121251025Y-98642352D01*
X121180210Y-98637287D01*
X121123374Y-98594740D01*
X121098563Y-98528220D01*
X121116982Y-98453115D01*
X121162816Y-98378757D01*
X121168963Y-98365576D01*
X121220138Y-98211290D01*
X121223005Y-98197914D01*
X121232672Y-98103562D01*
X121233000Y-98097146D01*
X121233000Y-97984615D01*
X121228525Y-97969376D01*
X121227135Y-97968171D01*
X121219452Y-97966500D01*
X118785116Y-97966500D01*
X118769877Y-97970975D01*
X118768672Y-97972365D01*
X118767001Y-97980048D01*
X118767001Y-98097095D01*
X118767338Y-98103614D01*
X118777257Y-98199206D01*
X118780149Y-98212600D01*
X118831588Y-98366784D01*
X118837761Y-98379962D01*
X118923063Y-98517807D01*
X118932099Y-98529208D01*
X119046828Y-98643738D01*
X119055762Y-98650794D01*
X119096823Y-98708712D01*
X119100053Y-98779635D01*
X119064426Y-98841046D01*
X119056593Y-98847846D01*
X119050652Y-98851522D01*
X119045479Y-98856704D01*
X119016255Y-98885979D01*
X118925695Y-98976697D01*
X118921855Y-98982927D01*
X118921854Y-98982928D01*
X118896120Y-99024677D01*
X118832885Y-99127262D01*
X118820202Y-99165500D01*
X118782187Y-99280114D01*
X118777203Y-99295139D01*
X118776503Y-99301975D01*
X118776502Y-99301978D01*
X118772091Y-99345031D01*
X118766500Y-99399600D01*
X118766500Y-99602972D01*
X118746498Y-99671093D01*
X118729595Y-99692067D01*
X118336485Y-100085177D01*
X118273588Y-100119328D01*
X118224176Y-100129831D01*
X118224167Y-100129834D01*
X118217712Y-100131206D01*
X118211682Y-100133891D01*
X118211681Y-100133891D01*
X118049278Y-100206197D01*
X118049276Y-100206198D01*
X118043248Y-100208882D01*
X118037907Y-100212762D01*
X118037906Y-100212763D01*
X117997150Y-100242374D01*
X117888747Y-100321134D01*
X117884326Y-100326044D01*
X117884325Y-100326045D01*
X117865616Y-100346824D01*
X117794416Y-100425900D01*
X117783636Y-100437872D01*
X117723190Y-100475112D01*
X117652207Y-100473760D01*
X117593222Y-100434247D01*
X117564964Y-100369116D01*
X117564000Y-100353562D01*
X117564000Y-97440385D01*
X118767000Y-97440385D01*
X118771475Y-97455624D01*
X118772865Y-97456829D01*
X118780548Y-97458500D01*
X119727885Y-97458500D01*
X119743124Y-97454025D01*
X119744329Y-97452635D01*
X119746000Y-97444952D01*
X119746000Y-97440385D01*
X120254000Y-97440385D01*
X120258475Y-97455624D01*
X120259865Y-97456829D01*
X120267548Y-97458500D01*
X121214884Y-97458500D01*
X121230123Y-97454025D01*
X121231328Y-97452635D01*
X121232999Y-97444952D01*
X121232999Y-97327905D01*
X121232662Y-97321386D01*
X121222743Y-97225794D01*
X121219851Y-97212400D01*
X121168412Y-97058216D01*
X121162239Y-97045038D01*
X121076937Y-96907193D01*
X121067901Y-96895792D01*
X120953171Y-96781261D01*
X120941760Y-96772249D01*
X120803757Y-96687184D01*
X120790576Y-96681037D01*
X120636290Y-96629862D01*
X120622914Y-96626995D01*
X120528562Y-96617328D01*
X120522145Y-96617000D01*
X120272115Y-96617000D01*
X120256876Y-96621475D01*
X120255671Y-96622865D01*
X120254000Y-96630548D01*
X120254000Y-97440385D01*
X119746000Y-97440385D01*
X119746000Y-96635116D01*
X119741525Y-96619877D01*
X119740135Y-96618672D01*
X119732452Y-96617001D01*
X119477905Y-96617001D01*
X119471386Y-96617338D01*
X119375794Y-96627257D01*
X119362400Y-96630149D01*
X119208216Y-96681588D01*
X119195038Y-96687761D01*
X119057193Y-96773063D01*
X119045792Y-96782099D01*
X118931261Y-96896829D01*
X118922249Y-96908240D01*
X118837184Y-97046243D01*
X118831037Y-97059424D01*
X118779862Y-97213710D01*
X118776995Y-97227086D01*
X118767328Y-97321438D01*
X118767000Y-97327855D01*
X118767000Y-97440385D01*
X117564000Y-97440385D01*
X117564000Y-94335971D01*
X117584002Y-94267850D01*
X117600827Y-94246953D01*
X117694134Y-94153483D01*
X117699305Y-94148303D01*
X117789081Y-94002660D01*
X117841852Y-93955168D01*
X117911924Y-93943744D01*
X117977048Y-93972018D01*
G37*
%TD.AperFunction*%
%TA.AperFunction,Conductor*%
G36*
X115088091Y-93669002D02*
G01*
X115134584Y-93722658D01*
X115145297Y-93761996D01*
X115150875Y-93815752D01*
X115152474Y-93831166D01*
X115154655Y-93837702D01*
X115154655Y-93837704D01*
X115186405Y-93932870D01*
X115208450Y-93998946D01*
X115301522Y-94149348D01*
X115426697Y-94274305D01*
X115432927Y-94278145D01*
X115432928Y-94278146D01*
X115526496Y-94335822D01*
X115577262Y-94367115D01*
X115614433Y-94379444D01*
X115738611Y-94420632D01*
X115738613Y-94420632D01*
X115745139Y-94422797D01*
X115751975Y-94423497D01*
X115751978Y-94423498D01*
X115787663Y-94427154D01*
X115849600Y-94433500D01*
X116040000Y-94433500D01*
X116108121Y-94453502D01*
X116154614Y-94507158D01*
X116166000Y-94559500D01*
X116166000Y-96548096D01*
X116145998Y-96616217D01*
X116092342Y-96662710D01*
X116022068Y-96672814D01*
X116000332Y-96667689D01*
X115886290Y-96629862D01*
X115872914Y-96626995D01*
X115778562Y-96617328D01*
X115772145Y-96617000D01*
X115522115Y-96617000D01*
X115506876Y-96621475D01*
X115505671Y-96622865D01*
X115504000Y-96630548D01*
X115504000Y-97840500D01*
X115483998Y-97908621D01*
X115430342Y-97955114D01*
X115378000Y-97966500D01*
X115122000Y-97966500D01*
X115053879Y-97946498D01*
X115007386Y-97892842D01*
X114996000Y-97840500D01*
X114996000Y-96635116D01*
X114991525Y-96619877D01*
X114990135Y-96618672D01*
X114982452Y-96617001D01*
X114727905Y-96617001D01*
X114721386Y-96617338D01*
X114625794Y-96627257D01*
X114612400Y-96630149D01*
X114458216Y-96681588D01*
X114445038Y-96687761D01*
X114307193Y-96773063D01*
X114295792Y-96782099D01*
X114181261Y-96896829D01*
X114172249Y-96908240D01*
X114087184Y-97046243D01*
X114081037Y-97059424D01*
X114029862Y-97213710D01*
X114026995Y-97227087D01*
X114021588Y-97279860D01*
X113994747Y-97345588D01*
X113936633Y-97386370D01*
X113865695Y-97389260D01*
X113807149Y-97356114D01*
X112726997Y-96275962D01*
X112721143Y-96269696D01*
X112688652Y-96232451D01*
X112683658Y-96226726D01*
X112632122Y-96190506D01*
X112626826Y-96186573D01*
X112583237Y-96152394D01*
X112583234Y-96152392D01*
X112577260Y-96147708D01*
X112570336Y-96144582D01*
X112567301Y-96142744D01*
X112554602Y-96135500D01*
X112551454Y-96133812D01*
X112545239Y-96129444D01*
X112486550Y-96106562D01*
X112480505Y-96104022D01*
X112423065Y-96078087D01*
X112415592Y-96076702D01*
X112412174Y-96075631D01*
X112398185Y-96071646D01*
X112394693Y-96070749D01*
X112387611Y-96067988D01*
X112380078Y-96066996D01*
X112380077Y-96066996D01*
X112325170Y-96059767D01*
X112318657Y-96058735D01*
X112264182Y-96048639D01*
X112264180Y-96048639D01*
X112256713Y-96047255D01*
X112249133Y-96047692D01*
X112249132Y-96047692D01*
X112195388Y-96050791D01*
X112188135Y-96051000D01*
X112161427Y-96051000D01*
X112093306Y-96030998D01*
X112053995Y-95990835D01*
X111983896Y-95876445D01*
X111974176Y-95860584D01*
X111948378Y-95830378D01*
X111823177Y-95683787D01*
X111819969Y-95680031D01*
X111816213Y-95676823D01*
X111816208Y-95676818D01*
X111735488Y-95607877D01*
X111696679Y-95548427D01*
X111696171Y-95477432D01*
X111734127Y-95417433D01*
X111772774Y-95394203D01*
X111826222Y-95374006D01*
X111832478Y-95369707D01*
X111835618Y-95368065D01*
X111848372Y-95360967D01*
X111851478Y-95359130D01*
X111858433Y-95356077D01*
X111864460Y-95351452D01*
X111864464Y-95351450D01*
X111908402Y-95317735D01*
X111913720Y-95313871D01*
X111965652Y-95278179D01*
X111978201Y-95264095D01*
X112006518Y-95232312D01*
X112011499Y-95227036D01*
X113552630Y-93685905D01*
X113614942Y-93651879D01*
X113641725Y-93649000D01*
X115019970Y-93649000D01*
X115088091Y-93669002D01*
G37*
%TD.AperFunction*%
%TD*%
M02*
